<svg xmlns="http://www.w3.org/2000/svg" xmlns:xlink="http://www.w3.org/1999/xlink" width="44" height="44" viewBox="0 0 44 44">
  <defs>
    <clipPath id="clip-path">
      <rect id="Rectangle_111" data-name="Rectangle 111" width="44" height="44" fill="#1c1c1c"/>
    </clipPath>
  </defs>
  <g id="chlorine" clip-path="url(#clip-path)">
    <path id="Path_136" data-name="Path 136" d="M22,44A22,22,0,1,1,44,22,22.025,22.025,0,0,1,22,44M22,5.143A16.857,16.857,0,1,0,38.857,22,16.876,16.876,0,0,0,22,5.143" fill="#1c1c1c"/>
    <path id="Path_137" data-name="Path 137" d="M92.506,130.14a.9.9,0,0,1-.127.531,1.314,1.314,0,0,1-.4.335,2.582,2.582,0,0,1-.4.179,4.413,4.413,0,0,1-.531.15,5.74,5.74,0,0,1-.606.1,5.888,5.888,0,0,1-.629.035,5.259,5.259,0,0,1-1.56-.225,3.552,3.552,0,0,1-1.265-.682,3.225,3.225,0,0,1-.849-1.138,4.174,4.174,0,0,1,.029-3.234,3.468,3.468,0,0,1,.9-1.172,3.775,3.775,0,0,1,1.282-.7,4.837,4.837,0,0,1,1.484-.231,3.628,3.628,0,0,1,1.738.352,1.043,1.043,0,0,1,.641.919.9.9,0,0,1-.15.519,1.232,1.232,0,0,1-.346.347,4.766,4.766,0,0,0-.722-.341,2.7,2.7,0,0,0-.976-.167,2.12,2.12,0,0,0-1.542.554,2.04,2.04,0,0,0-.572,1.536,2.451,2.451,0,0,0,.156.918,1.744,1.744,0,0,0,.422.635,1.716,1.716,0,0,0,.612.37,2.231,2.231,0,0,0,.739.121,1.95,1.95,0,0,0,.451-.047,1.194,1.194,0,0,0,.3-.1v-1.086H89.341a1.838,1.838,0,0,1-.133-.335,1.491,1.491,0,0,1-.063-.439.808.808,0,0,1,.191-.6.675.675,0,0,1,.491-.185h1.952a.663.663,0,0,1,.728.727Z" transform="translate(-75.882 -109.72)" fill="#1c1c1c"/>
    <path id="Path_138" data-name="Path 138" d="M158.731,130.706a1.116,1.116,0,0,1-.387.2,1.811,1.811,0,0,1-.549.075,1.94,1.94,0,0,1-.687-.1.55.55,0,0,1-.352-.358q-.324-1.016-.531-1.646t-.324-1.1h-.058q-.034.681-.052,1.241t-.023,1.092q-.006.531-.023,1.074t-.052,1.2a2.076,2.076,0,0,1-.393.1,2.946,2.946,0,0,1-.485.041,1.6,1.6,0,0,1-.791-.162.618.618,0,0,1-.283-.589l.335-5.89a1.111,1.111,0,0,1,.4-.323,1.822,1.822,0,0,1,.878-.174,2.006,2.006,0,0,1,.959.191,1.13,1.13,0,0,1,.508.618q.1.277.225.635t.242.739q.121.381.237.756l.207.676h.058q.278-.97.555-1.877t.508-1.519a1.861,1.861,0,0,1,.445-.156,2.693,2.693,0,0,1,.606-.063,2.188,2.188,0,0,1,.924.168.664.664,0,0,1,.416.479q.046.231.1.71t.11,1.08q.057.6.115,1.27t.11,1.287q.052.619.087,1.132t.046.791a1.5,1.5,0,0,1-.41.167,2.361,2.361,0,0,1-.548.052,1.641,1.641,0,0,1-.739-.15.634.634,0,0,1-.324-.589q-.069-1.259-.087-2.264t-.052-1.686H159.6q-.116.45-.335,1.132t-.531,1.744" transform="translate(-135.94 -110.864)" fill="#1c1c1c"/>
    <path id="Path_139" data-name="Path 139" d="M231.044,127.6a4.189,4.189,0,0,1,.283-1.593,3.214,3.214,0,0,1,1.929-1.871,4.384,4.384,0,0,1,2.876,0,3.358,3.358,0,0,1,1.161.71,3.267,3.267,0,0,1,.78,1.161,4.189,4.189,0,0,1,.283,1.593,4.3,4.3,0,0,1-.277,1.6,3.225,3.225,0,0,1-.768,1.167,3.292,3.292,0,0,1-1.161.71,4.251,4.251,0,0,1-1.455.242,4.164,4.164,0,0,1-1.455-.248,3.243,3.243,0,0,1-1.155-.722,3.333,3.333,0,0,1-.762-1.167,4.229,4.229,0,0,1-.277-1.582m2.079,0a2.438,2.438,0,0,0,.427,1.571,1.531,1.531,0,0,0,2.3,0,3.1,3.1,0,0,0,.006-3.13,1.4,1.4,0,0,0-1.149-.52,1.428,1.428,0,0,0-1.149.514,2.386,2.386,0,0,0-.433,1.565" transform="translate(-204.292 -109.543)" fill="#1c1c1c"/>
    <path id="Path_140" data-name="Path 140" d="M92.3,196.977a1.316,1.316,0,0,1,.139.329,1.507,1.507,0,0,1,.061.429.853.853,0,0,1-.184.619.669.669,0,0,1-.5.184H89.475v1.26h2.442a1.09,1.09,0,0,1,.151.323,1.449,1.449,0,0,1,.061.424.836.836,0,0,1-.184.608.67.67,0,0,1-.5.184H89.5v2.353a3.13,3.13,0,0,1-.385.067,4.107,4.107,0,0,1-.518.033,2.323,2.323,0,0,1-.452-.039.8.8,0,0,1-.329-.14.6.6,0,0,1-.2-.279,1.349,1.349,0,0,1-.067-.468v-4.851a.963.963,0,0,1,1.038-1.037Z" transform="translate(-77.408 -174.169)" fill="#1c1c1c"/>
    <path id="Path_141" data-name="Path 141" d="M140.626,200.1v2.141a3.118,3.118,0,0,1-.385.067,4.107,4.107,0,0,1-.518.033,2.334,2.334,0,0,1-.452-.039.753.753,0,0,1-.323-.14.62.62,0,0,1-.195-.278,1.349,1.349,0,0,1-.067-.468v-5.253a.488.488,0,0,1,.129-.362.914.914,0,0,1,.351-.207,4.216,4.216,0,0,1,.881-.2,8.852,8.852,0,0,1,1.071-.061,3.57,3.57,0,0,1,2.32.646,2.155,2.155,0,0,1,.78,1.751,1.953,1.953,0,0,1-.357,1.182,2.557,2.557,0,0,1-.847.758q.4.547.792,1.026a6.678,6.678,0,0,1,.614.87,1.052,1.052,0,0,1-.407.6,1.132,1.132,0,0,1-.664.207,1.428,1.428,0,0,1-.423-.056,1.009,1.009,0,0,1-.312-.156,1.285,1.285,0,0,1-.246-.245,3.311,3.311,0,0,1-.212-.312l-.937-1.505Zm.7-1.483A.972.972,0,0,0,142,198.4a.812.812,0,0,0,.246-.641.771.771,0,0,0-.274-.641,1.385,1.385,0,0,0-.864-.218,2.552,2.552,0,0,0-.268.011c-.067.007-.141.019-.223.033v1.673Z" transform="translate(-122.627 -172.722)" fill="#1c1c1c"/>
    <path id="Path_142" data-name="Path 142" d="M197.341,198.014a.962.962,0,0,1,1.038-1.037h3.68a1.323,1.323,0,0,1,.14.323,1.442,1.442,0,0,1,.061.424.816.816,0,0,1-.184.6.666.666,0,0,1-.485.178h-2.353v1.037h2.509a1.359,1.359,0,0,1,.139.318,1.394,1.394,0,0,1,.061.418.834.834,0,0,1-.178.6.648.648,0,0,1-.48.178h-2.052v1.171H202.1a1.34,1.34,0,0,1,.139.324,1.447,1.447,0,0,1,.061.423.838.838,0,0,1-.184.608.656.656,0,0,1-.485.184h-3.256a.962.962,0,0,1-1.038-1.037Z" transform="translate(-174.491 -174.169)" fill="#1c1c1c"/>
    <path id="Path_143" data-name="Path 143" d="M250.118,198.014a.962.962,0,0,1,1.038-1.037h3.68a1.323,1.323,0,0,1,.14.323,1.443,1.443,0,0,1,.061.424.816.816,0,0,1-.184.6.666.666,0,0,1-.485.178h-2.353v1.037h2.509a1.365,1.365,0,0,1,.139.318,1.4,1.4,0,0,1,.061.418.835.835,0,0,1-.178.6.648.648,0,0,1-.48.178h-2.052v1.171h2.866a1.34,1.34,0,0,1,.139.324,1.447,1.447,0,0,1,.061.423.838.838,0,0,1-.184.608.656.656,0,0,1-.485.184h-3.256a.962.962,0,0,1-1.038-1.037Z" transform="translate(-221.157 -174.169)" fill="#1c1c1c"/>
    <path id="Path_144" data-name="Path 144" d="M112.652,96.439a.429.429,0,1,1,.429.424.428.428,0,0,1-.429-.424m-1.766.257h0a.435.435,0,1,1,.069,0,.381.381,0,0,1-.069,0m3.9-.36a.429.429,0,1,1,.493.355.342.342,0,0,1-.069,0,.431.431,0,0,1-.424-.36m-6.039-.15a.428.428,0,1,1,.133.021.361.361,0,0,1-.133-.021m8.13-.283a.428.428,0,1,1,.54.275.346.346,0,0,1-.133.021.431.431,0,0,1-.407-.3m-10.166-.557h0a.428.428,0,0,1,.39-.763.428.428,0,0,1-.2.81.453.453,0,0,1-.193-.047m12.163-.2a.431.431,0,0,1,.189-.578.428.428,0,0,1,.39.763.4.4,0,0,1-.2.047.435.435,0,0,1-.382-.231m-14.04-.951a.427.427,0,0,1-.094-.6.422.422,0,0,1,.6-.094.427.427,0,0,1-.249.776.423.423,0,0,1-.253-.081m15.891-.111a.43.43,0,1,1,.6.094.425.425,0,0,1-.253.081.435.435,0,0,1-.347-.175m-17.567-1.316a.432.432,0,0,1,0-.608.426.426,0,0,1,.6,0,.429.429,0,0,1-.3.733.439.439,0,0,1-.3-.124m19.234-.021a.427.427,0,1,1,.6,0,.419.419,0,0,1-.6,0M103.121,73.537a.425.425,0,1,1,.3.124.428.428,0,0,1-.3-.124m19.23-.056h0a.432.432,0,0,1,0-.609.429.429,0,1,1,.3.733.439.439,0,0,1-.3-.124M104.693,72.1a.43.43,0,0,1,.094-.6.425.425,0,0,1,.6.09.429.429,0,0,1-.09.6.425.425,0,0,1-.6-.09m16.084.043h0a.426.426,0,0,1-.1-.6.428.428,0,1,1,.694.5.423.423,0,0,1-.347.176.411.411,0,0,1-.249-.081m-14.306-1.221a.429.429,0,1,1,.579.184.459.459,0,0,1-.2.047.434.434,0,0,1-.382-.231m12.54.146a.428.428,0,1,1,.575-.189.43.43,0,0,1-.382.236.381.381,0,0,1-.193-.047m-10.594-1.033a.428.428,0,1,1,.814-.266.431.431,0,0,1-.274.54.5.5,0,0,1-.133.021.431.431,0,0,1-.407-.3m8.683.249a.423.423,0,1,1,.129.021.455.455,0,0,1-.129-.021m-6.626-.814a.428.428,0,1,1,.845-.137.424.424,0,0,1-.356.489.346.346,0,0,1-.064.009.428.428,0,0,1-.424-.36m4.612.343h0a.434.434,0,1,1,.064,0c-.021,0-.043,0-.064,0m-2.49-.583a.429.429,0,0,1,.857,0,.429.429,0,1,1-.857,0" transform="translate(-91.066 -60.83)" fill="#1c1c1c"/>
  </g>
</svg>
