<svg xmlns="http://www.w3.org/2000/svg" width="32" height="46" viewBox="0 0 32 46">
  <g id="flower-rose" transform="translate(-7 -1)">
    <path id="Path_31" data-name="Path 31" d="M27,27A18.991,18.991,0,0,1,8,46" fill="none" stroke="#1c1c1c" stroke-linecap="round" stroke-linejoin="round" stroke-width="2"/>
    <path id="Path_32" data-name="Path 32" d="M16,7v9a11,11,0,0,0,22,0V7" fill="none" stroke="#1c1c1c" stroke-linecap="round" stroke-linejoin="round" stroke-width="2"/>
    <path id="Path_33" data-name="Path 33" d="M24,7.5A8.666,8.666,0,0,1,27,7c2.761,0,5,1.119,5,2.5S29.761,12,27,12c-6.075,0-11-2.239-11-5s4.925-5,11-5S38,4.239,38,7" fill="none" stroke="#1c1c1c" stroke-linecap="round" stroke-linejoin="round" stroke-width="2"/>
    <path id="Path_34" data-name="Path 34" d="M17.615,43.391A7.988,7.988,0,0,0,11.205,32a9.971,9.971,0,0,0,3.238,9.537" fill="none" stroke="#1c1c1c" stroke-linecap="round" stroke-linejoin="round" stroke-width="2"/>
    <path id="Path_35" data-name="Path 35" d="M24.5,36.42a7.1,7.1,0,0,1,5.8-.324,7.991,7.991,0,0,1,5.249,6.693A9.966,9.966,0,0,1,26,39.589" fill="none" stroke="#1c1c1c" stroke-linecap="round" stroke-linejoin="round" stroke-width="2"/>
    <path id="Path_36" data-name="Path 36" d="M27,27a4,4,0,0,1-4-4c0-6,9-4,9-13.5" fill="none" stroke="#1c1c1c" stroke-linecap="round" stroke-linejoin="round" stroke-width="2"/>
  </g>
</svg>
