<svg xmlns="http://www.w3.org/2000/svg" xmlns:xlink="http://www.w3.org/1999/xlink" width="49.753" height="49.639" viewBox="0 0 49.753 49.639">
  <defs>
    <clipPath id="clip-path">
      <rect id="Rectangle_125" data-name="Rectangle 125" width="49.753" height="49.639" fill="none"/>
    </clipPath>
  </defs>
  <g id="gots" clip-path="url(#clip-path)">
    <path id="Path_371" data-name="Path 371" d="M80.355,60.7A18.755,18.755,0,1,0,99.111,79.455,18.752,18.752,0,0,0,80.355,60.7" transform="translate(-55.484 -54.673)" fill="#1c1c1c"/>
    <path id="Path_372" data-name="Path 372" d="M88.989,414.166a1.668,1.668,0,0,1,.377,2.512,1.728,1.728,0,0,1-2.532.228,3.575,3.575,0,0,1-.735-.764l.377-.427a2.094,2.094,0,0,0,.566.685,1.135,1.135,0,0,0,1.708-.2,1.056,1.056,0,0,0-.1-1.608,1.524,1.524,0,0,0-.467-.258l-.447.566.348.278-.308.387-.874-.685,1-1.281a3.316,3.316,0,0,1,1.082.566" transform="translate(-77.551 -372.535)" fill="#1c1c1b"/>
    <path id="Path_373" data-name="Path 373" d="M67.908,387.339,65.4,389.582l-.5-.556,2.065-1.847L66,386.1l.447-.4Z" transform="translate(-58.456 -347.405)" fill="#1c1c1b"/>
    <path id="Path_374" data-name="Path 374" d="M38.281,358.858a1.555,1.555,0,0,1-.586,2.323,1.58,1.58,0,0,1-2.353-.467,1.74,1.74,0,0,1,2.939-1.857m-2.492,1.579c.348.556,1.033.377,1.5.079s.913-.834.566-1.39-1.023-.387-1.5-.089-.933.834-.566,1.4" transform="translate(-31.559 -322.499)" fill="#1c1c1b"/>
    <path id="Path_375" data-name="Path 375" d="M18.86,321.86,19.316,323l-3.137,1.251-.506-1.281c-.209-.516-.238-1.1.367-1.34a.774.774,0,0,1,.983.328.808.808,0,0,1,.467-.993c.735-.3,1.132.278,1.37.894m-2.671,1.162.159.387.894-.357-.129-.338c-.119-.308-.348-.586-.715-.437-.328.139-.318.467-.209.745m1.34-.427.119.3.983-.387-.129-.328c-.129-.318-.367-.655-.755-.5-.437.169-.357.576-.218.913" transform="translate(-13.995 -289.025)" fill="#1c1c1b"/>
    <path id="Path_376" data-name="Path 376" d="M6.917,276.865l-.774.457.288,1.41.884.129.149.725-3.564-.6-.2-.963L6.758,276.1Zm-2.641,1.559,1.628.258-.218-1.1Z" transform="translate(-3.333 -248.687)" fill="#1c1c1b"/>
    <path id="Path_377" data-name="Path 377" d="M3.4,245.795l-3.376.079L0,245.129l2.78-.07-.04-1.45.6-.01Z" transform="translate(0 -219.414)" fill="#1c1c1b"/>
    <path id="Path_378" data-name="Path 378" d="M10.442,175.909a1.559,1.559,0,0,1-2.1,1.152,1.585,1.585,0,0,1-1.261-2.045,1.564,1.564,0,0,1,2.1-1.162,1.58,1.58,0,0,1,1.261,2.055m-2.859-.755c-.169.635.427,1.013.953,1.152s1.231.1,1.4-.526c.169-.645-.407-1.013-.953-1.162s-1.221-.119-1.4.536" transform="translate(-6.312 -156.518)" fill="#1c1c1b"/>
    <path id="Path_379" data-name="Path 379" d="M22.782,135.617l-1.023-.1c-.348-.04-.467-.01-.635.318l-.119.248,1.261.606-.318.665L18.9,135.9l.6-1.241c.248-.516.7-.943,1.3-.645a.828.828,0,0,1,.4,1.052.653.653,0,0,1,.685-.268l1.231.109Zm-2.949-.5-.159.328.884.427.149-.308c.149-.308.209-.675-.149-.854s-.566.079-.725.407" transform="translate(-17.023 -120.615)" fill="#1c1c1b"/>
    <path id="Path_380" data-name="Path 380" d="M48.069,96.4a1.68,1.68,0,0,1-2.492.477,1.729,1.729,0,0,1-.318-2.522,3.534,3.534,0,0,1,.735-.755l.437.357a1.89,1.89,0,0,0-.655.6,1.136,1.136,0,0,0,.258,1.7,1.065,1.065,0,0,0,1.608-.159,1.433,1.433,0,0,0,.238-.477l-.586-.427-.258.357-.4-.288.655-.9,1.321.953a3.755,3.755,0,0,1-.546,1.092" transform="translate(-40.404 -84.307)" fill="#1c1c1b"/>
    <path id="Path_381" data-name="Path 381" d="M79,66.525l-.794-.417-1.052.983.357.824-.536.506L75.6,65.075l.715-.675,3.247,1.579Zm-2.72-1.43.635,1.519.824-.774Z" transform="translate(-68.094 -58.006)" fill="#1c1c1b"/>
    <path id="Path_382" data-name="Path 382" d="M108.9,33.346l-2.512-1.678L107.843,34l-.566.357L105.5,31.489l.923-.576,2.522,1.688-1.46-2.353.566-.348,1.777,2.869Z" transform="translate(-95.025 -26.932)" fill="#1c1c1b"/>
    <path id="Path_383" data-name="Path 383" d="M150.13,22.106,148.8,19l.7-.3,1.321,3.108Z" transform="translate(-134.026 -16.844)" fill="#1c1c1b"/>
    <path id="Path_384" data-name="Path 384" d="M177.53,9.565a1.669,1.669,0,0,1-2.244-1.191,1.727,1.727,0,0,1,1.321-2.164,3.515,3.515,0,0,1,.844-.109l.119.546a1.884,1.884,0,0,0-.7.05,1.124,1.124,0,0,0-.824,1.46A1.09,1.09,0,0,0,177.48,9a1.771,1.771,0,0,0,.655-.328l.169.516a1.947,1.947,0,0,1-.774.377" transform="translate(-157.821 -5.494)" fill="#1c1c1b"/>
    <path id="Path_385" data-name="Path 385" d="M242.817.636l-.07,2.78-.755-.02.069-2.78L241,.6l.02-.6,2.869.06-.02.606Z" transform="translate(-217.072 0)" fill="#1c1c1b"/>
    <path id="Path_386" data-name="Path 386" d="M279.3,5.817l.606-3.316,2.164.387-.1.516-1.44-.268-.159.874,1.38.248-.1.506-1.37-.258-.169.933,1.479.268-.089.506Z" transform="translate(-251.569 -2.252)" fill="#1c1c1b"/>
    <path id="Path_387" data-name="Path 387" d="M311.673,14.2l-.318-1.579-1.291.983-.764-.288,1.767-1.221-.477-1.9.8.3.3,1.42,1.142-.894.745.278-1.608,1.132.536,2.065Z" transform="translate(-278.59 -9.188)" fill="#1c1c1b"/>
    <path id="Path_388" data-name="Path 388" d="M356.435,27.41l-1.38,2.413-.655-.377,1.38-2.4-.913-.526.288-.516,2.492,1.42-.3.516Z" transform="translate(-319.212 -23.419)" fill="#1c1c1b"/>
    <rect id="Rectangle_123" data-name="Rectangle 123" width="3.376" height="0.745" transform="translate(37.572 7.553) rotate(-52.75)" fill="#1c1c1b"/>
    <path id="Path_389" data-name="Path 389" d="M396.5,68.983l2.383-2.383.536.526-1.966,1.966,1.033,1.023-.427.427Z" transform="translate(-357.132 -59.988)" fill="#1c1c1b"/>
    <path id="Path_390" data-name="Path 390" d="M418.5,95.606l2.711-2.006,1.311,1.767-.417.308-.874-1.182-.7.526.824,1.122-.407.308-.834-1.122-.755.556.894,1.221-.417.308Z" transform="translate(-376.948 -84.307)" fill="#1c1c1b"/>
    <path id="Path_391" data-name="Path 391" d="M450.328,156.423a3.636,3.636,0,0,1-.228-1.023l.546-.179a2.087,2.087,0,0,0,.139.953c.109.3.328.566.665.447.238-.089.248-.477.258-.735l.02-.377a.919.919,0,0,1,.576-.953c.685-.258,1.172.367,1.38.943a3.406,3.406,0,0,1,.2.834l-.526.169a2.144,2.144,0,0,0-.139-.784c-.1-.258-.308-.6-.626-.477-.218.079-.228.4-.238.635l-.01.387c-.01.477-.109.864-.606,1.052-.675.258-1.182-.268-1.41-.894" transform="translate(-405.411 -139.157)" fill="#1c1c1b"/>
    <path id="Path_392" data-name="Path 392" d="M464.769,188.1l-2.72.556-.149-.735,2.721-.556-.209-1.043.576-.119.576,2.81-.586.119Z" transform="translate(-416.039 -167.713)" fill="#1c1c1b"/>
    <path id="Path_393" data-name="Path 393" d="M466.489,228.47l.834-.328-.05-1.43-.854-.278-.02-.735,3.415,1.172.03.983-3.326,1.4Zm2.859-1.1-1.559-.516.04,1.132Z" transform="translate(-420.092 -203.291)" fill="#1c1c1b"/>
    <path id="Path_394" data-name="Path 394" d="M461.979,272.777l2.919-.784-2.72-.437.1-.655,3.336.536-.179,1.082-2.919.794,2.72.437-.109.655-3.326-.536Z" transform="translate(-415.949 -244.003)" fill="#1c1c1b"/>
    <path id="Path_395" data-name="Path 395" d="M452.421,315.462l.4-1.062,3.157,1.2-.447,1.172a1.537,1.537,0,0,1-2.184,1.013,1.612,1.612,0,0,1-.923-2.323m2.671,1.013.139-.367-2.194-.834-.1.258a1.038,1.038,0,0,0,.685,1.5,1.012,1.012,0,0,0,1.469-.556" transform="translate(-407.345 -283.184)" fill="#1c1c1b"/>
    <path id="Path_396" data-name="Path 396" d="M427.007,349.783l.874.179.745-1.231-.566-.7.377-.635,2.224,2.85-.506.844-3.555-.645Zm3,.635-1.023-1.291-.586.963Z" transform="translate(-384.244 -312.907)" fill="#1c1c1b"/>
    <path id="Path_397" data-name="Path 397" d="M403.446,386.14l.953.377c.328.129.447.139.7-.139l.179-.209-1.052-.923.487-.546,2.532,2.234-.913,1.033c-.377.437-.923.715-1.43.268a.839.839,0,0,1-.1-1.122.661.661,0,0,1-.735.07l-1.162-.437Zm2.7,1.281.238-.268-.735-.645-.228.258c-.228.258-.387.6-.089.864.308.248.576.06.814-.209" transform="translate(-362.897 -346.504)" fill="#1c1c1b"/>
    <path id="Path_398" data-name="Path 398" d="M379.146,413l.894-.7,2.085,2.651-.983.774a1.531,1.531,0,0,1-2.393-.258,1.606,1.606,0,0,1,.4-2.462m1.767,2.244.308-.238-1.45-1.837-.218.169a1.035,1.035,0,0,0-.189,1.638,1.023,1.023,0,0,0,1.549.268" transform="translate(-340.771 -371.364)" fill="#1c1c1b"/>
    <path id="Path_399" data-name="Path 399" d="M178.952,462.154a1.682,1.682,0,0,1-1.37-2.155,1.73,1.73,0,0,1,2.234-1.241,3.549,3.549,0,0,1,.983.407l-.169.546a2.066,2.066,0,0,0-.794-.4,1.145,1.145,0,0,0-1.489.884,1.067,1.067,0,0,0,.745,1.44,1.392,1.392,0,0,0,.536.05l.179-.7-.437-.109.119-.477,1.082.268-.4,1.589a3.6,3.6,0,0,1-1.221-.1" transform="translate(-159.889 -413.146)" fill="#1c1c1b"/>
    <path id="Path_400" data-name="Path 400" d="M220.474,468.51a1.546,1.546,0,0,1-1.529-1.837,1.57,1.57,0,0,1,1.757-1.618,1.553,1.553,0,0,1,1.539,1.837,1.578,1.578,0,0,1-1.767,1.618m.179-2.929c-.655-.04-.9.616-.943,1.152s.139,1.221.784,1.271c.665.04.913-.6.943-1.152.05-.566-.109-1.231-.784-1.271" transform="translate(-197.201 -418.876)" fill="#1c1c1b"/>
    <path id="Path_401" data-name="Path 401" d="M260.047,465.1l.278,2.75-.745.079-.278-2.75-1.043.1-.06-.6,2.84-.278.06.586Z" transform="translate(-232.564 -418.291)" fill="#1c1c1b"/>
    <path id="Path_402" data-name="Path 402" d="M297.947,462.265a3.183,3.183,0,0,1-1.013.119l-.119-.546a2.02,2.02,0,0,0,.943-.04c.3-.079.586-.268.5-.606-.06-.248-.437-.288-.7-.328l-.357-.06a.921.921,0,0,1-.874-.645c-.179-.7.477-1.092,1.052-1.251a3.3,3.3,0,0,1,.824-.109l.109.536a2.045,2.045,0,0,0-.774.05c-.258.069-.606.238-.526.556.06.218.367.268.6.288l.377.04c.467.06.834.2.963.7.189.7-.377,1.132-1,1.3" transform="translate(-266.879 -413.247)" fill="#1c1c1b"/>
    <rect id="Rectangle_124" data-name="Rectangle 124" width="0.695" height="0.774" transform="translate(14.1 45.968) rotate(-64.705)" fill="#1c1c1b"/>
    <path id="Path_403" data-name="Path 403" d="M347.688,457.553l-.288-.616.7-.338.3.626Z" transform="translate(-312.907 -411.265)" fill="#1c1c1b"/>
    <path id="Path_404" data-name="Path 404" d="M93.7,137.8l4.547,4.547,4.23-4.23v13.463h6.434V131.807L104.3,127.2Zm20.543-10.594-4.6,4.6v19.778h6.434V138.122l4.22,4.22,4.547-4.547Z" transform="translate(-84.397 -114.571)" fill="#fff"/>
  </g>
</svg>
