<svg id="hypoallergenic" xmlns="http://www.w3.org/2000/svg" xmlns:xlink="http://www.w3.org/1999/xlink" width="41.859" height="41.859" viewBox="0 0 41.859 41.859">
  <defs>
    <clipPath id="clip-path">
      <rect id="Rectangle_110" data-name="Rectangle 110" width="18.119" height="24.821" fill="#fff"/>
    </clipPath>
  </defs>
  <path id="Path_110" data-name="Path 110" d="M41.859,20.929A20.929,20.929,0,1,1,20.929,0,20.929,20.929,0,0,1,41.859,20.929" fill="#1c1c1c"/>
  <g id="Group_207" data-name="Group 207" transform="translate(13.752 9.593)">
    <g id="Group_206" data-name="Group 206" clip-path="url(#clip-path)">
      <path id="Path_135" data-name="Path 135" d="M7.671,2.83s0,0,0,0a24.806,24.806,0,0,0-1.5,3.715,12.656,12.656,0,0,1,.288-2.869,18.328,18.328,0,0,0-4.4,4.883,17.355,17.355,0,0,0-.975,1.763h0a4.779,4.779,0,0,0,.54,2.776,2.627,2.627,0,0,1-1.234-1c-1.244,4.149.934,6.077.934,6.077A28.242,28.242,0,0,1,11.608,4.3c-.286.249-9.425,8.318-10.29,20.522H2.752a17.654,17.654,0,0,1,1.219-5.758s2.535.8,5.313-3.472c.071-.109.139-.219.206-.332A11.393,11.393,0,0,1,6.7,15.134a8.661,8.661,0,0,0,3.432-1.089c.243-.519.467-1.067.682-1.634a11.394,11.394,0,0,1-2.081-.16,7.211,7.211,0,0,0,2.355-.582c.542-1.509,1.053-3.126,1.7-4.7a9.793,9.793,0,0,1-1.568-.043,6.915,6.915,0,0,0,1.949-.837h0A13.351,13.351,0,0,1,18.119.026,18.222,18.222,0,0,0,7.671,2.83" transform="translate(0 -0.001)" fill="#fff"/>
    </g>
  </g>
</svg>
