<svg id="iso" xmlns="http://www.w3.org/2000/svg" xmlns:xlink="http://www.w3.org/1999/xlink" width="44.672" height="52.004" viewBox="0 0 44.672 52.004">
  <defs>
    <clipPath id="clip-path">
      <rect id="Rectangle_115" data-name="Rectangle 115" width="44.672" height="52.004" fill="none"/>
    </clipPath>
  </defs>
  <path id="Path_182" data-name="Path 182" d="M12.271,98.477l5.884-.839,2.866,5.376L34.764,76.506l-8.75-4.537Z" transform="translate(-8.697 -51.009)" fill="#1c1c1c"/>
  <path id="Path_183" data-name="Path 183" d="M60.047,76.506l13.744,26.507,2.866-5.376,5.884.839L68.8,71.97Z" transform="translate(-42.559 -51.009)" fill="#1c1c1c"/>
  <g id="Group_218" data-name="Group 218">
    <g id="Group_4334" data-name="Group 4334">
      <path id="Path_185" data-name="Path 185" d="M22.336,1.165A21.171,21.171,0,1,1,1.165,22.336,21.2,21.2,0,0,1,22.336,1.165m0-1.165A22.336,22.336,0,1,0,44.672,22.336,22.336,22.336,0,0,0,22.336,0" fill="#1c1c1c"/>
      <path id="Path_186" data-name="Path 186" d="M58.21,45.317A12.893,12.893,0,1,1,45.317,32.424,12.893,12.893,0,0,1,58.21,45.317" transform="translate(-22.981 -22.981)" fill="#1c1c1c"/>
      <path id="Path_187" data-name="Path 187" d="M27.772,7.96A19.811,19.811,0,1,1,7.96,27.772,19.834,19.834,0,0,1,27.772,7.96m0-.291a20.1,20.1,0,1,0,20.1,20.1,20.1,20.1,0,0,0-20.1-20.1" transform="translate(-5.435 -5.435)" fill="#1c1c1c"/>
      <path id="Path_188" data-name="Path 188" d="M27.772,7.96A19.811,19.811,0,1,1,7.96,27.772,19.834,19.834,0,0,1,27.772,7.96m0-.291a20.1,20.1,0,1,0,20.1,20.1,20.1,20.1,0,0,0-20.1-20.1" transform="translate(-5.435 -5.435)" fill="#1c1c1c"/>
    </g>
  </g>
  <text id="ISO-2" data-name="ISO" transform="translate(15.376 23.091)" fill="#fff" font-size="8" font-family="SegoeUI, Segoe UI"><tspan x="0" y="0">ISO</tspan></text>
  <g id="Group_220" data-name="Group 220">
    <g id="Group_219" data-name="Group 219" clip-path="url(#clip-path)">
      <path id="Path_189" data-name="Path 189" d="M61.286,93.4a1.749,1.749,0,0,0,.339-.014,1.17,1.17,0,0,0,.649-.3,1.361,1.361,0,0,0,.41-.826H62.67a.911.911,0,0,1-.73.334.9.9,0,0,1-.917-.95,1.064,1.064,0,0,1,1.06-1.1c.635,0,1.026.516,1.026,1.308a1.96,1.96,0,0,1-.534,1.456,1.55,1.55,0,0,1-.9.415,1.965,1.965,0,0,1-.386.024Zm.153-1.785a.6.6,0,0,0,.6.658.694.694,0,0,0,.611-.324.274.274,0,0,0,.038-.153c0-.53-.2-.935-.635-.935-.358,0-.611.315-.611.754" transform="translate(-43.251 -64.175)" fill="#fff"/>
      <path id="Path_190" data-name="Path 190" d="M71.452,92.115c0,1.055-.391,1.637-1.079,1.637-.606,0-1.016-.568-1.026-1.594s.449-1.613,1.079-1.613c.654,0,1.026.582,1.026,1.57m-1.685.048c0,.807.248,1.265.63,1.265.43,0,.635-.5.635-1.293,0-.764-.2-1.265-.63-1.265-.368,0-.635.449-.635,1.293" transform="translate(-49.15 -64.175)" fill="#fff"/>
      <path id="Path_191" data-name="Path 191" d="M79.858,92.115c0,1.055-.391,1.637-1.079,1.637-.606,0-1.016-.568-1.026-1.594s.449-1.613,1.079-1.613c.654,0,1.026.582,1.026,1.57m-1.685.048c0,.807.248,1.265.63,1.265.43,0,.635-.5.635-1.293,0-.764-.2-1.265-.63-1.265-.368,0-.635.449-.635,1.293" transform="translate(-55.108 -64.175)" fill="#fff"/>
      <path id="Path_192" data-name="Path 192" d="M87.9,91.117h-.009l-.539.291-.081-.32.678-.363h.358v3.1H87.9Z" transform="translate(-61.855 -64.302)" fill="#fff"/>
    </g>
  </g>
  <text id="G" transform="matrix(0.835, -0.55, 0.55, 0.835, 12.008, 8.737)" fill="#1c1c1c" font-size="1" font-family="WorkSans-Medium, Work Sans" font-weight="500"><tspan x="0" y="0">G</tspan></text>
  <text id="U" transform="translate(14.358 7.259) rotate(-24.287)" fill="#1c1c1c" font-size="1" font-family="WorkSans-Medium, Work Sans" font-weight="500"><tspan x="0" y="0">U</tspan></text>
  <text id="A" transform="translate(16.809 6.211) rotate(-15.677)" fill="#1c1c1c" font-size="1" font-family="WorkSans-Medium, Work Sans" font-weight="500"><tspan x="0" y="0">A</tspan></text>
  <text id="R" transform="translate(19.391 5.552) rotate(-7.29)" fill="#1c1c1c" font-size="1" font-family="WorkSans-Medium, Work Sans" font-weight="500"><tspan x="0" y="0">R</tspan></text>
  <text id="A-2" data-name="A" transform="translate(21.818 5.289) rotate(0.998)" fill="#1c1c1c" font-size="1" font-family="WorkSans-Medium, Work Sans" font-weight="500"><tspan x="0" y="0">A</tspan></text>
  <text id="N" transform="matrix(0.985, 0.172, -0.172, 0.985, 24.484, 5.388)" fill="#1c1c1c" font-size="1" font-family="WorkSans-Medium, Work Sans" font-weight="500"><tspan x="0" y="0">N</tspan></text>
  <text id="T" transform="matrix(0.949, 0.315, -0.315, 0.949, 27.233, 5.944)" fill="#1c1c1c" font-size="1" font-family="WorkSans-Medium, Work Sans" font-weight="500"><tspan x="0" y="0">T</tspan></text>
  <text id="E" transform="translate(29.389 6.71) rotate(25.858)" fill="#1c1c1c" font-size="1" font-family="WorkSans-Medium, Work Sans" font-weight="500"><tspan x="0" y="0">E</tspan></text>
  <text id="E-2" data-name="E" transform="matrix(0.836, 0.549, -0.549, 0.836, 31.412, 7.744)" fill="#1c1c1c" font-size="1" font-family="WorkSans-Medium, Work Sans" font-weight="500"><tspan x="0" y="0">E</tspan></text>
  <text id="C" transform="matrix(0.843, 0.538, -0.538, 0.843, 13.68, 36.254)" fill="#1c1c1c" font-size="1" font-family="WorkSans-Medium, Work Sans" font-weight="500"><tspan x="0" y="0">C</tspan></text>
  <text id="E-3" data-name="E" transform="translate(15.764 37.516) rotate(23.672)" fill="#1c1c1c" font-size="1" font-family="WorkSans-Medium, Work Sans" font-weight="500"><tspan x="0" y="0">E</tspan></text>
  <text id="R-2" data-name="R" transform="translate(17.768 38.348) rotate(14.942)" fill="#1c1c1c" font-size="1" font-family="WorkSans-Medium, Work Sans" font-weight="500"><tspan x="0" y="0">R</tspan></text>
  <text id="T-2" data-name="T" transform="translate(20.043 38.897) rotate(6.116)" fill="#1c1c1c" font-size="1" font-family="WorkSans-Medium, Work Sans" font-weight="500"><tspan x="0" y="0">T</tspan></text>
  <text id="I" transform="translate(22.216 39.07) rotate(-0.929)" fill="#1c1c1c" font-size="1" font-family="WorkSans-Medium, Work Sans" font-weight="500"><tspan x="0" y="0">I</tspan></text>
  <text id="F" transform="translate(23.59 39.039) rotate(-7.402)" fill="#1c1c1c" font-size="1" font-family="WorkSans-Medium, Work Sans" font-weight="500"><tspan x="0" y="0">F</tspan></text>
  <text id="I-2" data-name="I" transform="translate(25.714 38.702) rotate(-14.251)" fill="#1c1c1c" font-size="1" font-family="WorkSans-Medium, Work Sans" font-weight="500"><tspan x="0" y="0">I</tspan></text>
  <text id="E-4" data-name="E" transform="translate(27.044 38.35) rotate(-21.145)" fill="#1c1c1c" font-size="1" font-family="WorkSans-Medium, Work Sans" font-weight="500"><tspan x="0" y="0">E</tspan></text>
  <text id="D" transform="translate(29.056 37.539) rotate(-30.615)" fill="#1c1c1c" font-size="1" font-family="WorkSans-Medium, Work Sans" font-weight="500"><tspan x="0" y="0">D</tspan></text>
  <g id="Group_222" data-name="Group 222">
    <g id="Group_221" data-name="Group 221" clip-path="url(#clip-path)">
      <path id="Path_193" data-name="Path 193" d="M15.163,73.464l.91-.449.146-1,.708.727,1-.172-.472.9.472.9-1-.172-.708.727-.146-1Z" transform="translate(-10.747 -51.039)" fill="#1c1c1c"/>
      <path id="Path_194" data-name="Path 194" d="M21.388,96.526l.622-.307.1-.687.485.5.684-.117-.323.614.323.614-.684-.117-.485.5-.1-.687Z" transform="translate(-15.159 -67.709)" fill="#1c1c1c"/>
      <path id="Path_195" data-name="Path 195" d="M21.388,53.776l.622-.307.1-.687.485.5.684-.117-.323.614.323.614-.684-.117-.485.5-.1-.687Z" transform="translate(-15.159 -37.41)" fill="#1c1c1c"/>
      <path id="Path_196" data-name="Path 196" d="M131.3,74.6l-.91.449-.146,1-.708-.727-1,.172.472-.9-.472-.9,1,.172.708-.727.146,1Z" transform="translate(-91.101 -51.845)" fill="#1c1c1c"/>
      <path id="Path_197" data-name="Path 197" d="M127.2,53.776l-.622.307-.1.687-.484-.5-.684.117.323-.614-.323-.614.684.117.484-.5.1.687Z" transform="translate(-88.816 -37.41)" fill="#1c1c1c"/>
      <path id="Path_198" data-name="Path 198" d="M127.2,96.526l-.622.307-.1.687-.484-.5-.684.117.323-.614-.323-.614.684.117.484-.5.1.687Z" transform="translate(-88.816 -67.709)" fill="#1c1c1c"/>
      <path id="Path_199" data-name="Path 199" d="M47.338,35.566A11.771,11.771,0,1,1,35.566,47.338,11.785,11.785,0,0,1,47.338,35.566m0-.291A12.063,12.063,0,1,0,59.4,47.338,12.063,12.063,0,0,0,47.338,35.275" transform="translate(-25.001 -25.001)" fill="#fff"/>
    </g>
  </g>
</svg>
