<svg xmlns="http://www.w3.org/2000/svg" xmlns:xlink="http://www.w3.org/1999/xlink" width="250.78" height="51.063" viewBox="0 0 250.78 51.063">
  <defs>
    <clipPath id="clip-path">
      <rect id="Rectangle_2" data-name="Rectangle 2" width="250.78" height="51.063" fill="none"/>
    </clipPath>
  </defs>
  <g id="logo" clip-path="url(#clip-path)">
    <path id="Path_1" data-name="Path 1" d="M32.346,6.566,32.29,29.216a18.65,18.65,0,0,0,.171,2.839A3.367,3.367,0,0,0,33.2,33.77a2.412,2.412,0,0,0,1.424.769,13.55,13.55,0,0,0,2.563.295l-.057.888H22.722v-.947a9.814,9.814,0,0,0,2.505-.235,3.255,3.255,0,0,0,1.481-.769,2.591,2.591,0,0,0,.74-1.6,27.678,27.678,0,0,0,.17-3.193c0-.887.513-5.915-3.928-9.049-3.611-2.534-8.894-3.33-12.447-3.4a1.626,1.626,0,0,0-1.627,1.651l-.049,11.03a18.759,18.759,0,0,0,.17,2.839,3.359,3.359,0,0,0,.684,1.655,2.836,2.836,0,0,0,1.481.829,13.559,13.559,0,0,0,2.505.235v.947H0v-.947a12.7,12.7,0,0,0,2.506-.3,2.77,2.77,0,0,0,1.481-.768,2.966,2.966,0,0,0,.74-1.538,17.27,17.27,0,0,0,.17-2.661l.056-23.3a16.75,16.75,0,0,0-.17-2.661,2.884,2.884,0,0,0-.626-1.538A2.311,2.311,0,0,0,2.79,1.183,16.91,16.91,0,0,0,.513.889V0L14.065.061V.947a11.5,11.5,0,0,0-2.334.236,2.7,2.7,0,0,0-1.311.828A3.556,3.556,0,0,0,9.8,3.726a17.783,17.783,0,0,0-.172,2.781s-.038,4.12-.02,6.912a1.627,1.627,0,0,0,1.559,1.636A41.044,41.044,0,0,1,25.46,17.8a1.593,1.593,0,0,0,2.191-1.509c.025-3.781.025-10.078.025-10.078a16.024,16.024,0,0,0-.171-2.6,3.327,3.327,0,0,0-.627-1.6,2.261,2.261,0,0,0-1.309-.768,17.817,17.817,0,0,0-2.335-.3V.061H36.789V.947a11.4,11.4,0,0,0-2.335.3,2.326,2.326,0,0,0-1.309.828,3.32,3.32,0,0,0-.626,1.655,18.734,18.734,0,0,0-.172,2.839" transform="translate(0 0)" fill="#1c1c1c"/>
    <path id="Path_2" data-name="Path 2" d="M75.66,1.716,75.611,13.71A2.166,2.166,0,0,0,77.5,15.9c1.5.166,2.87.382,3.23.424,1.879.3,2.678-1.6,2.9-2.721.229-1.3.342-2.128.4-2.779h.912v12.6h-.912a6.183,6.183,0,0,0-.4-1.834A5.982,5.982,0,0,0,79.761,17.8a11.122,11.122,0,0,0-1.692-.4A2.151,2.151,0,0,0,75.6,19.566v8.882a13.754,13.754,0,0,0,.342,3.607,3.393,3.393,0,0,0,1.252,1.6,5.5,5.5,0,0,0,2.279.888,19.409,19.409,0,0,0,3.53.295,18.868,18.868,0,0,0,3.986-.355A7.181,7.181,0,0,0,89.783,33.3a6.005,6.005,0,0,0,1.765-2.187,13.991,13.991,0,0,0,1.139-3.432h.854l-.558,6.06a2.145,2.145,0,0,1-2.1,1.985h-24.9v-.947a9.452,9.452,0,0,0,2.506-.3,2.959,2.959,0,0,0,1.537-.769,2.928,2.928,0,0,0,.684-1.537,31.332,31.332,0,0,0,.17-3.548L70.933,7.1a29.515,29.515,0,0,0-.17-3.49,2.677,2.677,0,0,0-.626-1.6,2.268,2.268,0,0,0-1.309-.769,11.4,11.4,0,0,0-2.335-.3V0L89.617.056a2.148,2.148,0,0,1,2.1,2.066L92,7.157H91.15a12.183,12.183,0,0,0-.912-3.075,4.483,4.483,0,0,0-1.595-1.833,6.9,6.9,0,0,0-2.676-1A24.093,24.093,0,0,0,82.1.947H76.4a.675.675,0,0,0-.74.769" transform="translate(-18.202 0)" fill="#1c1c1c"/>
    <path id="Path_3" data-name="Path 3" d="M140.011,28.055,151.238,1.67A2.561,2.561,0,0,1,153.583.083h7.385V.97a7.2,7.2,0,0,0-2.279.413,2.521,2.521,0,0,0-1.366,1.065,6.179,6.179,0,0,0-.627,2.128,28.648,28.648,0,0,0-.172,3.49l-.056,19.811a30.572,30.572,0,0,0,.171,3.667,4.583,4.583,0,0,0,.684,2.07,2.355,2.355,0,0,0,1.48.946,12.811,12.811,0,0,0,2.5.295v.888H146.9v-.888a12.812,12.812,0,0,0,2.505-.295,2.634,2.634,0,0,0,1.481-.946,3.742,3.742,0,0,0,.74-1.952,27.073,27.073,0,0,0,.171-3.43l.056-22.355H151.4L138.359,35.744H137.05L124.748,5.82h-.285l-.057,22a30.516,30.516,0,0,0,.172,3.666,4.58,4.58,0,0,0,.684,2.07,2.287,2.287,0,0,0,1.481,1.006,19.816,19.816,0,0,0,2.5.295v.888H118.029v-.888a19.877,19.877,0,0,0,2.505-.295,2.991,2.991,0,0,0,1.481-.946,4.311,4.311,0,0,0,.74-2.011,26.435,26.435,0,0,0,.171-3.43l.056-19.634c0-1.3-.056-3.254-.17-4.081a4.608,4.608,0,0,0-.627-2.01,2.337,2.337,0,0,0-1.367-1.065A14.683,14.683,0,0,0,118.541.97V.083h7.472a2.563,2.563,0,0,1,2.36,1.623l9.246,22.625,1.083,2.542c.513,1.183,1.31,1.183,1.31,1.183" transform="translate(-32.561 -0.023)" fill="#1c1c1c"/>
    <path id="Path_4" data-name="Path 4" d="M204.162,16.052a5.8,5.8,0,0,0,4.1-.769,7.392,7.392,0,0,0,3.359-6.151c0-3.252-.683-4.968-1.707-6.091C208.832,1.8,207.465.853,204.561.853c-2.563,0-4.214,1.477-4.214,3.724v9.4a1.833,1.833,0,0,0,1.667,1.852c.8.062,1.594.149,2.149.218m2.563,18.866c4.328,0,7.8-3.785,7.8-8.339,0-3.49-1.424-5.973-4.156-7.334a27.9,27.9,0,0,0-8.543-1.952,8.337,8.337,0,0,0-1.481,0l-.057,11.178c0,6.446,3.36,6.446,6.436,6.446m-16.458.828v-.888a15.76,15.76,0,0,0,2.79-.295,3.236,3.236,0,0,0,1.538-.829,4.579,4.579,0,0,0,.8-2.128,13.845,13.845,0,0,0,.227-2.9l.058-21.586a30.341,30.341,0,0,0-.171-3.489,2.888,2.888,0,0,0-.627-1.538,2.3,2.3,0,0,0-1.366-.828,16.921,16.921,0,0,0-2.279-.3V.084h13.326c3.987,0,6.834.769,9.055,2.246a7.3,7.3,0,0,1,3.36,6.27,7.736,7.736,0,0,1-2.108,5.2,14.547,14.547,0,0,1-5.353,3.075c.883.114,1.765.285,2.492.455.05.012.092.024.14.039a12.485,12.485,0,0,1,3.86,1.812,8.439,8.439,0,0,1,3.7,7.333,8.61,8.61,0,0,1-1.309,4.554,9.975,9.975,0,0,1-3.532,3.254,11.951,11.951,0,0,1-5.238,1.361c-.912.059-2.051.059-3.3.059Z" transform="translate(-52.489 -0.023)" fill="#1c1c1c"/>
    <path id="Path_5" data-name="Path 5" d="M309.964,20.623a37.553,37.553,0,0,1,7.879,1.232.992.992,0,0,0,1.151-1.342l-4.23-11.3a.958.958,0,0,0-1.807-.015c-1.112,2.887-2.952,7.671-3.847,10.055a1.009,1.009,0,0,0,.855,1.372m9.031,4.595a16.3,16.3,0,0,0-4.5-2.248A26.017,26.017,0,0,0,308.751,22a.962.962,0,0,0-.952.629c-.68,1.739-2,5.3-2.234,5.994a.621.621,0,0,0-.017.063c-.178.725-.677,2.28-.79,2.746-.285,1.657.056,2.247.455,2.661.513.533,1.994.769,3.246.769v.888H297.641V34.8a5.545,5.545,0,0,0,1.765-.235,4.724,4.724,0,0,0,3.131-2.6,17.7,17.7,0,0,0,.742-1.775L314.952.084h1.083S327.424,29.3,327.88,30.363a17.115,17.115,0,0,0,1.424,2.779,3.66,3.66,0,0,0,1.48,1.42,5.726,5.726,0,0,0,2.106.295v.888H318.311V34.8a5.874,5.874,0,0,0,3.246-.65,2.852,2.852,0,0,0,.912-2.248v-.828L322.3,30.3a5.767,5.767,0,0,0-.4-1.183,8.567,8.567,0,0,0-2.9-3.9" transform="translate(-82.111 -0.023)" fill="#1c1c1c"/>
    <path id="Path_6" data-name="Path 6" d="M253.018,16.934V2.993A1.987,1.987,0,0,1,254.966.97h1.526a8.535,8.535,0,0,1,5.979,2.07,6.733,6.733,0,0,1,2.506,5.677c-.057,2.957-.741,4.968-2.221,6.151-1.424,1.183-2.9,1.419-5.241,1.952a8.793,8.793,0,0,0-2.77,1.146,1.145,1.145,0,0,1-1.729-1.032M282.569,47.85c-4.778-2.639-7.34-8.077-9.86-13.05A66.576,66.576,0,0,0,262.7,19.511a9.628,9.628,0,0,0-.734-.726l-.18-.311a11.192,11.192,0,0,0,6.151-3.252A8.489,8.489,0,0,0,270.1,9.191a8.072,8.072,0,0,0-3.36-6.742C264.522.911,261.959.083,257.858.083H243.906V.97a10.726,10.726,0,0,1,2.278.3,2.242,2.242,0,0,1,1.366.768,3.327,3.327,0,0,1,.627,1.6,15.948,15.948,0,0,1,.17,2.6l-.056,23.3a17.257,17.257,0,0,1-.171,2.661,2.963,2.963,0,0,1-.74,1.538,2.836,2.836,0,0,1-1.48.828,19.874,19.874,0,0,1-2.506.295v.889h14.522v-.889a20.926,20.926,0,0,1-2.562-.295,2.834,2.834,0,0,1-1.482-.828,3.479,3.479,0,0,1-.74-1.538,15.872,15.872,0,0,1-.17-2.483v-6.8c0-1.59,1.375-2.819,3.163-3.65a9.761,9.761,0,0,1,.944.686l.156.276c.031-.026.066-.044.1-.069A20.072,20.072,0,0,1,260,23.1c6.8,8.835,10.1,22.221,21.32,26.255a14.113,14.113,0,0,0,13.225-1.645,12.3,12.3,0,0,1-11.973.142" transform="translate(-67.145 -0.023)" fill="#1c1c1c"/>
    <path id="Path_7" data-name="Path 7" d="M36.654,67.429l0,.671H33.035V62.008H36.65v.672H33.829V64.7h2.285v.647H33.829v2.079Z" transform="translate(-9.113 -17.106)" fill="#1c1c1c"/>
    <path id="Path_8" data-name="Path 8" d="M50.87,62.008V68.1h-.7V63.623c0-.059,0-.123.007-.19s.009-.138.014-.209L48.18,67.033a.3.3,0,0,1-.286.192h-.115a.3.3,0,0,1-.287-.192l-2.055-3.826a3.809,3.809,0,0,1,.025.416V68.1h-.7V62.008h.585a.512.512,0,0,1,.164.021.243.243,0,0,1,.11.119l2.027,3.75q.049.1.1.213c.032.074.062.148.088.225.028-.077.056-.152.085-.228s.063-.146.1-.214l1.99-3.746a.221.221,0,0,1,.109-.119.527.527,0,0,1,.167-.021Z" transform="translate(-12.35 -17.106)" fill="#1c1c1c"/>
    <path id="Path_9" data-name="Path 9" d="M62.526,67.445a1.893,1.893,0,0,0,.586-.08,1.074,1.074,0,0,0,.4-.228.878.878,0,0,0,.231-.348,1.286,1.286,0,0,0,.074-.444A.927.927,0,0,0,63.5,65.6a1.472,1.472,0,0,0-.97-.274H61.256v2.122Zm-1.269-4.787v2.08H62.3a1.963,1.963,0,0,0,.583-.077,1.153,1.153,0,0,0,.411-.213.826.826,0,0,0,.239-.329,1.119,1.119,0,0,0,.077-.424.95.95,0,0,0-.311-.789,1.538,1.538,0,0,0-.967-.248Zm1.081-.65a3.449,3.449,0,0,1,.932.11,1.786,1.786,0,0,1,.643.315,1.217,1.217,0,0,1,.37.5,1.774,1.774,0,0,1,.118.665,1.38,1.38,0,0,1-.067.432,1.311,1.311,0,0,1-.2.385,1.484,1.484,0,0,1-.342.321,1.827,1.827,0,0,1-.485.232,1.745,1.745,0,0,1,.972.479,1.3,1.3,0,0,1,.326.92,1.758,1.758,0,0,1-.138.705,1.5,1.5,0,0,1-.4.548,1.84,1.84,0,0,1-.65.356,2.808,2.808,0,0,1-.875.125H60.467V62.008Z" transform="translate(-16.681 -17.106)" fill="#1c1c1c"/>
    <path id="Path_10" data-name="Path 10" d="M74.6,64.958a1.937,1.937,0,0,0,.608-.087,1.241,1.241,0,0,0,.442-.247,1.029,1.029,0,0,0,.269-.38,1.289,1.289,0,0,0,.09-.49.986.986,0,0,0-.344-.82,1.622,1.622,0,0,0-1.032-.277h-.868v2.3Zm2.71,3.142h-.7a.343.343,0,0,1-.319-.175l-1.524-2.177a.458.458,0,0,0-.149-.146.52.52,0,0,0-.248-.045h-.6V68.1h-.789V62.008h1.658a3.516,3.516,0,0,1,.962.116,1.819,1.819,0,0,1,.669.339,1.343,1.343,0,0,1,.391.533,1.843,1.843,0,0,1,.127.7,1.821,1.821,0,0,1-.1.6,1.594,1.594,0,0,1-.285.5,1.712,1.712,0,0,1-.453.381,2.229,2.229,0,0,1-.608.238.8.8,0,0,1,.261.259Z" transform="translate(-20.133 -17.106)" fill="#1c1c1c"/>
    <path id="Path_11" data-name="Path 11" d="M88.1,65.838l-.922-2.478c-.027-.074-.056-.16-.086-.258s-.058-.2-.085-.313a4.715,4.715,0,0,1-.177.574l-.92,2.474ZM89.758,68.1h-.614a.256.256,0,0,1-.172-.055.331.331,0,0,1-.1-.14l-.548-1.471H85.692L85.144,67.9a.3.3,0,0,1-.094.136.254.254,0,0,1-.172.059h-.615l2.347-6.092h.8Z" transform="translate(-23.246 -17.106)" fill="#1c1c1c"/>
    <path id="Path_12" data-name="Path 12" d="M101.893,66.816a.148.148,0,0,1,.114.055l.315.353a2.521,2.521,0,0,1-.873.676,2.9,2.9,0,0,1-1.243.243,2.813,2.813,0,0,1-1.147-.227,2.544,2.544,0,0,1-.88-.638,2.892,2.892,0,0,1-.565-.985,3.8,3.8,0,0,1-.2-1.263,3.638,3.638,0,0,1,.21-1.262,2.9,2.9,0,0,1,.587-.986,2.634,2.634,0,0,1,.907-.64,2.923,2.923,0,0,1,1.167-.227,2.755,2.755,0,0,1,1.105.208,2.786,2.786,0,0,1,.844.566l-.261.378a.222.222,0,0,1-.064.07.172.172,0,0,1-.1.028.32.32,0,0,1-.18-.083,2.683,2.683,0,0,0-.279-.185,2.132,2.132,0,0,0-.43-.185,2.291,2.291,0,0,0-1.465.081,1.824,1.824,0,0,0-.649.474,2.186,2.186,0,0,0-.424.757,3.13,3.13,0,0,0-.151,1.007,3.046,3.046,0,0,0,.158,1.017,2.246,2.246,0,0,0,.43.755,1.806,1.806,0,0,0,.642.47,1.979,1.979,0,0,0,.8.162,3.2,3.2,0,0,0,.472-.033,1.83,1.83,0,0,0,.389-.1,1.677,1.677,0,0,0,.332-.172,2.505,2.505,0,0,0,.3-.249.205.205,0,0,1,.139-.064" transform="translate(-26.874 -17.08)" fill="#1c1c1c"/>
    <rect id="Rectangle_1" data-name="Rectangle 1" width="0.794" height="6.092" transform="translate(80.136 44.902)" fill="#1c1c1c"/>
    <path id="Path_13" data-name="Path 13" d="M123.788,62.008V68.1h-.4a.333.333,0,0,1-.158-.033.423.423,0,0,1-.125-.115l-3.394-4.592c.005.07.01.14.013.208s0,.133,0,.192V68.1h-.7V62.008h.409a.455.455,0,0,1,.09.007.2.2,0,0,1,.066.021.242.242,0,0,1,.058.043.568.568,0,0,1,.061.07l3.394,4.588c-.005-.074-.01-.146-.014-.215s-.006-.135-.006-.2V62.008Z" transform="translate(-32.838 -17.106)" fill="#1c1c1c"/>
    <path id="Path_14" data-name="Path 14" d="M137.5,65.145v2.338a3.254,3.254,0,0,1-.944.5,3.535,3.535,0,0,1-1.1.164,3.423,3.423,0,0,1-1.278-.227,2.737,2.737,0,0,1-1.592-1.622,3.541,3.541,0,0,1-.217-1.264,3.667,3.667,0,0,1,.21-1.271,2.833,2.833,0,0,1,.6-.984,2.656,2.656,0,0,1,.946-.635,3.283,3.283,0,0,1,1.245-.226,3.623,3.623,0,0,1,.647.054,2.878,2.878,0,0,1,.553.153,2.508,2.508,0,0,1,.471.243,2.893,2.893,0,0,1,.406.321l-.224.374a.235.235,0,0,1-.138.108.228.228,0,0,1-.186-.04c-.066-.04-.141-.088-.226-.144a1.837,1.837,0,0,0-.309-.164,2.382,2.382,0,0,0-.43-.134,2.717,2.717,0,0,0-.587-.056,2.314,2.314,0,0,0-.9.169,1.9,1.9,0,0,0-.684.48,2.14,2.14,0,0,0-.433.757,3.066,3.066,0,0,0-.152,1,3.115,3.115,0,0,0,.158,1.028,2.147,2.147,0,0,0,.45.769,1.9,1.9,0,0,0,.71.483,2.766,2.766,0,0,0,1.664.07,3.052,3.052,0,0,0,.621-.266V65.774h-.913a.171.171,0,0,1-.125-.047.158.158,0,0,1-.047-.115v-.467Z" transform="translate(-36.516 -17.08)" fill="#1c1c1c"/>
    <path id="Path_15" data-name="Path 15" d="M161.641,62.008,159.81,68.1H159.1l-1.485-4.647c-.014-.046-.028-.093-.04-.145s-.025-.1-.038-.161c-.014.056-.027.111-.041.161s-.028.1-.042.145L155.958,68.1h-.713l-1.829-6.092h.658a.281.281,0,0,1,.178.055.238.238,0,0,1,.092.14l1.212,4.235c.02.076.038.159.055.247s.035.181.051.28c.019-.1.039-.193.06-.283s.042-.171.067-.244l1.38-4.235a.312.312,0,0,1,.1-.134.258.258,0,0,1,.175-.062h.229a.258.258,0,0,1,.172.055.339.339,0,0,1,.1.14l1.375,4.235c.025.073.047.152.068.238s.04.174.059.268c.013-.094.028-.183.045-.268s.034-.165.053-.238l1.217-4.235a.272.272,0,0,1,.091-.137.268.268,0,0,1,.175-.059Z" transform="translate(-42.323 -17.106)" fill="#1c1c1c"/>
    <path id="Path_16" data-name="Path 16" d="M175.539,65.03a3.2,3.2,0,0,0-.148-1.007,2.153,2.153,0,0,0-.417-.755,1.813,1.813,0,0,0-.655-.474,2.3,2.3,0,0,0-1.715,0,1.834,1.834,0,0,0-.656.474,2.125,2.125,0,0,0-.421.755,3.522,3.522,0,0,0,0,2.014,2.128,2.128,0,0,0,.421.752,1.809,1.809,0,0,0,.656.471,2.329,2.329,0,0,0,1.715,0,1.789,1.789,0,0,0,.655-.471,2.156,2.156,0,0,0,.417-.752,3.184,3.184,0,0,0,.148-1.007m.814,0a3.646,3.646,0,0,1-.209,1.257,2.894,2.894,0,0,1-.59.984,2.627,2.627,0,0,1-.914.64,3.189,3.189,0,0,1-2.361,0,2.648,2.648,0,0,1-.912-.64,2.892,2.892,0,0,1-.589-.984,3.876,3.876,0,0,1,0-2.513,2.913,2.913,0,0,1,.589-.987,2.647,2.647,0,0,1,.912-.644,3.151,3.151,0,0,1,2.361,0,2.626,2.626,0,0,1,.914.644,2.914,2.914,0,0,1,.59.987,3.64,3.64,0,0,1,.209,1.256" transform="translate(-47.055 -17.08)" fill="#1c1c1c"/>
    <path id="Path_17" data-name="Path 17" d="M191.43,62.008V68.1h-.7V63.623c0-.059,0-.123.006-.19s.009-.138.014-.209l-2.014,3.809a.305.305,0,0,1-.287.192h-.115a.3.3,0,0,1-.287-.192L186,63.206a3.812,3.812,0,0,1,.025.416V68.1h-.7V62.008h.585a.51.51,0,0,1,.164.021.24.24,0,0,1,.11.119l2.027,3.75c.033.068.064.139.1.213s.061.148.088.225c.027-.077.056-.152.086-.228a2.323,2.323,0,0,1,.1-.214l1.989-3.746a.219.219,0,0,1,.109-.119.518.518,0,0,1,.166-.021Z" transform="translate(-51.126 -17.106)" fill="#1c1c1c"/>
    <path id="Path_18" data-name="Path 18" d="M203.865,65.838l-.922-2.478c-.027-.074-.056-.16-.086-.258s-.059-.2-.086-.313a4.738,4.738,0,0,1-.175.574l-.921,2.474Zm1.653,2.262H204.9a.257.257,0,0,1-.172-.055.337.337,0,0,1-.1-.14l-.548-1.471h-2.632L200.9,67.9a.3.3,0,0,1-.093.136.256.256,0,0,1-.172.059h-.615l2.347-6.092h.8Z" transform="translate(-55.181 -17.106)" fill="#1c1c1c"/>
    <path id="Path_19" data-name="Path 19" d="M218.636,62.008V68.1h-.4a.337.337,0,0,1-.158-.033.413.413,0,0,1-.125-.115l-3.395-4.592c.005.07.011.14.013.208s0,.133,0,.192V68.1h-.7V62.008h.409a.46.46,0,0,1,.09.007.2.2,0,0,1,.064.021.22.22,0,0,1,.059.043.513.513,0,0,1,.061.07l3.395,4.588q-.009-.111-.015-.215c0-.07-.005-.135-.005-.2V62.008Z" transform="translate(-59.004 -17.106)" fill="#1c1c1c"/>
    <path id="Path_20" data-name="Path 20" d="M232.471,62.008V68.1h-.794V65.328h-3.164V68.1h-.794V62.008h.794v2.716h3.164V62.008Z" transform="translate(-62.821 -17.106)" fill="#1c1c1c"/>
    <path id="Path_21" data-name="Path 21" d="M246.018,65.03a3.2,3.2,0,0,0-.148-1.007,2.153,2.153,0,0,0-.417-.755,1.82,1.82,0,0,0-.655-.474,2.3,2.3,0,0,0-1.715,0,1.84,1.84,0,0,0-.658.474,2.134,2.134,0,0,0-.419.755,3.523,3.523,0,0,0,0,2.014,2.137,2.137,0,0,0,.419.752,1.815,1.815,0,0,0,.658.471,2.33,2.33,0,0,0,1.715,0,1.8,1.8,0,0,0,.655-.471,2.156,2.156,0,0,0,.417-.752,3.185,3.185,0,0,0,.148-1.007m.815,0a3.645,3.645,0,0,1-.209,1.257,2.894,2.894,0,0,1-.59.984,2.629,2.629,0,0,1-.915.64,3.187,3.187,0,0,1-2.361,0,2.644,2.644,0,0,1-.913-.64,2.9,2.9,0,0,1-.589-.984,3.876,3.876,0,0,1,0-2.513,2.923,2.923,0,0,1,.589-.987,2.643,2.643,0,0,1,.913-.644,3.149,3.149,0,0,1,2.361,0,2.629,2.629,0,0,1,.915.644,2.914,2.914,0,0,1,.59.987,3.64,3.64,0,0,1,.209,1.256" transform="translate(-66.498 -17.08)" fill="#1c1c1c"/>
    <path id="Path_22" data-name="Path 22" d="M260.271,65.03a3.181,3.181,0,0,0-.148-1.007,2.142,2.142,0,0,0-.417-.755,1.807,1.807,0,0,0-.655-.474,2.3,2.3,0,0,0-1.715,0,1.842,1.842,0,0,0-.658.474,2.133,2.133,0,0,0-.419.755,3.523,3.523,0,0,0,0,2.014,2.136,2.136,0,0,0,.419.752,1.818,1.818,0,0,0,.658.471,2.328,2.328,0,0,0,1.715,0,1.783,1.783,0,0,0,.655-.471,2.144,2.144,0,0,0,.417-.752,3.164,3.164,0,0,0,.148-1.007m.815,0a3.663,3.663,0,0,1-.208,1.257,2.917,2.917,0,0,1-.59.984,2.632,2.632,0,0,1-.915.64,3.187,3.187,0,0,1-2.361,0,2.634,2.634,0,0,1-.912-.64,2.9,2.9,0,0,1-.589-.984,3.876,3.876,0,0,1,0-2.513,2.924,2.924,0,0,1,.589-.987,2.634,2.634,0,0,1,.912-.644,3.149,3.149,0,0,1,2.361,0,2.631,2.631,0,0,1,.915.644,2.937,2.937,0,0,1,.59.987,3.657,3.657,0,0,1,.208,1.256" transform="translate(-70.43 -17.08)" fill="#1c1c1c"/>
    <path id="Path_23" data-name="Path 23" d="M274.328,65.056a3.138,3.138,0,0,0-.148-1,2.127,2.127,0,0,0-.417-.749,1.776,1.776,0,0,0-.655-.467,2.2,2.2,0,0,0-.86-.162h-1.4v4.758h1.4a2.2,2.2,0,0,0,.86-.161,1.8,1.8,0,0,0,.655-.466,2.1,2.1,0,0,0,.417-.747,3.137,3.137,0,0,0,.148-1m.815,0a3.566,3.566,0,0,1-.208,1.245,2.8,2.8,0,0,1-.589.962,2.63,2.63,0,0,1-.915.618,3.089,3.089,0,0,1-1.182.219h-2.189V62.008h2.189a3.088,3.088,0,0,1,1.182.219,2.618,2.618,0,0,1,.915.621,2.818,2.818,0,0,1,.589.963,3.565,3.565,0,0,1,.208,1.245" transform="translate(-74.502 -17.106)" fill="#1c1c1c"/>
  </g>
</svg>
