<svg xmlns="http://www.w3.org/2000/svg" width="58.796" height="19.615" viewBox="0 0 58.796 19.615">
  <g id="mada" style="isolation: isolate">
    <path id="Path_622" data-name="Path 622" d="M721.01,355.166c-.04.165-.077.33-.12.494a3.161,3.161,0,0,1-3.311,2.425,6.416,6.416,0,0,1-1.852-.309,1.9,1.9,0,0,0-.693.043c-.308.027-.616.079-.923.08q-4.339.009-8.677,0h-.316l.206-1.362h3.633c-.023.027,0,.016,0,0-.015-.889-.025-1.778-.054-2.666a1.48,1.48,0,0,0-.141-.491,1.282,1.282,0,0,0-1.273-.857c-.482,0-.964,0-1.446,0h-.288c.064-.448.118-.859.186-1.267a.194.194,0,0,1,.139-.123,20.256,20.256,0,0,1,2.444.081,2.75,2.75,0,0,1,2.28,2.412,11.362,11.362,0,0,1,.1,1.439c.016.464,0,.929,0,1.411.087.007.157.016.227.016,1.046,0,2.092-.006,3.137.006a.272.272,0,0,0,.319-.275,3.374,3.374,0,0,0,.017-.391c0-.874,0-1.748,0-2.623a1.769,1.769,0,0,1,1.39-1.909c.386-.12.793-.175,1.191-.259h.834a1.611,1.611,0,0,0,.187.048,3.075,3.075,0,0,1,2.658,2.329c.055.2.1.409.146.614Zm-4.612-2.232c.02.256.051.472.053.689.006.824.01,1.649,0,2.473,0,.2.069.278.255.29.325.022.65.064.975.071a1.26,1.26,0,0,0,1.355-1,3.489,3.489,0,0,0,.006-1.862,1.071,1.071,0,0,0-.677-.814A2.83,2.83,0,0,0,716.4,352.934Z" transform="translate(-662.215 -351.047)"/>
    <path id="Path_623" data-name="Path 623" d="M491.116,352.515l-.21,1.377h-.293q-1.839,0-3.677,0a4.235,4.235,0,0,0-.514.024.767.767,0,0,0-.744.861.789.789,0,0,0,.807.813c.621.017,1.242,0,1.863.013a4.415,4.415,0,0,1,.826.084,2.039,2.039,0,0,1,1.665,2.095,3.552,3.552,0,0,1-.1.8,1.868,1.868,0,0,1-1.621,1.4,6.531,6.531,0,0,1-1.24.12c-2.721.006-5.443.011-8.164-.015a2.794,2.794,0,0,1-2.916-2.81,7.428,7.428,0,0,1,.146-2.483,2.885,2.885,0,0,1,2.843-2.2c.857-.015,1.714,0,2.589,0l-.205,1.4h-.979c-.319,0-.638-.006-.956.007a1.292,1.292,0,0,0-1.224.829,2.773,2.773,0,0,0-.216.946,9.784,9.784,0,0,0,.062,1.78,1.249,1.249,0,0,0,1.244,1.116c.8.048,1.6.035,2.4.038q2.635.01,5.271.007a2.13,2.13,0,0,0,.39-.027.936.936,0,0,0-.164-1.86c-.768-.013-1.537,0-2.3-.036a1.886,1.886,0,0,1-1.805-1.338,2.18,2.18,0,0,1,.633-2.364,2.928,2.928,0,0,1,1.786-.589c1.569-.028,3.138-.015,4.707-.018A.52.52,0,0,1,491.116,352.515Z" transform="translate(-448.897 -352.396)"/>
    <g id="Group_359" data-name="Group 359" transform="translate(27.877 9.822)">
      <path id="Path_624" data-name="Path 624" d="M861.169,551.646c-.61-.11-1.218-.231-1.83-.325a1.648,1.648,0,0,0-.529.049,5.025,5.025,0,0,1-2.232.029,1.774,1.774,0,0,1-1.421-1.761,1.7,1.7,0,0,1,1.306-1.86,9.389,9.389,0,0,1,1.662-.24c.379-.035.765-.007,1.143-.007.183-.777-.175-1.262-.947-1.276a7.167,7.167,0,0,0-2.466.452c-.076.026-.153.048-.253.079l-.2-1.378a7.932,7.932,0,0,1,4.034-.526,1.925,1.925,0,0,1,1.694,1.818,1.894,1.894,0,0,0,.044.188Zm-2.577-2.99-.006-.03a8.057,8.057,0,0,0-1.054.158.715.715,0,0,0-.483.813.633.633,0,0,0,.578.628,4.18,4.18,0,0,0,1.108-.061c.607-.108.607-.129.6-.751,0-.241.06-.559-.065-.7C859.159,548.591,858.826,548.668,858.592,548.656Z" transform="translate(-830.251 -541.853)"/>
      <path id="Path_625" data-name="Path 625" d="M486.376,551.5h-1.923v-.3q0-1.839,0-3.677a3.331,3.331,0,0,0-.016-.392.708.708,0,0,0-.646-.662,2.136,2.136,0,0,0-1.21.208c.013.54.032,1.049.035,1.558.005,1,0,1.994,0,2.991v.276H480.7v-.282c0-1.226-.011-2.452,0-3.677.012-.954-.416-1.2-1.31-1.046-.536.094-.533.108-.533.644v4.352h-1.952v-.3q0-2.378,0-4.756c0-.8.2-1.076.984-1.289a6.309,6.309,0,0,1,2.93-.2,3.118,3.118,0,0,1,.772.292.372.372,0,0,0,.357.023,4.571,4.571,0,0,1,2.923-.275,1.78,1.78,0,0,1,1.464,1.737c.045,1.257.03,2.516.039,3.774C486.378,550.831,486.376,551.157,486.376,551.5Z" transform="translate(-476.906 -541.919)"/>
      <path id="Path_626" data-name="Path 626" d="M748.7,503.448v-.286c0-.8,0-1.6,0-2.4,0-.128.016-.216.168-.241.58-.093,1.158-.194,1.772-.3v.276q0,3.945,0,7.891c0,.753-.165.983-.883,1.2a6.418,6.418,0,0,1-2.858.214,2.817,2.817,0,0,1-2.439-2.722,5.588,5.588,0,0,1,.135-1.872,2.492,2.492,0,0,1,2.487-2,8.73,8.73,0,0,1,1.3.153A2.781,2.781,0,0,1,748.7,503.448Zm0,3.134v-.955c0-.875,0-.875-.885-.954a1.187,1.187,0,0,0-1.356.933,3.536,3.536,0,0,0,0,1.839,1.252,1.252,0,0,0,1.347,1.006c.211,0,.42-.05.631-.067s.273-.1.265-.309C748.691,507.578,748.7,507.08,748.7,506.582Z" transform="translate(-726.824 -500.222)"/>
      <path id="Path_627" data-name="Path 627" d="M641.187,547.531c.063-.981-.239-1.3-1.175-1.278a7.522,7.522,0,0,0-2.249.448c-.076.026-.153.049-.266.085-.063-.438-.127-.863-.179-1.288a.174.174,0,0,1,.1-.13,9.031,9.031,0,0,1,3.236-.576,4.3,4.3,0,0,1,.511.055,2,2,0,0,1,1.872,2.2c.012,1.471,0,2.942,0,4.413,0,.048-.005.1-.009.173-.215-.037-.423-.058-.624-.109a5.09,5.09,0,0,0-2.366-.068,3.235,3.235,0,0,1-1.742-.115,1.9,1.9,0,0,1-.125-3.518,4.474,4.474,0,0,1,1.655-.294C640.279,547.522,640.726,547.531,641.187,547.531Zm.04,1.171c-.56,0-1.075-.034-1.584.01a.759.759,0,0,0-.707.847.712.712,0,0,0,.787.7,10.627,10.627,0,0,0,1.394-.226.177.177,0,0,0,.106-.131C641.231,549.5,641.227,549.105,641.227,548.7Z" transform="translate(-626.505 -541.85)"/>
    </g>
    <rect id="Rectangle_718" data-name="Rectangle 718" width="24.862" height="8.238" transform="translate(0 0)" fill="#008bcf"/>
    <rect id="Rectangle_719" data-name="Rectangle 719" width="24.862" height="8.238" transform="translate(0 11.23)" fill="#80aa2c"/>
  </g>
</svg>
