<svg xmlns="http://www.w3.org/2000/svg" width="36.146" height="33.003" viewBox="0 0 36.146 33.003">
  <g id="money-coins" style="isolation: isolate">
    <path id="Path_4339" data-name="Path 4339" d="M36.36,26.573H1.786A.786.786,0,0,1,1,25.788v-22A.786.786,0,0,1,1.786,3H36.36a.786.786,0,0,1,.786.786v22A.786.786,0,0,1,36.36,26.573Z" transform="translate(-1 -3)" fill="#4da34d"/>
    <path id="Path_4340" data-name="Path 4340" d="M30.716,6h-22A4.715,4.715,0,0,1,4,10.715v9.429a4.715,4.715,0,0,1,4.715,4.715h22a4.715,4.715,0,0,1,4.715-4.715V10.715A4.715,4.715,0,0,1,30.716,6Z" transform="translate(-1.643 -3.643)" fill="#9edb9e"/>
    <circle id="Ellipse_7808" data-name="Ellipse 7808" cx="5.278" cy="5.278" r="5.278" transform="translate(13.255 6.282)" fill="#4da34d"/>
    <path id="Path_4341" data-name="Path 4341" d="M25,27.43H39.144V25.859a1.731,1.731,0,0,0-.194-.786,1.731,1.731,0,0,0,.194-.786V21.93a1.731,1.731,0,0,0-.194-.786,1.731,1.731,0,0,0,.194-.786V18a1.731,1.731,0,0,0-.194-.786,1.731,1.731,0,0,0,.194-.786V14.072a1.731,1.731,0,0,0-.194-.786,1.731,1.731,0,0,0,.194-.786V10.143C39.144,8.08,35.587,7,32.072,7S25,8.08,25,10.143V12.5a1.731,1.731,0,0,0,.194.786,1.731,1.731,0,0,0-.194.786v2.357a1.731,1.731,0,0,0,.194.786A1.731,1.731,0,0,0,25,18v2.357a1.731,1.731,0,0,0,.194.786A1.731,1.731,0,0,0,25,21.93v2.357a1.731,1.731,0,0,0,.194.786,1.731,1.731,0,0,0-.194.786Z" transform="translate(-6.141 -3.857)" opacity="0.1"/>
    <path id="Path_4342" data-name="Path 4342" d="M40.358,37H27.786a.786.786,0,0,0-.786.786v2.357c0,2.063,3.557,3.143,7.072,3.143s7.072-1.08,7.072-3.143V37.786A.786.786,0,0,0,40.358,37Z" transform="translate(-6.57 -10.284)" fill="#d8bc48"/>
    <path id="Path_4343" data-name="Path 4343" d="M34.072,34C30.557,34,27,35.08,27,37.143s3.557,3.143,7.072,3.143,7.072-1.08,7.072-3.143S37.587,34,34.072,34Z" transform="translate(-6.57 -9.641)" fill="#efd358"/>
    <path id="Path_4344" data-name="Path 4344" d="M40.358,32H27.786a.786.786,0,0,0-.786.786v2.357c0,2.063,3.557,3.143,7.072,3.143s7.072-1.08,7.072-3.143V32.786A.786.786,0,0,0,40.358,32Z" transform="translate(-6.57 -9.212)" fill="#d8bc48"/>
    <path id="Path_4345" data-name="Path 4345" d="M34.072,29C30.557,29,27,30.08,27,32.143s3.557,3.143,7.072,3.143,7.072-1.08,7.072-3.143S37.587,29,34.072,29Z" transform="translate(-6.57 -8.57)" fill="#efd358"/>
    <path id="Path_4346" data-name="Path 4346" d="M40.358,27H27.786a.786.786,0,0,0-.786.786v2.357c0,2.063,3.557,3.143,7.072,3.143s7.072-1.08,7.072-3.143V27.786A.786.786,0,0,0,40.358,27Z" transform="translate(-6.57 -8.141)" fill="#d8bc48"/>
    <path id="Path_4347" data-name="Path 4347" d="M34.072,24C30.557,24,27,25.08,27,27.143s3.557,3.143,7.072,3.143,7.072-1.08,7.072-3.143S37.587,24,34.072,24Z" transform="translate(-6.57 -7.499)" fill="#efd358"/>
    <path id="Path_4348" data-name="Path 4348" d="M40.358,22H27.786a.786.786,0,0,0-.786.786v2.357c0,2.063,3.557,3.143,7.072,3.143s7.072-1.08,7.072-3.143V22.786A.786.786,0,0,0,40.358,22Z" transform="translate(-6.57 -7.07)" fill="#d8bc48"/>
    <path id="Path_4349" data-name="Path 4349" d="M34.072,19C30.557,19,27,20.08,27,22.143s3.557,3.143,7.072,3.143,7.072-1.08,7.072-3.143S37.587,19,34.072,19Z" transform="translate(-6.57 -6.428)" fill="#efd358"/>
    <path id="Path_4350" data-name="Path 4350" d="M40.358,17H27.786a.786.786,0,0,0-.786.786v2.357c0,2.063,3.557,3.143,7.072,3.143s7.072-1.08,7.072-3.143V17.786A.786.786,0,0,0,40.358,17Z" transform="translate(-6.57 -5.999)" fill="#d8bc48"/>
    <path id="Path_4351" data-name="Path 4351" d="M34.072,14C30.557,14,27,15.08,27,17.143s3.557,3.143,7.072,3.143,7.072-1.08,7.072-3.143S37.587,14,34.072,14Z" transform="translate(-6.57 -5.356)" fill="#efd358"/>
    <path id="Path_4352" data-name="Path 4352" d="M40.358,12H27.786a.786.786,0,0,0-.786.786v2.357c0,2.063,3.557,3.143,7.072,3.143s7.072-1.08,7.072-3.143V12.786A.786.786,0,0,0,40.358,12Z" transform="translate(-6.57 -4.928)" fill="#d8bc48"/>
    <path id="Path_4353" data-name="Path 4353" d="M34.072,9C30.557,9,27,10.08,27,12.143s3.557,3.143,7.072,3.143,7.072-1.08,7.072-3.143S37.587,9,34.072,9Z" transform="translate(-6.57 -4.285)" fill="#efd358"/>
  </g>
</svg>
