<svg id="natural" xmlns="http://www.w3.org/2000/svg" width="41.859" height="41.859" viewBox="0 0 41.859 41.859">
  <path id="Path_110" data-name="Path 110" d="M41.859,20.929A20.929,20.929,0,1,1,20.929,0,20.929,20.929,0,0,1,41.859,20.929" fill="#1c1c1c"/>
  <path id="Path_111" data-name="Path 111" d="M39.468,50.144a.41.41,0,0,1-.1-.013.422.422,0,0,1-.308-.512l6.683-26.8a.423.423,0,0,1,.821.2l-6.683,26.8a.423.423,0,0,1-.41.321" transform="translate(-24.6 -14.172)" fill="#fff"/>
  <path id="Path_112" data-name="Path 112" d="M34.18,46.675a.421.421,0,0,1-.242-.077A12.285,12.285,0,0,1,29.574,35.01C30.8,26.5,39.586,22.136,39.959,21.955a.423.423,0,0,1,.37.761c-.088.043-8.754,4.352-9.918,12.416a11.229,11.229,0,0,0,4.013,10.775.423.423,0,0,1-.244.769" transform="translate(-18.539 -13.806)" fill="#fff"/>
  <path id="Path_113" data-name="Path 113" d="M41.559,46.676a.423.423,0,0,1-.052-.843,11.229,11.229,0,0,0,8.6-7.629c2.762-7.676-2.871-15.54-2.928-15.618a.423.423,0,1,1,.684-.5c.244.335,5.952,8.308,3.04,16.4a12.284,12.284,0,0,1-9.293,8.182.426.426,0,0,1-.053,0" transform="translate(-25.918 -13.806)" fill="#fff"/>
  <path id="Path_114" data-name="Path 114" d="M45.1,64.783A.423.423,0,0,1,44.88,64l8.237-4.949a.423.423,0,0,1,.435.725l-8.236,4.949a.424.424,0,0,1-.218.06" transform="translate(-28.147 -37.165)" fill="#fff"/>
  <path id="Path_115" data-name="Path 115" d="M49.96,47.448a.423.423,0,0,1-.219-.785l6.122-3.679a.423.423,0,0,1,.436.725l-6.122,3.679a.424.424,0,0,1-.217.06" transform="translate(-31.21 -27.043)" fill="#fff"/>
  <path id="Path_116" data-name="Path 116" d="M36.782,59.372a.421.421,0,0,1-.363-.205L31.536,51.04a.423.423,0,0,1,.725-.435l4.883,8.127a.423.423,0,0,1-.363.641" transform="translate(-19.831 -31.754)" fill="#fff"/>
  <path id="Path_117" data-name="Path 117" d="M43.741,43.363a.421.421,0,0,1-.363-.205l-3.652-6.077a.423.423,0,0,1,.725-.435L44.1,42.722a.423.423,0,0,1-.362.641" transform="translate(-24.991 -22.958)" fill="#fff"/>
  <path id="Path_118" data-name="Path 118" d="M66.5,41.009a.423.423,0,0,1-.119-.829,21.23,21.23,0,0,1,5.6-.882.423.423,0,0,1,0,.846h-.007a20.86,20.86,0,0,0-5.35.848.432.432,0,0,1-.119.017" transform="translate(-41.628 -24.759)" fill="#fff"/>
  <path id="Path_119" data-name="Path 119" d="M44.294,57.979a10.423,10.423,0,0,1-2.815-.367.43.43,0,0,1-.3-.523.415.415,0,0,1,.511-.3,10.544,10.544,0,0,0,10.17-2.826c5.456-5.234,4.016-14.086,4-14.175a.423.423,0,0,1,.834-.143c.065.381,1.528,9.386-4.249,14.928a11.566,11.566,0,0,1-8.155,3.4" transform="translate(-25.936 -24.76)" fill="#fff"/>
  <path id="Path_120" data-name="Path 120" d="M41.564,87.395a.423.423,0,0,1-.408-.532v-.005a.423.423,0,1,1,.406.537" transform="translate(-25.921 -54.527)" fill="#fff"/>
  <path id="Path_121" data-name="Path 121" d="M41.57,87.4a.451.451,0,0,1-.117-.014.432.432,0,1,1,.22,0,.487.487,0,0,1-.1.011" transform="translate(-25.921 -54.534)" fill="#fff"/>
  <path id="Path_122" data-name="Path 122" d="M39.468,50.144a.41.41,0,0,1-.1-.013.422.422,0,0,1-.308-.512l6.683-26.8a.423.423,0,0,1,.821.2l-6.683,26.8a.423.423,0,0,1-.41.321" transform="translate(-24.6 -14.172)" fill="#fff"/>
  <path id="Path_123" data-name="Path 123" d="M34.18,46.675a.421.421,0,0,1-.242-.077A12.285,12.285,0,0,1,29.574,35.01C30.8,26.5,39.586,22.136,39.959,21.955a.423.423,0,0,1,.37.761c-.088.043-8.754,4.352-9.918,12.416a11.229,11.229,0,0,0,4.013,10.775.423.423,0,0,1-.244.769" transform="translate(-18.539 -13.806)" fill="#fff"/>
  <path id="Path_124" data-name="Path 124" d="M41.559,46.676a.423.423,0,0,1-.052-.843,11.229,11.229,0,0,0,8.6-7.629c2.762-7.676-2.871-15.54-2.928-15.618a.423.423,0,1,1,.684-.5c.244.335,5.952,8.308,3.04,16.4a12.284,12.284,0,0,1-9.293,8.182.426.426,0,0,1-.053,0" transform="translate(-25.918 -13.806)" fill="#fff"/>
  <path id="Path_125" data-name="Path 125" d="M45.1,64.783A.423.423,0,0,1,44.88,64l8.237-4.949a.423.423,0,0,1,.435.725l-8.236,4.949a.424.424,0,0,1-.218.06" transform="translate(-28.147 -37.165)" fill="#fff"/>
  <path id="Path_126" data-name="Path 126" d="M49.96,47.448a.423.423,0,0,1-.219-.785l6.122-3.679a.423.423,0,0,1,.436.725l-6.122,3.679a.424.424,0,0,1-.217.06" transform="translate(-31.21 -27.043)" fill="#fff"/>
  <path id="Path_127" data-name="Path 127" d="M36.782,59.372a.421.421,0,0,1-.363-.205L31.536,51.04a.423.423,0,0,1,.725-.435l4.883,8.127a.423.423,0,0,1-.363.641" transform="translate(-19.831 -31.754)" fill="#fff"/>
  <path id="Path_128" data-name="Path 128" d="M43.741,43.363a.421.421,0,0,1-.363-.205l-3.652-6.077a.423.423,0,0,1,.725-.435L44.1,42.722a.423.423,0,0,1-.362.641" transform="translate(-24.991 -22.958)" fill="#fff"/>
</svg>
