<svg xmlns="http://www.w3.org/2000/svg" xmlns:xlink="http://www.w3.org/1999/xlink" width="58.836" height="63.542" viewBox="0 0 58.836 63.542">
  <defs>
    <clipPath id="clip-path">
      <rect id="Rectangle_122" data-name="Rectangle 122" width="58.836" height="63.542" fill="none"/>
    </clipPath>
  </defs>
  <g id="organic" clip-path="url(#clip-path)">
    <path id="Path_200" data-name="Path 200" d="M63.662,47.386A21.385,21.385,0,1,1,42.275,68.773,21.383,21.383,0,0,1,63.662,47.386" transform="translate(-33.504 -37.554)" fill="#151515"/>
    <line id="Line_32" data-name="Line 32" x1="10.613" y1="10.32" transform="translate(33.736 15.237)" fill="#151515"/>
    <rect id="Rectangle_117" data-name="Rectangle 117" width="0.509" height="14.803" transform="matrix(0.697, -0.717, 0.717, 0.697, 33.559, 15.42)" fill="#fff"/>
    <path id="Path_201" data-name="Path 201" d="M154.734,64.342s-1.323-2.972-2.168-2.79,0,1.212.589,1.8a5.68,5.68,0,0,0,1.579.989" transform="translate(-120.631 -48.774)" fill="#151515"/>
    <path id="Path_202" data-name="Path 202" d="M154.734,64.342s-1.323-2.972-2.168-2.79,0,1.212.589,1.8a5.68,5.68,0,0,0,1.579.989" transform="translate(-120.631 -48.774)" fill="#151515"/>
    <path id="Path_203" data-name="Path 203" d="M154.54,64.143l-.237-.1a5.713,5.713,0,0,1-1.613-1.012c-.508-.507-1.085-1.2-.956-1.645a.5.5,0,0,1,.418-.329c.9-.193,2.145,2.537,2.284,2.849Zm-2.288-2.887a.267.267,0,0,0-.056.006c-.224.049-.254.152-.264.186-.075.257.271.809.9,1.442a5.079,5.079,0,0,0,1.3.855c-.506-1.07-1.359-2.489-1.881-2.489" transform="translate(-120.238 -48.384)" fill="#fff"/>
    <path id="Path_204" data-name="Path 204" d="M219.55,106.99c0-.182.33-3.928-.37-4s-.66,1.211-.66,2.5a3.349,3.349,0,0,0,.66,2.057Z" transform="translate(-173.181 -81.618)" fill="#151515"/>
    <path id="Path_205" data-name="Path 205" d="M219.55,106.99c0-.182.33-3.928-.37-4s-.66,1.211-.66,2.5a3.349,3.349,0,0,0,.66,2.057Z" transform="translate(-173.181 -81.618)" fill="#151515"/>
    <path id="Path_206" data-name="Path 206" d="M218.8,107.319l-.088-.1a3.425,3.425,0,0,1-.685-2.124v-.185c0-1.006,0-1.956.368-2.29a.5.5,0,0,1,.406-.124c.309.033.693.474.473,3.921-.006.1-.011.163-.011.183v.031Zm-.067-4.624a.285.285,0,0,0-.2.075c-.3.272-.3,1.22-.3,2.136v.186a3.374,3.374,0,0,0,.553,1.878l.273-.406c0-.034.005-.09.01-.163.217-3.385-.167-3.69-.289-3.7l-.046,0" transform="translate(-172.789 -81.225)" fill="#fff"/>
    <path id="Path_207" data-name="Path 207" d="M208.844,97.852a10.093,10.093,0,0,1-.626-3.817c0-2.424.148-2.5-.511-2.424s-.66,1.653-.4,2.828,1.212,3.709,1.212,3.709Z" transform="translate(-164.165 -72.591)" fill="#151515"/>
    <path id="Path_208" data-name="Path 208" d="M208.844,97.852a10.093,10.093,0,0,1-.626-3.817c0-2.424.148-2.5-.511-2.424s-.66,1.653-.4,2.828,1.212,3.709,1.212,3.709Z" transform="translate(-164.165 -72.591)" fill="#151515"/>
    <path id="Path_209" data-name="Path 209" d="M208.077,97.931l-.053-.141c-.01-.025-.962-2.555-1.216-3.724a4.207,4.207,0,0,1,.108-2.713.538.538,0,0,1,.386-.239c.2-.022.371-.041.488.065.162.147.158.451.146,1.355,0,.3-.009.663-.009,1.106a10.087,10.087,0,0,0,.617,3.775l.031.069Zm-.55-6.627a1.958,1.958,0,0,0-.2.016.338.338,0,0,0-.241.155,4.077,4.077,0,0,0-.074,2.548,36.835,36.835,0,0,0,1.155,3.554l.163-.146a10.508,10.508,0,0,1-.606-3.789c0-.444,0-.809.009-1.109.01-.719.015-1.115-.078-1.2a.19.19,0,0,0-.124-.029" transform="translate(-163.771 -72.196)" fill="#fff"/>
    <path id="Path_210" data-name="Path 210" d="M198.382,88.973a30.673,30.673,0,0,1-.111-4.921c.222-1.43-.842-1.356-1.1-.953s1.212,5.874,1.212,5.874" transform="translate(-156.238 -65.657)" fill="#151515"/>
    <path id="Path_211" data-name="Path 211" d="M198.382,88.973a30.673,30.673,0,0,1-.111-4.921c.222-1.43-.842-1.356-1.1-.953s1.212,5.874,1.212,5.874" transform="translate(-156.238 -65.657)" fill="#151515"/>
    <path id="Path_212" data-name="Path 212" d="M197.921,88.605c-.247-.921-1.466-5.534-1.2-5.955a.731.731,0,0,1,.843-.257c.183.07.594.334.447,1.281a30.726,30.726,0,0,0,.111,4.9Zm-.6-6.051a.522.522,0,0,0-.424.206,23.266,23.266,0,0,0,.931,4.67,21.985,21.985,0,0,1-.018-3.789c.087-.562-.028-.948-.316-1.057a.489.489,0,0,0-.172-.031" transform="translate(-155.876 -65.263)" fill="#fff"/>
    <path id="Path_213" data-name="Path 213" d="M187.058,80.049s-.144-3.231-.07-3.928.107-1.911-.663-1.619-.26,2.316-.111,3.194a12.267,12.267,0,0,0,.845,2.353" transform="translate(-147.337 -59.009)" fill="#151515"/>
    <path id="Path_214" data-name="Path 214" d="M187.058,80.049s-.144-3.231-.07-3.928.107-1.911-.663-1.619-.26,2.316-.111,3.194a12.267,12.267,0,0,0,.845,2.353" transform="translate(-147.337 -59.009)" fill="#151515"/>
    <path id="Path_215" data-name="Path 215" d="M186.573,79.7a12.174,12.174,0,0,1-.853-2.38c-.02-.116-.045-.251-.074-.4-.2-1.043-.5-2.62.249-2.907a.524.524,0,0,1,.532.04c.275.211.363.762.271,1.685-.072.682.069,3.881.071,3.913Zm-.425-5.533a.512.512,0,0,0-.179.038c-.588.226-.3,1.76-.121,2.677.029.15.055.287.074.4a9.587,9.587,0,0,0,.618,1.837c-.038-.953-.1-2.876-.048-3.406.11-1.093-.073-1.409-.191-1.5a.246.246,0,0,0-.154-.05" transform="translate(-146.945 -58.616)" fill="#fff"/>
    <path id="Path_216" data-name="Path 216" d="M176.966,73.082a16.739,16.739,0,0,1-.293-2.79c.074-.771.185-2.168-.33-2.02s-.4,1.946-.293,2.535a16.375,16.375,0,0,0,.915,2.275" transform="translate(-139.45 -54.099)" fill="#151515"/>
    <path id="Path_217" data-name="Path 217" d="M176.966,73.082a16.739,16.739,0,0,1-.293-2.79c.074-.771.185-2.168-.33-2.02s-.4,1.946-.293,2.535a16.375,16.375,0,0,0,.915,2.275" transform="translate(-139.45 -54.099)" fill="#151515"/>
    <path id="Path_218" data-name="Path 218" d="M176.492,72.734a16.118,16.118,0,0,1-.924-2.3c-.06-.317-.3-2.464.366-2.652a.3.3,0,0,1,.291.055c.3.249.259,1.144.169,2.074a16.734,16.734,0,0,0,.292,2.762Zm-.457-4.762a.163.163,0,0,0-.044.007c-.371.1-.364,1.651-.22,2.417a9.862,9.862,0,0,0,.59,1.56,11.23,11.23,0,0,1-.171-2.065c.04-.416.162-1.682-.1-1.9a.088.088,0,0,0-.059-.022" transform="translate(-139.069 -53.706)" fill="#fff"/>
    <path id="Path_219" data-name="Path 219" d="M165.963,67.539s0-3.157-.4-3.12-.441,1.064-.334,1.653a5.156,5.156,0,0,0,.737,1.468" transform="translate(-130.903 -51.053)" fill="#151515"/>
    <path id="Path_220" data-name="Path 220" d="M165.963,67.539s0-3.157-.4-3.12-.441,1.064-.334,1.653a5.156,5.156,0,0,0,.737,1.468" transform="translate(-130.903 -51.053)" fill="#151515"/>
    <path id="Path_221" data-name="Path 221" d="M165.672,67.468l-.187-.263a5.178,5.178,0,0,1-.755-1.508,2.563,2.563,0,0,1,.161-1.617.37.37,0,0,1,.264-.158.188.188,0,0,1,.148.053c.351.32.368,2.7.368,3.17Zm-.51-3.343a.2.2,0,0,0-.106.079,2.392,2.392,0,0,0-.123,1.454,3.981,3.981,0,0,0,.531,1.14,7.687,7.687,0,0,0-.3-2.674" transform="translate(-130.51 -50.659)" fill="#fff"/>
    <path id="Path_222" data-name="Path 222" d="M189.141,118.555a10.143,10.143,0,0,0-3.827-.559c-2.423.044-2.495.192-2.434-.471s1.643-.69,2.821-.451,3.729,1.144,3.729,1.144Z" transform="translate(-144.927 -92.675)" fill="#151515"/>
    <path id="Path_223" data-name="Path 223" d="M189.141,118.555a10.143,10.143,0,0,0-3.827-.559c-2.423.044-2.495.192-2.434-.471s1.643-.69,2.821-.451,3.729,1.144,3.729,1.144Z" transform="translate(-144.927 -92.675)" fill="#151515"/>
    <path id="Path_224" data-name="Path 224" d="M188.776,118.283l-.069-.029a10.236,10.236,0,0,0-3.785-.551c-.437.008-.8.019-1.095.029-.91.029-1.217.038-1.368-.122-.109-.116-.094-.289-.075-.49a.538.538,0,0,1,.234-.39,4.188,4.188,0,0,1,2.71-.152c1.171.234,3.718,1.139,3.743,1.148l.141.05Zm-3.62-.788a10.361,10.361,0,0,1,3.561.541l.144-.167a37.315,37.315,0,0,0-3.573-1.09,4.126,4.126,0,0,0-2.547.116.338.338,0,0,0-.152.244c-.015.165-.022.285.02.33.087.093.487.08,1.212.057.3-.009.659-.021,1.1-.029l.238,0" transform="translate(-144.533 -92.279)" fill="#fff"/>
    <path id="Path_225" data-name="Path 225" d="M179.931,108.489a30.542,30.542,0,0,0-4.924-.024c-1.427.246-1.37-.818-.973-1.084s5.9,1.107,5.9,1.107" transform="translate(-137.733 -85.076)" fill="#151515"/>
    <path id="Path_226" data-name="Path 226" d="M179.931,108.489a30.542,30.542,0,0,0-4.924-.024c-1.427.246-1.37-.818-.973-1.084s5.9,1.107,5.9,1.107" transform="translate(-137.733 -85.076)" fill="#151515"/>
    <path id="Path_227" data-name="Path 227" d="M174.224,108.243c-.62,0-.821-.31-.882-.462a.731.731,0,0,1,.241-.846c.418-.273,5.054.863,5.979,1.093l-.033.2a30.54,30.54,0,0,0-4.9-.025,2.409,2.409,0,0,1-.406.038m-.368-1.158a.387.387,0,0,0-.16.022.53.53,0,0,0-.163.6c.114.286.5.4,1.062.3a21.89,21.89,0,0,1,3.788-.05,33.477,33.477,0,0,0-4.527-.868" transform="translate(-137.339 -84.715)" fill="#fff"/>
    <path id="Path_228" data-name="Path 228" d="M169.405,96.874s-3.231-.148-3.928-.074-1.911.111-1.619-.66,2.316-.259,3.194-.111a12.27,12.27,0,0,1,2.353.845" transform="translate(-129.825 -75.865)" fill="#151515"/>
    <path id="Path_229" data-name="Path 229" d="M169.405,96.874s-3.231-.148-3.928-.074-1.911.111-1.619-.66,2.316-.259,3.194-.111a12.27,12.27,0,0,1,2.353.845" transform="translate(-129.825 -75.865)" fill="#151515"/>
    <path id="Path_230" data-name="Path 230" d="M169.007,96.586c-.032,0-3.231-.147-3.913-.075-.907.1-1.475.007-1.685-.266a.523.523,0,0,1-.041-.532c.284-.749,1.862-.449,2.906-.25.149.028.285.054.4.074a12.16,12.16,0,0,1,2.38.853Zm-3.242-.3c.81,0,2.017.044,2.711.072a9.592,9.592,0,0,0-1.835-.618c-.117-.02-.255-.046-.406-.075-.917-.175-2.452-.467-2.675.121a.329.329,0,0,0,.012.333c.159.206.692.273,1.5.187.144-.015.39-.021.693-.021" transform="translate(-129.431 -75.474)" fill="#fff"/>
    <path id="Path_231" data-name="Path 231" d="M162.033,87.572a16.256,16.256,0,0,0-2.8-.1c-.764.128-2.147.336-2.036-.189s1.912-.538,2.508-.471a16.791,16.791,0,0,1,2.332.757" transform="translate(-124.574 -68.78)" fill="#151515"/>
    <path id="Path_232" data-name="Path 232" d="M162.033,87.572a16.256,16.256,0,0,0-2.8-.1c-.764.128-2.147.336-2.036-.189s1.912-.538,2.508-.471a16.791,16.791,0,0,1,2.332.757" transform="translate(-124.574 -68.78)" fill="#151515"/>
    <path id="Path_233" data-name="Path 233" d="M157.473,87.34a1,1,0,0,1-.7-.177.305.305,0,0,1-.075-.287c.144-.675,2.24-.6,2.62-.552a16.552,16.552,0,0,1,2.359.764l-.049.2a16.258,16.258,0,0,0-2.775-.1,9.059,9.059,0,0,1-1.38.152m1.2-.842c-.784,0-1.715.127-1.778.421a.1.1,0,0,0,.023.1c.232.242,1.485.032,1.9-.037a10.918,10.918,0,0,1,2.068.025,10.121,10.121,0,0,0-1.592-.481,5.694,5.694,0,0,0-.617-.031" transform="translate(-124.18 -68.392)" fill="#fff"/>
    <path id="Path_234" data-name="Path 234" d="M156.916,76.077s-3.157,0-3.124-.4,1.067-.441,1.652-.33a5.065,5.065,0,0,1,1.471.734" transform="translate(-121.883 -59.668)" fill="#151515"/>
    <path id="Path_235" data-name="Path 235" d="M156.916,76.077s-3.157,0-3.124-.4,1.067-.441,1.652-.33a5.065,5.065,0,0,1,1.471.734" transform="translate(-121.883 -59.668)" fill="#151515"/>
    <path id="Path_236" data-name="Path 236" d="M156.846,75.784h-.322c-.473,0-2.849-.018-3.172-.368a.19.19,0,0,1-.054-.147.373.373,0,0,1,.159-.265,2.537,2.537,0,0,1,1.615-.157,5.093,5.093,0,0,1,1.512.751ZM154.436,75a1.636,1.636,0,0,0-.856.171.169.169,0,0,0-.078.119,8.15,8.15,0,0,0,2.674.289,3.915,3.915,0,0,0-1.143-.527,3.3,3.3,0,0,0-.6-.052" transform="translate(-121.491 -59.273)" fill="#fff"/>
    <line id="Line_33" data-name="Line 33" y1="10.32" x2="10.613" transform="translate(16.341 15.046)" fill="#151515"/>
    <rect id="Rectangle_118" data-name="Rectangle 118" width="14.803" height="0.509" transform="translate(16.163 25.182) rotate(-44.19)" fill="#fff"/>
    <path id="Path_237" data-name="Path 237" d="M128.129,63.429s1.323-2.972,2.168-2.787,0,1.212-.586,1.8a5.682,5.682,0,0,1-1.582.989" transform="translate(-101.545 -48.054)" fill="#151515"/>
    <path id="Path_238" data-name="Path 238" d="M128.129,63.429s1.323-2.972,2.168-2.787,0,1.212-.586,1.8a5.682,5.682,0,0,1-1.582.989" transform="translate(-101.545 -48.054)" fill="#151515"/>
    <path id="Path_239" data-name="Path 239" d="M127.175,63.229l.1-.233c.139-.312,1.382-3.044,2.284-2.846a.5.5,0,0,1,.419.328c.13.44-.447,1.136-.954,1.643a5.715,5.715,0,0,1-1.616,1.012Zm2.286-2.884c-.523,0-1.375,1.417-1.88,2.486a5.072,5.072,0,0,0,1.3-.856c.632-.632.977-1.183.9-1.439-.01-.034-.04-.137-.265-.185a.263.263,0,0,0-.057-.006" transform="translate(-100.789 -47.662)" fill="#fff"/>
    <path id="Path_240" data-name="Path 240" d="M68.731,106.064c0-.182-.33-3.928.367-4s.66,1.211.66,2.5a3.351,3.351,0,0,1-.66,2.057Z" transform="translate(-54.409 -80.884)" fill="#151515"/>
    <path id="Path_241" data-name="Path 241" d="M68.731,106.064c0-.182-.33-3.928.367-4s.66,1.211.66,2.5a3.351,3.351,0,0,1-.66,2.057Z" transform="translate(-54.409 -80.884)" fill="#151515"/>
    <path id="Path_242" data-name="Path 242" d="M68.7,106.394l-.459-.691v-.031c0-.02,0-.085-.011-.184-.22-3.446.162-3.888.47-3.92a.5.5,0,0,1,.406.124c.37.333.369,1.283.368,2.289v.186a3.425,3.425,0,0,1-.684,2.124Zm-.255-.755.27.406a3.391,3.391,0,0,0,.552-1.878v-.186c0-.916,0-1.864-.3-2.136a.3.3,0,0,0-.246-.073c-.122.013-.5.318-.286,3.7,0,.074.008.13.01.165" transform="translate(-54.023 -80.492)" fill="#fff"/>
    <path id="Path_243" data-name="Path 243" d="M77.156,96.93a10.127,10.127,0,0,0,.626-3.821c0-2.424-.148-2.5.515-2.424s.66,1.653.4,2.828-1.208,3.709-1.208,3.709Z" transform="translate(-61.148 -71.858)" fill="#151515"/>
    <path id="Path_244" data-name="Path 244" d="M77.156,96.93a10.127,10.127,0,0,0,.626-3.821c0-2.424-.148-2.5.515-2.424s.66,1.653.4,2.828-1.208,3.709-1.208,3.709Z" transform="translate(-61.148 -71.858)" fill="#151515"/>
    <path id="Path_245" data-name="Path 245" d="M77.056,97l-.5-.441.031-.069a10.15,10.15,0,0,0,.617-3.778c0-.44,0-.8-.009-1.1-.012-.907-.016-1.212.146-1.36.118-.107.291-.088.492-.066a.54.54,0,0,1,.385.242,4.2,4.2,0,0,1,.1,2.711c-.254,1.168-1.2,3.7-1.212,3.723Zm-.254-.5.165.145A37.028,37.028,0,0,0,78.12,93.1a4.134,4.134,0,0,0-.071-2.547.338.338,0,0,0-.24-.157c-.165-.018-.284-.028-.33.013-.094.085-.089.483-.079,1.2,0,.3.009.662.009,1.1a10.547,10.547,0,0,1-.605,3.792" transform="translate(-60.671 -71.464)" fill="#fff"/>
    <path id="Path_246" data-name="Path 246" d="M89.371,88.047a30.311,30.311,0,0,0,.112-4.921c-.22-1.431.844-1.357,1.1-.953s-1.212,5.874-1.212,5.874" transform="translate(-70.828 -64.924)" fill="#151515"/>
    <path id="Path_247" data-name="Path 247" d="M89.371,88.047a30.311,30.311,0,0,0,.112-4.921c-.22-1.431.844-1.357,1.1-.953s-1.212,5.874-1.212,5.874" transform="translate(-70.828 -64.924)" fill="#151515"/>
    <path id="Path_248" data-name="Path 248" d="M89.079,87.681l-.2-.037a30.371,30.371,0,0,0,.112-4.9c-.146-.95.267-1.213.451-1.282a.727.727,0,0,1,.838.258c.269.421-.952,5.035-1.2,5.955m.6-6.051a.484.484,0,0,0-.17.03c-.29.109-.407.494-.32,1.058a21.689,21.689,0,0,1-.018,3.786,22.905,22.905,0,0,0,.929-4.669.516.516,0,0,0-.421-.205" transform="translate(-70.437 -64.53)" fill="#fff"/>
    <path id="Path_249" data-name="Path 249" d="M101.052,79.134s.148-3.231.074-3.928-.108-1.912.663-1.615.256,2.312.107,3.194a12.168,12.168,0,0,1-.845,2.349" transform="translate(-80.086 -58.286)" fill="#151515"/>
    <path id="Path_250" data-name="Path 250" d="M101.052,79.134s.148-3.231.074-3.928-.108-1.912.663-1.615.256,2.312.107,3.194a12.168,12.168,0,0,1-.845,2.349" transform="translate(-80.086 -58.286)" fill="#151515"/>
    <path id="Path_251" data-name="Path 251" d="M100.753,78.784l-.2-.049c0-.032.147-3.231.074-3.913-.1-.905-.006-1.471.269-1.682a.523.523,0,0,1,.533-.04c.747.284.446,1.857.248,2.9-.029.152-.056.292-.076.41a12.058,12.058,0,0,1-.853,2.377m.427-5.531a.246.246,0,0,0-.154.05c-.2.158-.274.7-.19,1.5.056.529-.012,2.452-.051,3.406a9.523,9.523,0,0,0,.617-1.833c.02-.12.047-.26.077-.414.174-.914.467-2.444-.119-2.667a.511.511,0,0,0-.181-.039" transform="translate(-79.694 -57.892)" fill="#fff"/>
    <path id="Path_252" data-name="Path 252" d="M111.678,72.159a16.308,16.308,0,0,0,.293-2.79c-.074-.771-.182-2.168.33-2.019s.4,1.945.293,2.535a16.433,16.433,0,0,1-.916,2.275" transform="translate(-88.507 -53.367)" fill="#151515"/>
    <path id="Path_253" data-name="Path 253" d="M111.678,72.159a16.308,16.308,0,0,0,.293-2.79c-.074-.771-.182-2.168.33-2.019s.4,1.945.293,2.535a16.433,16.433,0,0,1-.916,2.275" transform="translate(-88.507 -53.367)" fill="#151515"/>
    <path id="Path_254" data-name="Path 254" d="M111.384,71.809l-.194-.063a16.3,16.3,0,0,0,.292-2.762c-.085-.885-.131-1.824.171-2.074a.3.3,0,0,1,.29-.054c.668.192.436,2.277.365,2.652a16.128,16.128,0,0,1-.924,2.3m.458-4.762a.084.084,0,0,0-.058.022c-.172.143-.2.781-.1,1.9a10.918,10.918,0,0,1-.17,2.062,9.854,9.854,0,0,0,.589-1.555c.147-.785.156-2.309-.22-2.417a.16.16,0,0,0-.043-.007" transform="translate(-88.12 -52.973)" fill="#fff"/>
    <path id="Path_255" data-name="Path 255" d="M123.52,66.615s0-3.157.407-3.12.441,1.064.33,1.653a5.144,5.144,0,0,1-.737,1.467" transform="translate(-97.892 -50.321)" fill="#151515"/>
    <path id="Path_256" data-name="Path 256" d="M123.52,66.615s0-3.157.407-3.12.441,1.064.33,1.653a5.144,5.144,0,0,1-.737,1.467" transform="translate(-97.892 -50.321)" fill="#151515"/>
    <path id="Path_257" data-name="Path 257" d="M123.022,66.545v-.323c0-.473.021-2.849.372-3.169a.188.188,0,0,1,.148-.053.373.373,0,0,1,.265.158,2.544,2.544,0,0,1,.157,1.616,5.168,5.168,0,0,1-.755,1.508Zm.5-3.341a8.132,8.132,0,0,0-.292,2.671,3.972,3.972,0,0,0,.531-1.14,2.415,2.415,0,0,0-.119-1.453.172.172,0,0,0-.119-.078" transform="translate(-97.498 -49.928)" fill="#fff"/>
    <path id="Path_258" data-name="Path 258" d="M78.289,117.639a10.134,10.134,0,0,1,3.83-.555c2.423.04,2.491.192,2.43-.471s-1.643-.69-2.82-.454S78,117.306,78,117.306Z" transform="translate(-61.817 -91.951)" fill="#151515"/>
    <path id="Path_259" data-name="Path 259" d="M78.289,117.639a10.134,10.134,0,0,1,3.83-.555c2.423.04,2.491.192,2.43-.471s-1.643-.69-2.82-.454S78,117.306,78,117.306Z" transform="translate(-61.817 -91.951)" fill="#151515"/>
    <path id="Path_260" data-name="Path 260" d="M77.587,117.368l-.437-.5.142-.051c.026-.009,2.572-.917,3.744-1.152a4.2,4.2,0,0,1,2.71.156.537.537,0,0,1,.233.389c.018.2.034.374-.074.489-.149.159-.451.149-1.346.122-.3-.009-.667-.02-1.114-.028a10.179,10.179,0,0,0-3.789.547Zm-.084-.41.143.164a10.531,10.531,0,0,1,3.8-.535c.448.007.815.019,1.117.028.712.022,1.1.034,1.19-.057.042-.044.034-.165.019-.329a.336.336,0,0,0-.151-.243,4.14,4.14,0,0,0-2.546-.12,36.953,36.953,0,0,0-3.573,1.094" transform="translate(-61.143 -91.556)" fill="#fff"/>
    <path id="Path_261" data-name="Path 261" d="M89.13,107.568a30.507,30.507,0,0,1,4.921-.024c1.427.242,1.373-.821.973-1.087s-5.893,1.111-5.893,1.111" transform="translate(-70.637 -84.343)" fill="#151515"/>
    <path id="Path_262" data-name="Path 262" d="M89.13,107.568a30.507,30.507,0,0,1,4.921-.024c1.427.242,1.373-.821.973-1.087s-5.893,1.111-5.893,1.111" transform="translate(-70.637 -84.343)" fill="#151515"/>
    <path id="Path_263" data-name="Path 263" d="M94.34,107.32a2.4,2.4,0,0,1-.4-.037,30.562,30.562,0,0,0-4.9.025l-.033-.2c.925-.231,5.558-1.37,5.975-1.1a.73.73,0,0,1,.244.845c-.061.154-.262.467-.888.467m-2.171-.345a11.746,11.746,0,0,1,1.8.106c.562.1.95-.015,1.064-.3a.53.53,0,0,0-.166-.6,23.24,23.24,0,0,0-4.687.851c.576-.029,1.3-.056,1.985-.056" transform="translate(-70.542 -83.981)" fill="#fff"/>
    <path id="Path_264" data-name="Path 264" d="M101.749,95.951s3.232-.145,3.928-.071,1.908.108,1.616-.663-2.312-.259-3.195-.111a12.182,12.182,0,0,0-2.35.845" transform="translate(-80.638 -75.132)" fill="#151515"/>
    <path id="Path_265" data-name="Path 265" d="M101.749,95.951s3.232-.145,3.928-.071,1.908.108,1.616-.663-2.312-.259-3.195-.111a12.182,12.182,0,0,0-2.35.845" transform="translate(-80.638 -75.132)" fill="#151515"/>
    <path id="Path_266" data-name="Path 266" d="M101.585,95.663l-.049-.2a12.079,12.079,0,0,1,2.377-.854c.118-.02.255-.046.406-.075,1.042-.2,2.617-.5,2.9.251a.524.524,0,0,1-.041.532c-.211.275-.761.364-1.682.27-.682-.072-3.881.07-3.913.071m4.529-1.15a10.251,10.251,0,0,0-1.756.228c-.153.029-.292.055-.411.075a9.532,9.532,0,0,0-1.834.618c.953-.038,2.878-.1,3.407-.048,1.089.111,1.406-.072,1.5-.191a.33.33,0,0,0,.012-.333c-.1-.263-.462-.35-.914-.35" transform="translate(-80.469 -74.742)" fill="#fff"/>
    <path id="Path_267" data-name="Path 267" d="M111.954,86.656a16.6,16.6,0,0,1,2.8-.1c.767.128,2.147.337,2.04-.189s-1.915-.539-2.508-.467a16.272,16.272,0,0,0-2.336.757" transform="translate(-88.726 -68.053)" fill="#151515"/>
    <path id="Path_268" data-name="Path 268" d="M111.954,86.656a16.6,16.6,0,0,1,2.8-.1c.767.128,2.147.337,2.04-.189s-1.915-.539-2.508-.467a16.272,16.272,0,0,0-2.336.757" transform="translate(-88.726 -68.053)" fill="#151515"/>
    <path id="Path_269" data-name="Path 269" d="M115.977,86.428a9.109,9.109,0,0,1-1.382-.152,16.565,16.565,0,0,0-2.776.1l-.049-.2a15.986,15.986,0,0,1,2.362-.764c.32-.038,2.474-.136,2.62.548a.308.308,0,0,1-.076.288,1.008,1.008,0,0,1-.7.176m-2.011-.394a4.415,4.415,0,0,1,.663.039c.413.069,1.667.278,1.9.037a.1.1,0,0,0,.023-.1c-.081-.379-1.622-.479-2.395-.386a9.823,9.823,0,0,0-1.6.481c.424-.034.955-.068,1.408-.068" transform="translate(-88.581 -67.672)" fill="#fff"/>
    <path id="Path_270" data-name="Path 270" d="M123.652,75.152s3.16,0,3.123-.4-1.064-.441-1.653-.33a5.206,5.206,0,0,0-1.471.734" transform="translate(-97.997 -58.935)" fill="#151515"/>
    <path id="Path_271" data-name="Path 271" d="M123.652,75.152s3.16,0,3.123-.4-1.064-.441-1.653-.33a5.206,5.206,0,0,0-1.471.734" transform="translate(-97.997 -58.935)" fill="#151515"/>
    <path id="Path_272" data-name="Path 272" d="M122.411,74.86h-.325l.266-.187a5.214,5.214,0,0,1,1.511-.751,2.542,2.542,0,0,1,1.616.157.374.374,0,0,1,.159.265.189.189,0,0,1-.053.148c-.32.351-2.7.369-3.173.369m2.086-.788a3.325,3.325,0,0,0-.6.052,4.015,4.015,0,0,0-1.141.527,7.688,7.688,0,0,0,2.674-.3.2.2,0,0,0-.08-.106,1.641,1.641,0,0,0-.857-.171" transform="translate(-96.756 -58.54)" fill="#fff"/>
    <line id="Line_34" data-name="Line 34" x1="10.966" y2="9.943" transform="translate(33.521 37.917)" fill="#151515"/>
    <rect id="Rectangle_119" data-name="Rectangle 119" width="14.803" height="0.509" transform="translate(33.351 47.672) rotate(-42.206)" fill="#fff"/>
    <path id="Path_273" data-name="Path 273" d="M153.441,229.149s-1.427,2.925-2.262,2.712.04-1.211.647-1.777a5.6,5.6,0,0,1,1.615-.936" transform="translate(-119.54 -181.605)" fill="#151515"/>
    <path id="Path_274" data-name="Path 274" d="M153.441,229.149s-1.427,2.925-2.262,2.712.04-1.211.647-1.777a5.6,5.6,0,0,1,1.615-.936" transform="translate(-119.54 -181.605)" fill="#151515"/>
    <path id="Path_275" data-name="Path 275" d="M150.872,231.273a.436.436,0,0,1-.11-.014.5.5,0,0,1-.408-.345c-.113-.444.487-1.119,1.01-1.607a5.626,5.626,0,0,1,1.65-.957l.239-.087-.112.229c-.144.295-1.383,2.781-2.27,2.781m1.962-2.627a5.005,5.005,0,0,0-1.33.812c-.662.618-1.017,1.143-.951,1.405.009.034.035.139.26.2.51.13,1.458-1.324,2.021-2.414" transform="translate(-119.148 -180.903)" fill="#fff"/>
    <path id="Path_276" data-name="Path 276" d="M219.876,181.837c-.006.182.2,3.938-.5,3.985s-.619-1.232-.572-2.518a3.337,3.337,0,0,1,.73-2.029Z" transform="translate(-173.379 -143.664)" fill="#151515"/>
    <path id="Path_277" data-name="Path 277" d="M219.876,181.837c-.006.182.2,3.938-.5,3.985s-.619-1.232-.572-2.518a3.337,3.337,0,0,1,.73-2.029Z" transform="translate(-173.379 -143.664)" fill="#151515"/>
    <path id="Path_278" data-name="Path 278" d="M218.939,185.278a.494.494,0,0,1-.356-.141c-.36-.348-.324-1.3-.286-2.314l.006-.171a3.412,3.412,0,0,1,.757-2.095l.092-.1.434.7v.031c0,.02,0,.086,0,.187.078,2.662-.109,3.864-.605,3.9l-.046,0m.187-4.473a3.371,3.371,0,0,0-.617,1.854l-.006.172c-.035.921-.071,1.874.223,2.158a.3.3,0,0,0,.245.082c.123-.008.514-.3.414-3.686,0-.075,0-.132,0-.167Z" transform="translate(-172.987 -143.016)" fill="#fff"/>
    <path id="Path_279" data-name="Path 279" d="M208.807,183.056a10.126,10.126,0,0,0-.757,3.793c-.084,2.424.06,2.5-.6,2.407s-.605-1.676-.306-2.841,1.34-3.666,1.34-3.666Z" transform="translate(-164 -144.833)" fill="#151515"/>
    <path id="Path_280" data-name="Path 280" d="M208.807,183.056a10.126,10.126,0,0,0-.757,3.793c-.084,2.424.06,2.5-.6,2.407s-.605-1.676-.306-2.841,1.34-3.666,1.34-3.666Z" transform="translate(-164 -144.833)" fill="#151515"/>
    <path id="Path_281" data-name="Path 281" d="M207.292,188.7a1.846,1.846,0,0,1-.249-.025.544.544,0,0,1-.379-.256,4.193,4.193,0,0,1-.013-2.712c.295-1.158,1.334-3.655,1.344-3.68l.058-.139.482.462-.033.067a10.154,10.154,0,0,0-.747,3.752c-.015.44-.023.8-.029,1.1-.019.907-.026,1.212-.193,1.354a.356.356,0,0,1-.242.075m.837-6.455a36.958,36.958,0,0,0-1.278,3.513,4.128,4.128,0,0,0-.015,2.547.341.341,0,0,0,.237.166c.162.023.282.037.328,0,.1-.082.105-.48.121-1.2.006-.3.014-.662.029-1.1a10.543,10.543,0,0,1,.736-3.766Z" transform="translate(-163.604 -144.152)" fill="#fff"/>
    <path id="Path_282" data-name="Path 282" d="M197.928,193.182a30.269,30.269,0,0,0-.283,4.911c.168,1.44-.892,1.329-1.135.915s1.417-5.826,1.417-5.826" transform="translate(-155.72 -153.101)" fill="#151515"/>
    <path id="Path_283" data-name="Path 283" d="M197.928,193.182a30.269,30.269,0,0,0-.283,4.911c.168,1.44-.892,1.329-1.135.915s1.417-5.826,1.417-5.826" transform="translate(-155.72 -153.101)" fill="#151515"/>
    <path id="Path_284" data-name="Path 284" d="M196.669,199.268a.713.713,0,0,1-.61-.323c-.252-.427,1.128-5,1.408-5.908l.2.044a30.369,30.369,0,0,0-.282,4.885c.112.957-.31,1.205-.5,1.268a.689.689,0,0,1-.219.035m.661-5.058a23.143,23.143,0,0,0-1.093,4.631.527.527,0,0,0,.585.2c.294-.1.424-.481.358-1.049a21.658,21.658,0,0,1,.149-3.779" transform="translate(-155.357 -152.986)" fill="#fff"/>
    <path id="Path_285" data-name="Path 285" d="M186.373,203.726s-.26,3.225-.209,3.925.041,1.912-.717,1.592-.178-2.319,0-3.194a12.2,12.2,0,0,1,.926-2.322" transform="translate(-146.669 -161.457)" fill="#151515"/>
    <path id="Path_286" data-name="Path 286" d="M186.373,203.726s-.26,3.225-.209,3.925.041,1.912-.717,1.592-.178-2.319,0-3.194a12.2,12.2,0,0,1,.926-2.322" transform="translate(-146.669 -161.457)" fill="#151515"/>
    <path id="Path_287" data-name="Path 287" d="M185.287,209.218a.7.7,0,0,1-.27-.061c-.737-.31-.384-1.871-.15-2.9.034-.151.065-.288.089-.406a12.116,12.116,0,0,1,.935-2.349l.194.056c0,.032-.258,3.225-.209,3.909.061.911-.049,1.474-.328,1.673a.44.44,0,0,1-.261.083m.552-5.143a9.539,9.539,0,0,0-.681,1.814c-.024.118-.056.257-.09.41-.205.907-.549,2.426.029,2.669a.329.329,0,0,0,.332,0c.122-.087.316-.4.242-1.491-.038-.531.1-2.451.167-3.4" transform="translate(-146.279 -161.276)" fill="#fff"/>
    <path id="Path_288" data-name="Path 288" d="M176.084,213.264a16.347,16.347,0,0,0-.391,2.777c.044.775.108,2.174-.4,2.01s-.337-1.959-.205-2.545a16.67,16.67,0,0,1,1-2.242" transform="translate(-138.652 -169.016)" fill="#151515"/>
    <path id="Path_289" data-name="Path 289" d="M176.084,213.264a16.347,16.347,0,0,0-.391,2.777c.044.775.108,2.174-.4,2.01s-.337-1.959-.205-2.545a16.67,16.67,0,0,1,1-2.242" transform="translate(-138.652 -169.016)" fill="#151515"/>
    <path id="Path_290" data-name="Path 290" d="M174.986,217.985a.359.359,0,0,1-.11-.018c-.661-.215-.345-2.35-.274-2.665a16.386,16.386,0,0,1,1.005-2.267l.192.07a16.325,16.325,0,0,0-.388,2.749c.061,1.083.043,1.849-.244,2.07a.294.294,0,0,1-.181.062m.461-4.173a10.014,10.014,0,0,0-.644,1.535c-.17.759-.23,2.305.137,2.424a.1.1,0,0,0,.1-.011c.26-.2.19-1.431.164-1.895a10.954,10.954,0,0,1,.242-2.052" transform="translate(-138.267 -168.834)" fill="#fff"/>
    <path id="Path_291" data-name="Path 291" d="M164.846,224.88s-.111,3.154-.515,3.1-.4-1.077-.273-1.663a5.133,5.133,0,0,1,.788-1.441" transform="translate(-129.959 -178.222)" fill="#151515"/>
    <path id="Path_292" data-name="Path 292" d="M164.846,224.88s-.111,3.154-.515,3.1-.4-1.077-.273-1.663a5.133,5.133,0,0,1,.788-1.441" transform="translate(-129.959 -178.222)" fill="#151515"/>
    <path id="Path_293" data-name="Path 293" d="M163.946,226.87h-.022a.373.373,0,0,1-.258-.167,2.541,2.541,0,0,1-.1-1.62,5.156,5.156,0,0,1,.806-1.481l.2-.256-.011.322c-.017.472-.118,2.844-.481,3.153a.193.193,0,0,1-.127.05m.388-2.864a3.968,3.968,0,0,0-.57,1.121,2.415,2.415,0,0,0,.07,1.457.169.169,0,0,0,.115.081,8.079,8.079,0,0,0,.385-2.659" transform="translate(-129.563 -177.006)" fill="#fff"/>
    <path id="Path_294" data-name="Path 294" d="M189.769,181.176a10.174,10.174,0,0,1-3.847.424c-2.42-.128-2.484-.279-2.447.384s1.619.747,2.8.552,3.767-1.017,3.767-1.017Z" transform="translate(-145.403 -143.586)" fill="#151515"/>
    <path id="Path_295" data-name="Path 295" d="M189.769,181.176a10.174,10.174,0,0,1-3.847.424c-2.42-.128-2.484-.279-2.447.384s1.619.747,2.8.552,3.767-1.017,3.767-1.017Z" transform="translate(-145.403 -143.586)" fill="#151515"/>
    <path id="Path_296" data-name="Path 296" d="M184.753,182.263a2.717,2.717,0,0,1-1.554-.343.542.542,0,0,1-.222-.4c-.011-.2-.021-.374.092-.486.156-.154.46-.134,1.363-.074.3.02.66.044,1.1.067a10.193,10.193,0,0,0,3.8-.418l.07-.027.417.519-.143.045c-.026.008-2.6.826-3.781,1.02a7.224,7.224,0,0,1-1.148.094m-1.2-1.14c-.186,0-.3.016-.342.059s-.04.163-.031.328a.341.341,0,0,0,.145.25,4.073,4.073,0,0,0,2.539.207,37.356,37.356,0,0,0,3.609-.968l-.136-.169a10.6,10.6,0,0,1-3.818.405c-.442-.023-.8-.048-1.1-.067-.374-.025-.661-.044-.863-.044" transform="translate(-145.008 -143.117)" fill="#fff"/>
    <path id="Path_297" data-name="Path 297" d="M180.181,191.949a30.8,30.8,0,0,1-4.918-.148c-1.417-.3-1.4.771-1.013,1.05s5.931-.9,5.931-.9" transform="translate(-137.919 -151.966)" fill="#151515"/>
    <path id="Path_298" data-name="Path 298" d="M180.181,191.949a30.8,30.8,0,0,1-4.918-.148c-1.417-.3-1.4.771-1.013,1.05s5.931-.9,5.931-.9" transform="translate(-137.919 -151.966)" fill="#151515"/>
    <path id="Path_299" data-name="Path 299" d="M174.142,192.6a.711.711,0,0,1-.345-.053.73.73,0,0,1-.21-.854c.079-.18.365-.577,1.3-.381a30.857,30.857,0,0,0,4.892.146l.026.2a47.334,47.334,0,0,1-5.667.938m.281-1.134a.643.643,0,0,0-.648.311.529.529,0,0,0,.142.6,23.3,23.3,0,0,0,4.716-.685,22,22,0,0,1-3.784-.181,2.1,2.1,0,0,0-.426-.049" transform="translate(-137.525 -151.574)" fill="#fff"/>
    <path id="Path_300" data-name="Path 300" d="M169.271,203.376s-3.234.034-3.931-.067-1.905-.175-1.636.606,2.3.34,3.188.222a12.338,12.338,0,0,0,2.38-.761" transform="translate(-129.708 -161.08)" fill="#151515"/>
    <path id="Path_301" data-name="Path 301" d="M169.271,203.376s-3.234.034-3.931-.067-1.905-.175-1.636.606,2.3.34,3.188.222a12.338,12.338,0,0,0,2.38-.761" transform="translate(-129.708 -161.08)" fill="#151515"/>
    <path id="Path_302" data-name="Path 302" d="M164.464,204.074c-.6,0-1.114-.12-1.251-.522a.523.523,0,0,1,.057-.529c.219-.267.772-.336,1.69-.211.682.1,3.884.067,3.916.066l.042.2a12.25,12.25,0,0,1-2.407.768c-.117.016-.254.037-.4.06a11.317,11.317,0,0,1-1.643.171m-.271-1.117c-.509,0-.7.112-.764.2a.33.33,0,0,0-.022.332c.2.6,1.746.357,2.668.215.152-.023.291-.045.409-.061a9.645,9.645,0,0,0,1.854-.552c-.954,0-2.878,0-3.407-.072a5.561,5.561,0,0,0-.738-.057" transform="translate(-129.314 -160.684)" fill="#fff"/>
    <path id="Path_303" data-name="Path 303" d="M161.563,213.411a16.3,16.3,0,0,1-2.807,0c-.761-.155-2.134-.41-2.043.118s1.895.606,2.487.555a16.361,16.361,0,0,0,2.363-.673" transform="translate(-124.195 -168.974)" fill="#151515"/>
    <path id="Path_304" data-name="Path 304" d="M161.563,213.411a16.3,16.3,0,0,1-2.807,0c-.761-.155-2.134-.41-2.043.118s1.895.606,2.487.555a16.361,16.361,0,0,0,2.363-.673" transform="translate(-124.195 -168.974)" fill="#151515"/>
    <path id="Path_305" data-name="Path 305" d="M158.456,213.8c-.713,0-2.14-.091-2.237-.651a.306.306,0,0,1,.086-.285c.28-.272,1.165-.137,2.079.049a16.362,16.362,0,0,0,2.779,0l.042.2a16.1,16.1,0,0,1-2.389.678c-.061.005-.19.01-.36.01m-1.567-.884a.694.694,0,0,0-.441.1.1.1,0,0,0-.026.1c.066.384,1.6.537,2.377.47a9.854,9.854,0,0,0,1.613-.423,10.919,10.919,0,0,1-2.069-.047,8.579,8.579,0,0,0-1.454-.2" transform="translate(-123.802 -168.579)" fill="#fff"/>
    <path id="Path_306" data-name="Path 306" d="M156.033,225.2s-3.157-.111-3.134.293,1.047.478,1.639.39a5.153,5.153,0,0,0,1.494-.683" transform="translate(-121.176 -178.466)" fill="#151515"/>
    <path id="Path_307" data-name="Path 307" d="M156.033,225.2s-3.157-.111-3.134.293,1.047.478,1.639.39a5.153,5.153,0,0,0,1.494-.683" transform="translate(-121.176 -178.466)" fill="#151515"/>
    <path id="Path_308" data-name="Path 308" d="M153.656,225.619a1.95,1.95,0,0,1-1.1-.25.371.371,0,0,1-.15-.271.189.189,0,0,1,.058-.146c.331-.339,2.709-.273,3.182-.256l.323.011-.27.177a5.169,5.169,0,0,1-1.535.7,3.56,3.56,0,0,1-.506.034m1.087-.732a5.728,5.728,0,0,0-2.136.213.2.2,0,0,0,.077.11,2.388,2.388,0,0,0,1.448.172,3.974,3.974,0,0,0,1.159-.488c-.183,0-.366-.006-.546-.006" transform="translate(-120.783 -178.064)" fill="#fff"/>
    <line id="Line_35" data-name="Line 35" x2="10.613" y2="10.316" transform="translate(16.281 37.728)" fill="#151515"/>
    <rect id="Rectangle_120" data-name="Rectangle 120" width="0.509" height="14.801" transform="translate(16.104 37.911) rotate(-45.811)" fill="#fff"/>
    <path id="Path_309" data-name="Path 309" d="M127.852,229.975s1.323,2.976,2.164,2.79,0-1.212-.586-1.8a5.628,5.628,0,0,0-1.578-.993" transform="translate(-101.325 -182.26)" fill="#151515"/>
    <path id="Path_310" data-name="Path 310" d="M127.852,229.975s1.323,2.976,2.164,2.79,0-1.212-.586-1.8a5.628,5.628,0,0,0-1.578-.993" transform="translate(-101.325 -182.26)" fill="#151515"/>
    <path id="Path_311" data-name="Path 311" d="M129.187,232.143c-.888,0-2.051-2.558-2.185-2.859l-.1-.234.237.1a5.664,5.664,0,0,1,1.612,1.016c.415.414,1.091,1.179.954,1.643a.5.5,0,0,1-.419.328.443.443,0,0,1-.095.01m-1.883-2.694c.524,1.11,1.42,2.6,1.934,2.483.225-.049.256-.151.266-.185.076-.256-.27-.808-.9-1.439a5.039,5.039,0,0,0-1.3-.859" transform="translate(-100.569 -181.527)" fill="#fff"/>
    <path id="Path_312" data-name="Path 312" d="M68.438,180.626c0,.182-.33,3.928.367,4s.663-1.208.663-2.494a3.339,3.339,0,0,0-.663-2.057Z" transform="translate(-54.177 -142.712)" fill="#151515"/>
    <path id="Path_313" data-name="Path 313" d="M68.438,180.626c0,.182-.33,3.928.367,4s.663-1.208.663-2.494a3.339,3.339,0,0,0-.663-2.057Z" transform="translate(-54.177 -142.712)" fill="#151515"/>
    <path id="Path_314" data-name="Path 314" d="M68.477,184.081a.616.616,0,0,1-.067,0c-.307-.031-.69-.471-.47-3.917.006-.1.011-.164.011-.184v-.031l.459-.691.089.1a3.416,3.416,0,0,1,.688,2.124v.185c0,1,0,1.952-.368,2.286a.494.494,0,0,1-.342.129m-.322-4.072c0,.034-.005.09-.01.164-.216,3.384.164,3.687.286,3.7a.305.305,0,0,0,.25-.074c.3-.273.3-1.219.3-2.133v-.185a3.375,3.375,0,0,0-.555-1.878Z" transform="translate(-53.792 -142.063)" fill="#fff"/>
    <path id="Path_315" data-name="Path 315" d="M76.881,182.135a10.149,10.149,0,0,1,.623,3.821c0,2.423-.148,2.5.515,2.423s.66-1.653.4-2.828-1.212-3.709-1.212-3.709Z" transform="translate(-60.93 -144.114)" fill="#151515"/>
    <path id="Path_316" data-name="Path 316" d="M76.881,182.135a10.149,10.149,0,0,1,.623,3.821c0,2.423-.148,2.5.515,2.423s.66-1.653.4-2.828-1.212-3.709-1.212-3.709Z" transform="translate(-60.93 -144.114)" fill="#151515"/>
    <path id="Path_317" data-name="Path 317" d="M77.327,187.824a.374.374,0,0,1-.265-.083c-.163-.148-.159-.453-.146-1.359,0-.3.009-.661.009-1.1a10.177,10.177,0,0,0-.614-3.779l-.031-.069.5-.442.053.14c.01.025.962,2.555,1.216,3.724a4.214,4.214,0,0,1-.107,2.711.541.541,0,0,1-.386.241,2.13,2.13,0,0,1-.227.017m-.8-6.335a10.575,10.575,0,0,1,.6,3.792c0,.442,0,.805-.009,1.1-.01.721-.015,1.118.079,1.2.046.042.166.032.331.013a.338.338,0,0,0,.241-.156,4.081,4.081,0,0,0,.074-2.547,36.885,36.885,0,0,0-1.155-3.555Z" transform="translate(-60.454 -143.44)" fill="#fff"/>
    <path id="Path_318" data-name="Path 318" d="M89.1,192.63a30.4,30.4,0,0,1,.107,4.921c-.219,1.434.848,1.36,1.1.956S89.1,192.63,89.1,192.63" transform="translate(-70.61 -152.663)" fill="#151515"/>
    <path id="Path_319" data-name="Path 319" d="M89.1,192.63a30.4,30.4,0,0,1,.107,4.921c-.219,1.434.848,1.36,1.1.956S89.1,192.63,89.1,192.63" transform="translate(-70.61 -152.663)" fill="#151515"/>
    <path id="Path_320" data-name="Path 320" d="M89.41,198.762a.7.7,0,0,1-.245-.043c-.185-.069-.6-.333-.454-1.284a30.474,30.474,0,0,0-.108-4.9l.2-.037c.247.921,1.466,5.538,1.2,5.958a.709.709,0,0,1-.594.3m-.51-5.085a21.761,21.761,0,0,1,.015,3.789c-.086.565.032.951.323,1.06a.527.527,0,0,0,.593-.175,23.232,23.232,0,0,0-.931-4.674" transform="translate(-70.22 -152.562)" fill="#fff"/>
    <path id="Path_321" data-name="Path 321" d="M100.777,203.612s.145,3.231.074,3.928-.111,1.908.659,1.615.26-2.313.111-3.194a12.187,12.187,0,0,0-.845-2.349" transform="translate(-79.868 -161.367)" fill="#151515"/>
    <path id="Path_322" data-name="Path 322" d="M100.777,203.612s.145,3.231.074,3.928-.111,1.908.659,1.615.26-2.313.111-3.194a12.187,12.187,0,0,0-.845-2.349" transform="translate(-79.868 -161.367)" fill="#151515"/>
    <path id="Path_323" data-name="Path 323" d="M100.9,209.135a.444.444,0,0,1-.278-.093c-.273-.21-.362-.776-.266-1.681.069-.681-.073-3.88-.075-3.913l.2-.049a12.086,12.086,0,0,1,.853,2.377c.02.117.046.254.074.4.2,1.043.5,2.619-.251,2.9a.72.72,0,0,1-.254.052m-.391-5.159c.038.952.1,2.877.051,3.406-.086.806-.02,1.338.187,1.5a.329.329,0,0,0,.333.012c.588-.223.3-1.757.122-2.673-.029-.152-.055-.29-.075-.408a9.535,9.535,0,0,0-.618-1.834" transform="translate(-79.475 -161.198)" fill="#fff"/>
    <path id="Path_324" data-name="Path 324" d="M111.386,213.525a16.241,16.241,0,0,1,.3,2.79c-.074.771-.185,2.164.33,2.02s.4-1.949.292-2.535a16.514,16.514,0,0,0-.919-2.275" transform="translate(-88.276 -169.223)" fill="#151515"/>
    <path id="Path_325" data-name="Path 325" d="M111.386,213.525a16.241,16.241,0,0,1,.3,2.79c-.074.771-.185,2.164.33,2.02s.4-1.949.292-2.535a16.514,16.514,0,0,0-.919-2.275" transform="translate(-88.276 -169.223)" fill="#151515"/>
    <path id="Path_326" data-name="Path 326" d="M111.554,218.278a.294.294,0,0,1-.193-.07c-.3-.251-.258-1.144-.169-2.072a16.235,16.235,0,0,0-.3-2.762l.194-.063a16.224,16.224,0,0,1,.927,2.3c.06.316.3,2.458-.365,2.652a.374.374,0,0,1-.1.014m-.328-4.183a10.874,10.874,0,0,1,.172,2.06c-.04.416-.162,1.679.1,1.895a.1.1,0,0,0,.1.016c.37-.107.364-1.653.219-2.416a9.951,9.951,0,0,0-.591-1.555" transform="translate(-87.889 -169.053)" fill="#fff"/>
    <path id="Path_327" data-name="Path 327" d="M123.244,225.547s0,3.16.4,3.123.441-1.067.334-1.652a5.135,5.135,0,0,0-.738-1.471" transform="translate(-97.673 -178.751)" fill="#151515"/>
    <path id="Path_328" data-name="Path 328" d="M123.244,225.547s0,3.16.4,3.123.441-1.067.334-1.652a5.135,5.135,0,0,0-.738-1.471" transform="translate(-97.673 -178.751)" fill="#151515"/>
    <path id="Path_329" data-name="Path 329" d="M123.247,227.54a.19.19,0,0,1-.13-.054c-.349-.318-.369-2.7-.37-3.173v-.323l.187.263a5.154,5.154,0,0,1,.755,1.511,2.556,2.556,0,0,1-.162,1.616.372.372,0,0,1-.264.157h-.016m-.291-2.879a7.777,7.777,0,0,0,.3,2.676.2.2,0,0,0,.1-.079,2.427,2.427,0,0,0,.124-1.455,3.968,3.968,0,0,0-.531-1.142" transform="translate(-97.28 -177.518)" fill="#fff"/>
    <path id="Path_330" data-name="Path 330" d="M78.01,180.267a10.084,10.084,0,0,0,3.83.559c2.423-.04,2.494-.192,2.434.471s-1.643.69-2.821.454-3.73-1.148-3.73-1.148Z" transform="translate(-61.597 -142.865)" fill="#151515"/>
    <path id="Path_331" data-name="Path 331" d="M78.01,180.267a10.084,10.084,0,0,0,3.83.559c2.423-.04,2.494-.192,2.434.471s-1.643.69-2.821.454-3.73-1.148-3.73-1.148Z" transform="translate(-61.597 -142.865)" fill="#151515"/>
    <path id="Path_332" data-name="Path 332" d="M82.115,181.514a7.121,7.121,0,0,1-1.35-.137c-1.175-.234-3.719-1.143-3.744-1.152l-.14-.05.432-.508.07.03a10.167,10.167,0,0,0,3.788.551c.446-.007.812-.019,1.112-.028.9-.027,1.2-.037,1.352.123.109.116.093.288.075.489a.542.542,0,0,1-.235.39,2.448,2.448,0,0,1-1.358.293m-4.885-1.433a36.569,36.569,0,0,0,3.575,1.094,4.078,4.078,0,0,0,2.545-.119.341.341,0,0,0,.153-.244c.015-.164.022-.284-.02-.328-.087-.092-.48-.079-1.2-.058-.3.009-.668.02-1.115.028a10.5,10.5,0,0,1-3.8-.539Z" transform="translate(-60.929 -142.39)" fill="#fff"/>
    <path id="Path_333" data-name="Path 333" d="M88.836,192.11a30.538,30.538,0,0,0,4.921.023c1.427-.246,1.373.821.976,1.084s-5.9-1.107-5.9-1.107" transform="translate(-70.404 -152.241)" fill="#151515"/>
    <path id="Path_334" data-name="Path 334" d="M88.836,192.11a30.538,30.538,0,0,0,4.921.023c1.427-.246,1.373.821.976,1.084s-5.9-1.107-5.9-1.107" transform="translate(-70.404 -152.241)" fill="#151515"/>
    <path id="Path_335" data-name="Path 335" d="M94.425,192.956a44.176,44.176,0,0,1-5.709-1.137l.033-.2a30.633,30.633,0,0,0,4.9.025c.948-.163,1.218.245,1.291.429a.726.726,0,0,1-.241.842.558.558,0,0,1-.27.043m-4.534-1.062a22.953,22.953,0,0,0,4.691.847.526.526,0,0,0,.163-.594c-.115-.289-.5-.4-1.065-.3a21.858,21.858,0,0,1-3.789.049" transform="translate(-70.309 -151.85)" fill="#fff"/>
    <path id="Path_336" data-name="Path 336" d="M101.457,203.743s3.231.148,3.928.074,1.912-.107,1.619.663-2.316.256-3.2.108a12.192,12.192,0,0,1-2.35-.845" transform="translate(-80.407 -161.471)" fill="#151515"/>
    <path id="Path_337" data-name="Path 337" d="M101.457,203.743s3.231.148,3.928.074,1.912-.107,1.619.663-2.316.256-3.2.108a12.192,12.192,0,0,1-2.35-.845" transform="translate(-80.407 -161.471)" fill="#151515"/>
    <path id="Path_338" data-name="Path 338" d="M105.809,204.6a10.168,10.168,0,0,1-1.779-.231c-.152-.029-.291-.056-.409-.076a12.081,12.081,0,0,1-2.377-.853l.049-.2c.032,0,3.231.147,3.912.074.906-.1,1.473-.005,1.685.27a.523.523,0,0,1,.041.533c-.14.364-.584.479-1.122.479m-3.987-1.127a9.53,9.53,0,0,0,1.833.617c.12.02.26.047.414.076.914.175,2.445.467,2.67-.12a.33.33,0,0,0-.012-.334c-.158-.205-.7-.275-1.5-.19-.529.056-2.452-.011-3.405-.05" transform="translate(-80.238 -161.078)" fill="#fff"/>
    <path id="Path_339" data-name="Path 339" d="M111.678,214.24a16.323,16.323,0,0,0,2.8.1c.767-.125,2.151-.334,2.04.188s-1.912.539-2.508.471a16.808,16.808,0,0,1-2.333-.757" transform="translate(-88.507 -169.75)" fill="#151515"/>
    <path id="Path_340" data-name="Path 340" d="M111.678,214.24a16.323,16.323,0,0,0,2.8.1c.767-.125,2.151-.334,2.04.188s-1.912.539-2.508.471a16.808,16.808,0,0,1-2.333-.757" transform="translate(-88.507 -169.75)" fill="#151515"/>
    <path id="Path_341" data-name="Path 341" d="M114.512,214.73c-.3,0-.549-.015-.657-.027a16.529,16.529,0,0,1-2.359-.764l.049-.2a16.3,16.3,0,0,0,2.772.1c1.07-.174,1.833-.236,2.083.026a.3.3,0,0,1,.074.285c-.1.483-1.2.579-1.963.579m-2.226-.713a10.124,10.124,0,0,0,1.593.482c.793.089,2.315-.011,2.395-.39a.1.1,0,0,0-.022-.1c-.226-.238-1.443-.04-1.9.035a10.906,10.906,0,0,1-2.065-.026" transform="translate(-88.363 -169.353)" fill="#fff"/>
    <path id="Path_342" data-name="Path 342" d="M123.373,225.92s3.157,0,3.12.407-1.063.441-1.649.33a5.147,5.147,0,0,1-1.471-.737" transform="translate(-97.776 -179.046)" fill="#151515"/>
    <path id="Path_343" data-name="Path 343" d="M123.373,225.92s3.157,0,3.12.407-1.063.441-1.649.33a5.147,5.147,0,0,1-1.471-.737" transform="translate(-97.776 -179.046)" fill="#151515"/>
    <path id="Path_344" data-name="Path 344" d="M124.228,226.419a3.576,3.576,0,0,1-.638-.055,5.164,5.164,0,0,1-1.512-.755l-.264-.187h.323c.473,0,2.849.021,3.169.372a.189.189,0,0,1,.053.148.369.369,0,0,1-.156.264,1.776,1.776,0,0,1-.977.213m-1.742-.788a3.976,3.976,0,0,0,1.143.531,2.394,2.394,0,0,0,1.452-.119.167.167,0,0,0,.076-.118,8.088,8.088,0,0,0-2.67-.293" transform="translate(-96.541 -178.652)" fill="#fff"/>
    <path id="Path_345" data-name="Path 345" d="M34.522,125.987a4.33,4.33,0,0,1,4.329-4.332H76.3a4.33,4.33,0,0,1,4.328,4.332v3.948a4.332,4.332,0,0,1-4.328,4.332H38.851a4.332,4.332,0,0,1-4.329-4.332Z" transform="translate(-27.359 -96.414)" fill="#151515"/>
    <path id="Path_346" data-name="Path 346" d="M34.522,125.987a4.33,4.33,0,0,1,4.329-4.332H76.3a4.33,4.33,0,0,1,4.328,4.332v3.948a4.332,4.332,0,0,1-4.328,4.332H38.851a4.332,4.332,0,0,1-4.329-4.332Z" transform="translate(-27.359 -96.414)" fill="#151515"/>
    <path id="Path_347" data-name="Path 347" d="M75.328,133.55H37.879a4.59,4.59,0,0,1-4.583-4.586v-3.948a4.59,4.59,0,0,1,4.583-4.586H75.328a4.589,4.589,0,0,1,4.582,4.586v3.948a4.589,4.589,0,0,1-4.582,4.586M37.879,120.939a4.08,4.08,0,0,0-4.074,4.077v3.948a4.08,4.08,0,0,0,4.074,4.077H75.328a4.08,4.08,0,0,0,4.074-4.077v-3.948a4.08,4.08,0,0,0-4.074-4.077Z" transform="translate(-26.388 -95.443)" fill="#fff"/>
    <path id="Path_348" data-name="Path 348" d="M63.431,129.052v9.532h3.049v-9.509Z" transform="translate(-50.271 -102.277)" fill="#fff"/>
    <path id="Path_349" data-name="Path 349" d="M99.214,129.143s-.8,1,0,1.676,2.8-.115,1.562-1.794-5.477-2.12-7.553,1.077a4.8,4.8,0,0,0,3.595,7.27c3,.04,3.918-.839,3.918-.839s.478-1.437.159-1.477-.518,1.279-2.955,1.081-2.359-2.837-2.319-4.315.522-3.117,2.157-3.359,1.438.68,1.438.68" transform="translate(-73.297 -101.227)" fill="#fff"/>
    <path id="Path_350" data-name="Path 350" d="M147.893,128.609l-.054,9.4h6.355v-1.276h-3.477v-3.076h3.356v-1.239h-3.4v-2.6h3.477v-1.239Z" transform="translate(-117.165 -101.904)" fill="#fff"/>
    <path id="Path_351" data-name="Path 351" d="M188.915,136.982l4.012-9.488H194.9l3.437,9.488h-3.376l-.444-1.783h-3.184l-.636,1.783Zm2.864-2.928,1.275-3.184,1.02,3.184Z" transform="translate(-149.719 -101.042)" fill="#fff"/>
    <path id="Path_352" data-name="Path 352" d="M3.205,77.689a2.892,2.892,0,0,0-.956.478,2.4,2.4,0,0,0-.626.754,2.117,2.117,0,0,0-.162,1.8,2.707,2.707,0,0,0,1.367,1.431,2.718,2.718,0,0,0,1.888.353,1.952,1.952,0,0,0,1.337-1.073,2.6,2.6,0,0,0,.309-1.03,2.863,2.863,0,0,0-.141-1.1l1.414.761A3.408,3.408,0,0,1,7.587,81.1a3.659,3.659,0,0,1-.357.98,3.335,3.335,0,0,1-2.168,1.757,3.912,3.912,0,0,1-2.908-.411A3.922,3.922,0,0,1,.192,81.244a3.378,3.378,0,0,1,.259-2.8,4.2,4.2,0,0,1,.592-.848,4.388,4.388,0,0,1,.8-.683Z" transform="translate(-0.001 -60.954)" fill="#151515"/>
    <path id="Path_353" data-name="Path 353" d="M22.577,55.913l-5.526-4.806L19.579,48.2l1,.865-1.609,1.854L20.1,51.9l1.609-1.851,1,.875-1.609,1.851,1.387,1.2L24.1,52.13l1,.872Z" transform="translate(-13.513 -38.198)" fill="#151515"/>
    <path id="Path_354" data-name="Path 354" d="M44.68,31.409l.168-.125a2.024,2.024,0,0,0,.784-.828.862.862,0,0,0-.2-.744.916.916,0,0,0-.687-.448,1.864,1.864,0,0,0-1.023.461l-.172.124Zm5.164,1.437-1.306.949-3.4-1.757L47.147,34.8l-1.134.825L41.708,29.7l1.622-1.178a2.662,2.662,0,0,1,1.75-.63,1.967,1.967,0,0,1,1.4.912,2.086,2.086,0,0,1,.431,1.282,1.554,1.554,0,0,1-.481,1.124Z" transform="translate(-33.054 -22.102)" fill="#151515"/>
    <path id="Path_355" data-name="Path 355" d="M73.542,10.969l2.342,5.513-1.289.549-2.343-5.517-1.474.626-.518-1.225,4.238-1.8.518,1.225Z" transform="translate(-55.683 -7.226)" fill="#151515"/>
    <path id="Path_356" data-name="Path 356" d="M103.057,11.589l-1.891-7.075,1.35-.36,1.895,7.072Z" transform="translate(-80.176 -3.292)" fill="#151515"/>
    <path id="Path_357" data-name="Path 357" d="M123.545,7.577,123.034.269,126.878,0l.094,1.319-2.447.172.1,1.5,2.447-.172.095,1.326-2.447.175.222,3.157Z" transform="translate(-97.507 0)" fill="#151515"/>
    <path id="Path_358" data-name="Path 358" d="M150.921,7.945l.636-7.3,1.4.125-.636,7.294Z" transform="translate(-119.608 -0.514)" fill="#151515"/>
    <path id="Path_359" data-name="Path 359" d="M176.234,10.083a2.943,2.943,0,0,0-.636-.861,2.346,2.346,0,0,0-.848-.481,2.121,2.121,0,0,0-1.8.151,2.726,2.726,0,0,0-1.171,1.6,2.732,2.732,0,0,0-.017,1.922,1.958,1.958,0,0,0,1.289,1.131,2.593,2.593,0,0,0,1.067.121,2.838,2.838,0,0,0,1.056-.327l-.5,1.525a3.477,3.477,0,0,1-1.027.131,3.658,3.658,0,0,1-1.023-.182,3.33,3.33,0,0,1-2.107-1.827,3.9,3.9,0,0,1-.1-2.939,3.9,3.9,0,0,1,1.808-2.309,3.365,3.365,0,0,1,2.8-.232,4.135,4.135,0,0,1,.939.437,4.073,4.073,0,0,1,.811.666Z" transform="translate(-134.864 -5.788)" fill="#151515"/>
    <path id="Path_360" data-name="Path 360" d="M196,30.262l6.16-4.678,1.326.895-2,7.483-1.319-.889.427-1.589-2.1-1.417L197.25,31.1Zm5.012.021.717-2.373c.02-.067.067-.182.134-.343s.155-.35.263-.576c-.165.175-.313.33-.448.468s-.229.225-.279.269l-1.892,1.542Z" transform="translate(-155.337 -20.276)" fill="#151515"/>
    <path id="Path_361" data-name="Path 361" d="M233.02,45.217l-4.309,4.16-.976-1.006,4.312-4.163-1.114-1.151.956-.926,3.2,3.312-.96.925Z" transform="translate(-180.485 -33.389)" fill="#151515"/>
    <path id="Path_362" data-name="Path 362" d="M248.981,80.149a1.84,1.84,0,0,0,1.323.949,2.928,2.928,0,0,0,3.056-1.7,1.819,1.819,0,0,0-.087-1.622,1.85,1.85,0,0,0-1.337-.949,2.926,2.926,0,0,0-3.07,1.693,1.849,1.849,0,0,0,.115,1.632m3.83,1.861a4.16,4.16,0,0,1-1.427.492,3.7,3.7,0,0,1-1.441-.061,3.622,3.622,0,0,1-1.286-.6,3.157,3.157,0,0,1-1.265-2.154,3.656,3.656,0,0,1,.754-2.7,4.13,4.13,0,0,1,1.279-1.084,4.223,4.223,0,0,1,1.424-.495,3.718,3.718,0,0,1,1.444.067,3.551,3.551,0,0,1,1.282.6,3.262,3.262,0,0,1,.905,1.027,3.169,3.169,0,0,1,.387,1.306,3.622,3.622,0,0,1-.171,1.4,3.794,3.794,0,0,1-.714,1.262,4.237,4.237,0,0,1-1.171.942" transform="translate(-196.042 -59.731)" fill="#151515"/>
    <path id="Path_363" data-name="Path 363" d="M18.461,221.851l-1.494,1.259.875,1.043a6.737,6.737,0,0,0,.683.747.925.925,0,0,0,.569.222.9.9,0,0,0,.606-.243.973.973,0,0,0,.327-.481.883.883,0,0,0-.041-.569,5.009,5.009,0,0,0-.757-1.067Zm2.215-1.858-1.286,1.081.619.737c.37.441.606.707.707.8a.968.968,0,0,0,.579.286.776.776,0,0,0,.576-.2.79.79,0,0,0,.3-.494.844.844,0,0,0-.161-.589q-.121-.182-.787-.98Zm-.02-1.908,1.875,2.231a8.6,8.6,0,0,1,.777,1.037,1.918,1.918,0,0,1,.256.777,1.828,1.828,0,0,1-.1.818,1.644,1.644,0,0,1-.509.721,1.724,1.724,0,0,1-1.865.229,1.909,1.909,0,0,1,.148,1.208,1.76,1.76,0,0,1-.613.983,2.216,2.216,0,0,1-.892.448,1.988,1.988,0,0,1-.983,0,2.049,2.049,0,0,1-.9-.532c-.179-.171-.573-.616-1.182-1.33l-1.6-1.9Z" transform="translate(-11.945 -172.836)" fill="#151515"/>
    <rect id="Rectangle_121" data-name="Rectangle 121" width="7.291" height="1.477" transform="translate(8.458 55.71) rotate(-49.008)" fill="#151515"/>
    <path id="Path_364" data-name="Path 364" d="M59.592,255.956a2.736,2.736,0,0,0-.445,1.915,1.974,1.974,0,0,0,2.514,1.457,2.807,2.807,0,0,0,1.441-1.37,2.73,2.73,0,0,0,.458-1.895,2.036,2.036,0,0,0-2.545-1.461,2.765,2.765,0,0,0-1.424,1.353m-1.34-.714a4.676,4.676,0,0,1,1.225-1.457,3.408,3.408,0,0,1,1.091-.529,2.852,2.852,0,0,1,1.144-.1,4.006,4.006,0,0,1,1.508.535,3.429,3.429,0,0,1,1.733,2.157,4.486,4.486,0,0,1-2.77,4.817,3.834,3.834,0,0,1-4.466-2.574,3.756,3.756,0,0,1,.535-2.851" transform="translate(-45.667 -200.618)" fill="#151515"/>
    <path id="Path_365" data-name="Path 365" d="M88.933,270.654l1.868-6.984,1.427.38-1.552,5.8,3.531.946-.32,1.188Z" transform="translate(-70.482 -208.965)" fill="#151515"/>
    <path id="Path_366" data-name="Path 366" d="M119.846,273.571a2.72,2.72,0,0,0,.538,1.888,1.969,1.969,0,0,0,2.9.058,2.776,2.776,0,0,0,.6-1.9,2.726,2.726,0,0,0-.518-1.881,1.845,1.845,0,0,0-1.451-.643,1.867,1.867,0,0,0-1.481.6,2.734,2.734,0,0,0-.589,1.875m-1.522.024a4.646,4.646,0,0,1,.367-1.869,3.448,3.448,0,0,1,.7-.989,2.828,2.828,0,0,1,.956-.643,3.99,3.99,0,0,1,1.576-.262,3.443,3.443,0,0,1,2.565,1.047,4.48,4.48,0,0,1-.091,5.554,3.378,3.378,0,0,1-2.585.955,3.418,3.418,0,0,1-2.568-1.04,3.774,3.774,0,0,1-.916-2.753" transform="translate(-93.774 -213.846)" fill="#151515"/>
    <path id="Path_367" data-name="Path 367" d="M157.444,270.108l-.3-1.2,3.073-.764.7,2.82a3.97,3.97,0,0,1-1.108,1.094,4.833,4.833,0,0,1-1.639.76,3.961,3.961,0,0,1-2.049.017,3.064,3.064,0,0,1-1.572-1.027,4.47,4.47,0,0,1-.889-1.784,4.245,4.245,0,0,1-.027-2.083,3.236,3.236,0,0,1,1.026-1.659,3.772,3.772,0,0,1,1.606-.777,3.5,3.5,0,0,1,2.194.043,2.57,2.57,0,0,1,1.333,1.293l-1.353.623a1.58,1.58,0,0,0-.767-.687,1.748,1.748,0,0,0-1.1-.044,1.971,1.971,0,0,0-1.336.966,2.573,2.573,0,0,0-.111,1.9,2.859,2.859,0,0,0,1.03,1.754,1.921,1.921,0,0,0,1.622.265,2.565,2.565,0,0,0,.855-.4,3.316,3.316,0,0,0,.666-.619l-.226-.9Z" transform="translate(-121.668 -210.3)" fill="#151515"/>
    <path id="Path_368" data-name="Path 368" d="M186.336,265.7l-3.083-6.608,1.34-.626,3.083,6.61Z" transform="translate(-145.232 -204.837)" fill="#151515"/>
    <path id="Path_369" data-name="Path 369" d="M202.475,248.732l1.4-.509a3.231,3.231,0,0,1,.205,2.087,3.421,3.421,0,0,1-3.7,2.275A3.783,3.783,0,0,1,198,250.98a4,4,0,0,1-.952-2.824,3.237,3.237,0,0,1,1.366-2.3,3.038,3.038,0,0,1,2.215-.673,2.838,2.838,0,0,1,1.407.626l-.955,1.151a1.5,1.5,0,0,0-1.962-.051,1.664,1.664,0,0,0-.7,1.259,2.863,2.863,0,0,0,.73,1.807,3.06,3.06,0,0,0,1.586,1.272,1.622,1.622,0,0,0,1.387-.31,1.5,1.5,0,0,0,.582-.909,2.186,2.186,0,0,0-.222-1.3" transform="translate(-156.15 -194.301)" fill="#151515"/>
    <path id="Path_370" data-name="Path 370" d="M223.319,227.041a2.724,2.724,0,0,0,1.81.767,1.857,1.857,0,0,0,1.424-.7,1.837,1.837,0,0,0,.444-1.518,3.477,3.477,0,0,0-2.885-2.441,2.044,2.044,0,0,0-1.878,2.255,2.767,2.767,0,0,0,1.083,1.639m-.936,1.195a4.657,4.657,0,0,1-1.222-1.461,3.492,3.492,0,0,1-.333-1.164,2.845,2.845,0,0,1,.1-1.145,3.99,3.99,0,0,1,.791-1.394,3.432,3.432,0,0,1,2.424-1.332,4.485,4.485,0,0,1,4.261,3.564,3.832,3.832,0,0,1-3.312,3.955,3.777,3.777,0,0,1-2.713-1.023" transform="translate(-174.998 -175.727)" fill="#151515"/>
  </g>
</svg>
