<svg xmlns="http://www.w3.org/2000/svg" xmlns:xlink="http://www.w3.org/1999/xlink" width="46.901" height="46.901" viewBox="0 0 46.901 46.901">
  <defs>
    <clipPath id="clip-path">
      <rect id="Rectangle_112" data-name="Rectangle 112" width="46.901" height="46.901" transform="translate(0 0)" fill="none"/>
    </clipPath>
  </defs>
  <g id="paraben" transform="translate(0 0)" clip-path="url(#clip-path)">
    <path id="Path_145" data-name="Path 145" d="M45.057,14.32A23.525,23.525,0,1,0,46.9,23.448a23.372,23.372,0,0,0-1.843-9.128M23.45,46.072A22.623,22.623,0,1,1,46.074,23.448,22.623,22.623,0,0,1,23.45,46.072" transform="translate(0 0.002)" fill="#1c1c1c"/>
    <path id="Path_146" data-name="Path 146" d="M327.491,308.085a13.72,13.72,0,1,0,4.019,9.7,13.631,13.631,0,0,0-4.019-9.7" transform="translate(-294.338 -294.336)" fill="#1c1c1c"/>
    <path id="Path_147" data-name="Path 147" d="M481.95,479.782c0-3.4-3.388-7.033-3.407-7.054h0c-.019.02-3.407,3.654-3.407,7.054a5.869,5.869,0,0,0,.078.928,11.508,11.508,0,0,0-5.061-1.792s-.28,4.1,1.507,6.121c1.479,1.674,4.859,2.424,6.03,2.423a2.607,2.607,0,0,1-1.5-.906,28.936,28.936,0,0,1-2.228-3.293,31.217,31.217,0,0,1,2.964,2.642c.806.912.772,1.468.76,1.556h.012a6.473,6.473,0,0,0,1.682,0h.012c-.012-.089-.045-.645.76-1.556a31.223,31.223,0,0,1,2.964-2.642,28.944,28.944,0,0,1-2.228,3.293,2.607,2.607,0,0,1-1.5.906c1.171,0,4.551-.749,6.03-2.423,1.787-2.022,1.507-6.121,1.507-6.121a11.508,11.508,0,0,0-5.061,1.792,5.869,5.869,0,0,0,.078-.928m-3.408,7.165a2.667,2.667,0,0,1-.571-1.937,37.362,37.362,0,0,1,.571-4.84,37.351,37.351,0,0,1,.571,4.84,2.667,2.667,0,0,1-.571,1.937" transform="translate(-455.092 -457.6)" fill="#fff"/>
    <path id="Path_148" data-name="Path 148" d="M163.076,427.087l1.535.784-.291.57-3.779-1.93.33-.646a3.273,3.273,0,0,1,.432-.683,1.081,1.081,0,0,1,.47-.3,1.208,1.208,0,0,1,.969.084,1.163,1.163,0,0,1,.645.767,1.545,1.545,0,0,1-.175,1.092Zm-.529-.27.109-.213q.4-.786-.2-1.094-.585-.3-1,.512l-.1.188Z" transform="translate(-155.403 -411.22)" fill="#1c1c1c"/>
    <path id="Path_149" data-name="Path 149" d="M238.515,341.908l-1.124,1.427.517,1.009-.427.542-2.242-4.441,4.8,1.2-.434.55Zm-.634-.168-1.523-.4.725,1.411Z" transform="translate(-227.711 -329.551)" fill="#1c1c1c"/>
    <path id="Path_150" data-name="Path 150" d="M313.376,240.881l2.16.576-.608.494-2.036-.584-.09.073,1.095,1.348-.5.4-2.675-3.294.583-.473a1.874,1.874,0,0,1,1.142-.52,1.161,1.161,0,0,1,.906.461,1.206,1.206,0,0,1,.288.765,1.151,1.151,0,0,1-.267.752m-.925.125.158-.128q.706-.573.268-1.113-.411-.506-1.1.052l-.177.144Z" transform="translate(-300.782 -231.259)" fill="#1c1c1c"/>
    <path id="Path_151" data-name="Path 151" d="M457.577,165.51l-1.63.8.031,1.133-.619.3-.106-4.973,3.808,3.153-.629.309Zm-.5-.425-1.2-1.017.045,1.586Z" transform="translate(-440.685 -157.567)" fill="#1c1c1c"/>
    <path id="Path_152" data-name="Path 152" d="M554.949,128.695l-.987-4.127.62-.148a2.789,2.789,0,0,1,.676-.094,1.02,1.02,0,0,1,.471.116,1.156,1.156,0,0,1,.369.327,1.223,1.223,0,0,1,.219.456,1,1,0,0,1-.16.832,1.026,1.026,0,0,1,.613.269,1.2,1.2,0,0,1,.2,1.5,1.155,1.155,0,0,1-.394.4,2.762,2.762,0,0,1-.684.246Zm.06-2.5.2-.047a.739.739,0,0,0,.472-.275.613.613,0,0,0,.053-.492.584.584,0,0,0-.271-.4.71.71,0,0,0-.517-.036l-.219.052Zm.423,1.769.385-.092a.982.982,0,0,0,.581-.314.589.589,0,0,0,.1-.5.6.6,0,0,0-.308-.4,1.068,1.068,0,0,0-.74-.012l-.315.075Z" transform="translate(-536.236 -120.347)" fill="#1c1c1c"/>
    <path id="Path_153" data-name="Path 153" d="M677.478,105.666l-1.7.073.044,1.019,1.65-.071.026.6-1.65.071.061,1.417,1.7-.073.026.6-2.339.1-.182-4.239,2.339-.1Z" transform="translate(-653.51 -101.703)" fill="#1c1c1c"/>
    <path id="Path_154" data-name="Path 154" d="M773.46,102.156l.86-4.449,2.424,3.766.559-2.9.629.121-.854,4.42-2.426-3.757-.564,2.917Z" transform="translate(-748.711 -94.58)" fill="#1c1c1c"/>
    <path id="Path_155" data-name="Path 155" d="M961.52,176.5l-1.283-.735-.507.885,1.237.709-.3.522-1.237-.709-1,1.752-.555-.318,2.11-3.681,1.838,1.054Z" transform="translate(-927.22 -169.326)" fill="#1c1c1c"/>
    <path id="Path_156" data-name="Path 156" d="M1031.961,234.882l-.171,2.229-.6-.508.2-2.108-.088-.075-1.126,1.323-.487-.415,2.75-3.231.571.486a1.873,1.873,0,0,1,.72,1.028,1.162,1.162,0,0,1-.288.975,1.207,1.207,0,0,1-.7.423,1.152,1.152,0,0,1-.788-.126m-.292-.887.155.132q.693.59,1.143.06.422-.5-.252-1.07l-.174-.148Z" transform="translate(-996.747 -224.669)" fill="#1c1c1c"/>
    <path id="Path_157" data-name="Path 157" d="M1108.306,319.481l-1.061-1.33-.8.636,1.03,1.291-.471.375-1.03-1.291-1.109.884,1.06,1.33-.47.375-1.46-1.831,3.318-2.645,1.46,1.831Z" transform="translate(-1068.673 -307.123)" fill="#1c1c1c"/>
    <path id="Path_158" data-name="Path 158" d="M1164.762,415.369l-.791-1.506-.9.474.768,1.462-.533.28-.768-1.462-1.255.659.791,1.506-.533.28-1.089-2.073,3.756-1.973,1.089,2.073Z" transform="translate(-1123.317 -399.8)" fill="#1c1c1c"/>
    <path id="Path_159" data-name="Path 159" d="M176.505,947.851l-1.507.836-.311-.56,3.711-2.058.352.635a3.271,3.271,0,0,1,.326.74,1.08,1.08,0,0,1-.011.559,1.208,1.208,0,0,1-.611.757,1.163,1.163,0,0,1-1,.107,1.544,1.544,0,0,1-.808-.755Zm.519-.288.116.209q.428.772,1.021.442.574-.318.133-1.114l-.1-.185Z" transform="translate(-169.098 -915.796)" fill="#1c1c1c"/>
    <path id="Path_160" data-name="Path 160" d="M218.007,1048.7l-1.163-1.4-1.094.3-.442-.53,4.808-1.276-2.167,4.444-.449-.538Zm.3-.586.705-1.407-1.53.417Z" transform="translate(-208.418 -1012.333)" fill="#1c1c1c"/>
    <path id="Path_161" data-name="Path 161" d="M326.624,1104.252l-.072,2.234-.619-.48.108-2.115-.091-.071-1.065,1.372-.506-.393,2.6-3.351.593.46a1.874,1.874,0,0,1,.766.995,1.161,1.161,0,0,1-.244.987,1.205,1.205,0,0,1-.679.453,1.151,1.151,0,0,1-.793-.09m-.331-.873.161.125q.719.558,1.145.009.4-.514-.3-1.057l-.18-.14Z" transform="translate(-314 -1066.203)" fill="#1c1c1c"/>
    <path id="Path_162" data-name="Path 162" d="M413.557,1176.454l-1.641-.78-.869.729-.623-.3,3.832-3.173-.105,4.943-.633-.3Zm.022-.656.051-1.573-1.215,1.02Z" transform="translate(-397.291 -1135.402)" fill="#1c1c1c"/>
    <path id="Path_163" data-name="Path 163" d="M560.126,1210.653l.953-4.135.621.143a2.779,2.779,0,0,1,.647.217,1.017,1.017,0,0,1,.37.314,1.155,1.155,0,0,1,.185.457,1.223,1.223,0,0,1-.007.506,1,1,0,0,1-.514.674,1.027,1.027,0,0,1,.429.514,1.2,1.2,0,0,1-.488,1.433,1.157,1.157,0,0,1-.529.18,2.764,2.764,0,0,1-.722-.085Zm.759-.443.386.089a.983.983,0,0,0,.66-.023.589.589,0,0,0,.314-.407.6.6,0,0,0-.1-.5,1.069,1.069,0,0,0-.658-.341l-.316-.073Zm.409-1.773.2.045a.74.74,0,0,0,.546-.036.614.614,0,0,0,.267-.417.584.584,0,0,0-.064-.482.711.711,0,0,0-.447-.262l-.22-.051Z" transform="translate(-542.203 -1167.911)" fill="#1c1c1c"/>
    <path id="Path_164" data-name="Path 164" d="M679.376,1226.114l-1.7-.068-.04,1.019,1.65.066-.024.6-1.65-.066-.056,1.417,1.7.068-.024.6-2.34-.093.169-4.24,2.339.093Z" transform="translate(-655.232 -1186.208)" fill="#1c1c1c"/>
    <path id="Path_165" data-name="Path 165" d="M769.256,1212.767l-.837-4.454,3.639,2.61-.545-2.9.629-.118.831,4.424-3.638-2.6.549,2.92Z" transform="translate(-743.831 -1169.256)" fill="#1c1c1c"/>
    <path id="Path_166" data-name="Path 166" d="M950.689,1148.323l-1.293.717.494.892,1.247-.692.292.526-1.247.692.979,1.767-.56.311-2.057-3.711,1.853-1.027Z" transform="translate(-918.192 -1111.07)" fill="#1c1c1c"/>
    <path id="Path_167" data-name="Path 167" d="M1020.558,1110.738l2.162.569-.606.5-2.038-.578-.089.073,1.1,1.345-.5.405-2.685-3.285.581-.475a1.874,1.874,0,0,1,1.141-.524,1.161,1.161,0,0,1,.907.458,1.205,1.205,0,0,1,.29.764,1.152,1.152,0,0,1-.265.753m-.925.128.157-.129q.7-.576.264-1.114-.412-.5-1.1.056l-.177.144Z" transform="translate(-985.333 -1073.284)" fill="#1c1c1c"/>
    <path id="Path_168" data-name="Path 168" d="M1092.7,1021.745l-1.094,1.3.781.656,1.062-1.265.461.387-1.062,1.265,1.086.912,1.094-1.3.461.387-1.505,1.793-3.25-2.728,1.505-1.793Z" transform="translate(-1055.832 -988.677)" fill="#1c1c1c"/>
    <path id="Path_169" data-name="Path 169" d="M1148.63,943.955l-.839,1.48.887.5.815-1.437.523.3-.815,1.437,1.233.7.84-1.479.523.3-1.156,2.037-3.69-2.094,1.155-2.036Z" transform="translate(-1110.25 -913.462)" fill="#1c1c1c"/>
    <path id="Path_170" data-name="Path 170" d="M1251.714,647.49c.037.028.257.216.257.8a12.88,12.88,0,0,1-.263,1.883,11.964,11.964,0,0,1-.285-1.883,1.182,1.182,0,0,1,.167-.677,4.7,4.7,0,0,0-1.5,2.653c0,1.288,1.629,2.667,1.629,2.667s1.5-1.378,1.5-2.667-1.5-2.778-1.5-2.778l0,0" transform="translate(-1210.088 -626.767)" fill="#1c1c1c"/>
    <path id="Path_171" data-name="Path 171" d="M124.683,672.061c-.038-.028-.257-.216-.257-.8a12.881,12.881,0,0,1,.263-1.883,11.957,11.957,0,0,1,.285,1.883,1.182,1.182,0,0,1-.167.677,4.7,4.7,0,0,0,1.5-2.653c0-1.289-1.629-2.667-1.629-2.667s-1.5,1.378-1.5,2.667,1.5,2.778,1.5,2.778l0,0" transform="translate(-119.233 -645.29)" fill="#1c1c1c"/>
  </g>
</svg>
