<svg xmlns="http://www.w3.org/2000/svg" width="46" height="44.2" viewBox="0 0 46 44.2">
  <g id="shop-location" transform="translate(-1 -1)">
    <path id="Path_46" data-name="Path 46" d="M26.749,23.994A5,5,0,0,1,22,19a5,5,0,0,1-10,0,5,5,0,0,1-5,5c-2.761,0-5-2.083-5-6L10,2H34l8,16a8.7,8.7,0,0,1-.186,1.839" fill="none" stroke="#1c1c1c" stroke-linecap="round" stroke-linejoin="round" stroke-width="2"/>
    <path id="Path_47" data-name="Path 47" d="M8,24V42H26" fill="none" stroke="#1c1c1c" stroke-linecap="round" stroke-linejoin="round" stroke-width="2"/>
    <path id="Path_48" data-name="Path 48" d="M46,28c0,6.2-10,16.2-10,16.2S26,34.2,26,28a10,10,0,0,1,20,0Z" fill="none" stroke="#1c1c1c" stroke-linecap="round" stroke-linejoin="round" stroke-width="2"/>
    <circle id="Ellipse_7" data-name="Ellipse 7" cx="3" cy="3" r="3" transform="translate(33 25)" fill="none" stroke="#1c1c1c" stroke-linecap="round" stroke-linejoin="round" stroke-width="2"/>
  </g>
</svg>
