<svg xmlns="http://www.w3.org/2000/svg" width="82.428" height="24.235" viewBox="0 0 82.428 24.235">
  <g id="stc" transform="translate(-31 -189.848)" style="isolation: isolate">
    <path id="Path_13716" data-name="Path 13716" d="M322.862,229.37v-12.8h2.171v1.027a3.5,3.5,0,0,1,2.855-1.274c2.5,0,4.295,1.994,4.295,4.849s-1.805,4.885-4.295,4.885a3.5,3.5,0,0,1-2.855-1.3v4.613h-2.171Zm2.171-9.38v2.36A2.685,2.685,0,0,0,327.511,224c1.44,0,2.407-1.074,2.407-2.844,0-1.746-.968-2.808-2.407-2.808a2.657,2.657,0,0,0-2.478,1.64" transform="translate(-238.401 -21.623)" fill="#02aa7c"/>
    <path id="Path_13717" data-name="Path 13717" d="M381.415,224.2a2.727,2.727,0,0,1,2.572-2.844l3.693-.472v-.46a.742.742,0,0,0-.8-.85h-4.637v-1.97h4.72c1.876,0,2.9.92,2.9,2.549v6.666h-2.195V225.7a3.555,3.555,0,0,1-3.044,1.4,2.909,2.909,0,0,1-3.209-2.9m3.74,1.133a2.7,2.7,0,0,0,2.513-1.546v-1.156l-2.82.389c-.779.106-1.215.519-1.215,1.192,0,.72.555,1.121,1.522,1.121" transform="translate(-286.229 -22.676)" fill="#02aa7c"/>
    <path id="Path_13718" data-name="Path 13718" d="M434.326,228.451h1.581a1,1,0,0,0,1.074-.814l.283-.814-3.351-9.215h2.266l2.088,6.419h.047l1.994-6.419h2.23l-3.669,10.584c-.5,1.451-1.156,2.23-2.773,2.23h-1.77v-1.97Z" transform="translate(-329.11 -22.675)" fill="#02aa7c"/>
    <path id="Path_13719" data-name="Path 13719" d="M38.964,214.083a8.455,8.455,0,0,0,5.97-2.112,5.473,5.473,0,0,0,1.628-3.964,5.133,5.133,0,0,0-1.51-3.693,7.891,7.891,0,0,0-4.153-2.041l-2.9-.566c-1.2-.224-1.888-.826-1.888-1.664,0-1.1,1.062-1.852,2.761-1.852a3.582,3.582,0,0,1,2.572.944,2.856,2.856,0,0,1,.72,1.546l4.189-.944A5.171,5.171,0,0,0,44.8,196.6a8.461,8.461,0,0,0-5.982-2.218,8.187,8.187,0,0,0-5.557,1.959,5.512,5.512,0,0,0-1.77,4.082,4.7,4.7,0,0,0,1.357,3.469,8.267,8.267,0,0,0,3.964,2.006l2.867.684c1.44.342,2.077.873,2.077,1.817,0,1.168-1.062,1.852-2.8,1.852a3.883,3.883,0,0,1-2.9-1.1,2.636,2.636,0,0,1-.755-1.734L31,208.36a5.386,5.386,0,0,0,1.628,3.327,8.739,8.739,0,0,0,6.336,2.4m31.881,0a8.957,8.957,0,0,0,6.419-2.454,8.391,8.391,0,0,0,2.265-3.811l-4.413-1.475a4.192,4.192,0,0,1-1.168,1.959,4.291,4.291,0,0,1-3.1,1.168,4.775,4.775,0,0,1-3.363-1.357,5.474,5.474,0,0,1-1.4-3.894,5.414,5.414,0,0,1,1.4-3.894A4.593,4.593,0,0,1,70.81,199a4,4,0,0,1,2.985,1.133,4.807,4.807,0,0,1,1.133,2.006l4.5-1.51a8.593,8.593,0,0,0-2.112-3.74,9.192,9.192,0,0,0-6.607-2.525,9.54,9.54,0,0,0-6.832,2.761,10.325,10.325,0,0,0,.071,14.206,9.645,9.645,0,0,0,6.9,2.749m-15.256,0a6.31,6.31,0,0,0,3.964-1.133v-4.082a4.361,4.361,0,0,1-2.537.755,2.118,2.118,0,0,1-2.454-2.49V189.848H49.572v5.1h9.97v4.838h-9.97v8.578a5.77,5.77,0,0,0,1.475,4.118,6.32,6.32,0,0,0,4.542,1.6" fill="#502c84"/>
  </g>
</svg>
