<svg xmlns="http://www.w3.org/2000/svg" xmlns:xlink="http://www.w3.org/1999/xlink" width="49.795" height="34.061" viewBox="0 0 49.795 34.061">
  <defs>
    <clipPath id="clip-path">
      <rect id="Rectangle_108" data-name="Rectangle 108" width="49.795" height="34.061" fill="none"/>
    </clipPath>
  </defs>
  <g id="usda" clip-path="url(#clip-path)">
    <path id="Path_88" data-name="Path 88" d="M11.3,2.247l-.063,8.587c0,3.57-2.121,4.955-4.976,4.955C3.8,15.79.672,14.7.672,10.982V2.247A1.066,1.066,0,0,0,0,1.3H4.031a1.047,1.047,0,0,0-.651.945v8.8c0,1.47.5,3.548,3.233,3.548,2.5,0,3.4-1.638,3.4-3.716l-.042-8.63A1.013,1.013,0,0,0,9.406,1.3h2.436a1,1,0,0,0-.546.945" transform="translate(0 -0.861)"/>
    <path id="Path_89" data-name="Path 89" d="M42.075,15.339a8.912,8.912,0,0,1-4.031-1.008l-.1-3.549c.4,1.491,1.659,3.465,3.842,3.465a2.471,2.471,0,0,0,2.709-2.52c0-2.016-1.827-2.289-3.737-3.317-1.932-1.071-2.771-2.2-2.771-3.8,0-2.855,2.667-3.989,4.577-3.989a6.757,6.757,0,0,1,3.171.777l.1,3.107a3.778,3.778,0,0,0-3.506-2.792A2.029,2.029,0,0,0,40.1,3.727c0,1.281.9,1.764,2.876,2.667,1.953.924,3.989,1.617,3.989,4.535a4.619,4.619,0,0,1-4.892,4.41" transform="translate(-25.091 -0.41)"/>
    <path id="Path_90" data-name="Path 90" d="M74.085,15.58h-5.4a1.044,1.044,0,0,0,.546-.945V2.247a1,1,0,0,0-.546-.945h5.585c6.908,0,8.293,4.892,8.293,6.929,0,3.654-2.813,7.349-8.482,7.349M73.833,2.352c-.5,0-1.617,0-1.932.042V14.488h1.68c4.745,0,6.068-3.191,6.068-6.257,0-2.52-1.47-5.879-5.816-5.879" transform="translate(-45.428 -0.861)"/>
    <path id="Path_91" data-name="Path 91" d="M115.363,14.719c.546-.294.651-.588.5-1.029-.063-.21-.609-1.491-1.2-2.919h-5.144a30.811,30.811,0,0,0-1.176,2.9c-.189.5-.084.8.483,1.05h-2.9a2.493,2.493,0,0,0,.986-1.029c.4-.8,5.922-13.69,5.922-13.69s5.585,12.892,5.962,13.69a1.853,1.853,0,0,0,1.05,1.029ZM112.046,4.535s-1.428,3.57-2.1,5.144h4.241c-.986-2.331-2.141-5.144-2.141-5.144" transform="translate(-70.061)"/>
    <path id="Path_92" data-name="Path 92" d="M50.171,49.392s-30.555-.758-48.649,8.884c0,0,19.178-7.584,48.649-6.826Z" transform="translate(-1.007 -32.656)"/>
    <path id="Path_93" data-name="Path 93" d="M1.522,49.419s10.293.108,16.686,2.492c0,0-13.11-1.083-16.686-.542Z" transform="translate(-1.007 -32.683)"/>
    <path id="Path_94" data-name="Path 94" d="M1.522,59.109a109.146,109.146,0,0,1,11.81.108s-10.726,1.3-11.81,1.842Z" transform="translate(-1.007 -39.014)"/>
    <path id="Path_95" data-name="Path 95" d="M45.123,60.266l-.157,0c-8.885.17-27.517,1.243-43.421,6.862V73.9l48.649-.009V60.266s-1.889-.058-5.071,0" transform="translate(-1.022 -39.84)"/>
  </g>
</svg>
