<svg xmlns="http://www.w3.org/2000/svg" xmlns:xlink="http://www.w3.org/1999/xlink" width="47.761" height="47.761" viewBox="0 0 47.761 47.761">
  <defs>
    <clipPath id="clip-path">
      <rect id="Rectangle_113" data-name="Rectangle 113" width="47.761" height="47.761" fill="none"/>
    </clipPath>
  </defs>
  <g id="vegan" clip-path="url(#clip-path)">
    <path id="Path_172" data-name="Path 172" d="M24.412.18l2.5,1.919a.872.872,0,0,0,.823.13L30.7,1.176a.872.872,0,0,1,1.01.328l1.782,2.6a.872.872,0,0,0,.742.378l3.148-.085a.872.872,0,0,1,.859.624l.892,3.02a.872.872,0,0,0,.589.589l3.02.892a.872.872,0,0,1,.624.859l-.085,3.148a.872.872,0,0,0,.378.742l2.6,1.782a.872.872,0,0,1,.328,1.01l-1.053,2.968a.872.872,0,0,0,.13.823l1.919,2.5a.872.872,0,0,1,0,1.062l-1.919,2.5a.872.872,0,0,0-.13.823L46.585,30.7a.872.872,0,0,1-.328,1.01l-2.6,1.782a.872.872,0,0,0-.378.742l.085,3.148a.872.872,0,0,1-.624.859l-3.02.892a.872.872,0,0,0-.589.589l-.892,3.02a.872.872,0,0,1-.859.624l-3.148-.085a.872.872,0,0,0-.742.378l-1.782,2.6a.872.872,0,0,1-1.01.328l-2.968-1.053a.872.872,0,0,0-.823.13l-2.5,1.919a.872.872,0,0,1-1.062,0l-2.5-1.919a.872.872,0,0,0-.823-.13l-2.968,1.053a.872.872,0,0,1-1.01-.328l-1.782-2.6a.872.872,0,0,0-.742-.378l-3.148.085a.872.872,0,0,1-.859-.624l-.892-3.02a.872.872,0,0,0-.589-.589l-3.02-.892a.872.872,0,0,1-.624-.859l.084-3.148a.872.872,0,0,0-.378-.742l-2.6-1.782a.872.872,0,0,1-.328-1.01L2.23,27.731a.872.872,0,0,0-.13-.823l-1.919-2.5a.872.872,0,0,1,0-1.062l1.919-2.5a.872.872,0,0,0,.13-.823L1.177,17.061a.872.872,0,0,1,.328-1.01l2.6-1.782a.872.872,0,0,0,.378-.742L4.4,10.379a.872.872,0,0,1,.624-.859l3.02-.892a.872.872,0,0,0,.589-.589l.892-3.02a.872.872,0,0,1,.859-.624l3.148.085A.872.872,0,0,0,14.27,4.1l1.782-2.6a.872.872,0,0,1,1.01-.328L20.03,2.229a.872.872,0,0,0,.823-.13L23.35.18a.872.872,0,0,1,1.062,0" transform="translate(0 0)" fill="#1c1c1c"/>
    <path id="Path_173" data-name="Path 173" d="M256.926,561.812l.233-.058.075.042.025.083-.025.133-.075.224-.258.656-.291.889-.233.789-.058.291-.025.3q.008.357.307.4.831-.042,1.778-2.293l.307-.723.174-.465a.343.343,0,0,1,.075-.174.316.316,0,0,1,.15-.075l.349-.058.083-.017a.141.141,0,0,1,.141.166l-.017.108-.058.166a7.961,7.961,0,0,1-.731,1.4q-.3.482-.631.922-1.072,1.413-1.811,1.388a.731.731,0,0,1-.8-.814,3.711,3.711,0,0,1,.091-.756l.241-1,.324-1.039.066-.175.075-.116a.6.6,0,0,1,.15-.083Z" transform="translate(-243.103 -534.262)" fill="#fff"/>
    <path id="Path_174" data-name="Path 174" d="M336.648,565.069a.581.581,0,0,0,.623.49,2.467,2.467,0,0,0,1.363-.64l.515-.457a.274.274,0,0,1,.15-.075l.075.025a.113.113,0,0,1,.033.083l-.033.1a3.26,3.26,0,0,1-1.545,1.138,2.387,2.387,0,0,1-.457.141,1.86,1.86,0,0,1-.424.033q-1.172-.009-1.188-1.047a3.054,3.054,0,0,1,.931-2.031,2.81,2.81,0,0,1,1.977-1.076.964.964,0,0,1,.627.22.727.727,0,0,1,.27.594q.008,1.08-2.052,1.994l-.881.382Zm-.008-.474.424-.191q1.4-.665,1.6-1.562l.025-.274q-.008-.366-.208-.44l-.133-.025a.787.787,0,0,0-.565.341l-.316.457-.374.64-.249.532Z" transform="translate(-319.326 -534.262)" fill="#fff"/>
    <path id="Path_175" data-name="Path 175" d="M415.67,563.96l-.781.939q-.848,1.022-1.4,1.005a.89.89,0,0,1-.723-.32,1.1,1.1,0,0,1-.258-.752,2.685,2.685,0,0,1,.507-1.487,3.465,3.465,0,0,1,1.138-1.113,3.5,3.5,0,0,1,1.737-.482q1.038-.008,1.022.316l-.033.125-.066.15-.166-.075-.291-.116a2,2,0,0,0-.382-.05,2.136,2.136,0,0,0-1.429.615,3.656,3.656,0,0,0-.623.715,2.67,2.67,0,0,0-.54,1.462q-.017.449.332.449a.805.805,0,0,0,.523-.183,3.622,3.622,0,0,0,.723-.706l.523-.706a7.282,7.282,0,0,0,.469-.76q.145-.287.328-.3l.133.017.2.033.125.033.05.042.017.05-.025.125-.166.6q-.141.523-.507,1.562l.532-.424.133-.091.042-.008.1.075.033.083a.282.282,0,0,1-.108.158l-.823.7-.1.258-.407,1.1q-.1.282-.357.827a8.006,8.006,0,0,1-.548.985,2.87,2.87,0,0,1-.623.715,1.77,1.77,0,0,1-1.113.507.712.712,0,0,1-.532-.212.659.659,0,0,1-.191-.519,2.563,2.563,0,0,1,.839-1.628,13.639,13.639,0,0,1,1.57-1.437l.457-.349Zm-.831,2.4-.357.282-.656.582a6.074,6.074,0,0,0-1.2,1.437,1.147,1.147,0,0,0-.141.59q.017.424.324.415.332.008.715-.59l.407-.715.49-1,.316-.731Z" transform="translate(-391.975 -534.258)" fill="#fff"/>
    <path id="Path_176" data-name="Path 176" d="M525.458,564.637l-.482.565a1.91,1.91,0,0,1-1.279.706.769.769,0,0,1-.615-.283.99.99,0,0,1-.216-.648,1.782,1.782,0,0,1,.108-.665,4.249,4.249,0,0,1,1.113-1.761,2.911,2.911,0,0,1,.756-.524,2.493,2.493,0,0,1,.723-.249l.4-.025.366.05q.133.033.141.141l-.042.125-.141.274-.133-.083a1.149,1.149,0,0,0-.515-.158,1.42,1.42,0,0,0-1.072.773,5.628,5.628,0,0,0-.631,1.2l-.141.432a1.478,1.478,0,0,0-.058.4q0,.432.382.432a1.306,1.306,0,0,0,.9-.59l.4-.515a9.333,9.333,0,0,0,.523-.814l.548-.947.216-.415.075-.125a.246.246,0,0,1,.191-.058h.3l.091.008.066.033.033.042a.475.475,0,0,1-.033.191l-.083.216-.416,1.155-.332.964-.133.44-.017.133q0,.266.208.282a1.214,1.214,0,0,0,.74-.457l.208-.208.116-.1.091-.05.067.033.025.083a.479.479,0,0,1-.116.191l-.507.532a1.444,1.444,0,0,1-1.039.54q-.607.025-.6-.64a2.909,2.909,0,0,1,.1-.69l.125-.465Z" transform="translate(-497.276 -534.262)" fill="#fff"/>
    <path id="Path_177" data-name="Path 177" d="M632.95,563.432l.6-.831q.615-.831,1.138-.848a.767.767,0,0,1,.54.233.689.689,0,0,1,.216.523,2.383,2.383,0,0,1-.133.715l-.258.673-.415,1.055-.042.175q0,.216.2.216a.527.527,0,0,0,.283-.116l.407-.324.307-.282.166-.166.091-.058.1.05.042.05.008.042q.008.191-.781.831a1.954,1.954,0,0,1-.989.54q-.64-.008-.623-.548a2.312,2.312,0,0,1,.166-.756l.258-.731.258-.731.174-.49a1,1,0,0,0,.058-.266.248.248,0,0,0-.233-.266.764.764,0,0,0-.515.357l-.407.548-.681.989a8.758,8.758,0,0,0-.565.989,5.042,5.042,0,0,1-.349.631.257.257,0,0,1-.133.125l-.158.025h-.415l-.058-.058.025-.166.033-.125.889-3.207.042-.15a.313.313,0,0,1,.083-.116l.141-.058.49-.125.116-.025.058.033.025.058-.033.174-.656,2.169Z" transform="translate(-600.314 -534.262)" fill="#fff"/>
    <path id="Path_178" data-name="Path 178" d="M207.833,323.2l-1.64.618-.079.032q-.178,0-.178-.246a1.144,1.144,0,0,1,.149-.507.737.737,0,0,1,.339-.368,11.765,11.765,0,0,0,1.192-.6q.721-.4,1.01-.543a1.268,1.268,0,0,1,.555-.141.781.781,0,0,1,.681.452,1.335,1.335,0,0,1,.115.57,1.672,1.672,0,0,1-.164.7,5.556,5.556,0,0,1-.448.778q-.283.42-.362.566l-1.981,3.423a6.075,6.075,0,0,0-1.085,3.118,1.135,1.135,0,0,0,.016.139,1.116,1.116,0,0,1,.016.151q0,.293-.21.293a5.437,5.437,0,0,1-1.347-.765.677.677,0,0,1-.261-.614,5.051,5.051,0,0,1,.361-1.628,12.416,12.416,0,0,1,.713-1.652q.519-.812,1.091-1.595t.971-1.333a6.838,6.838,0,0,0,.549-.852" transform="translate(-194.158 -305.718)" fill="#fff"/>
    <path id="Path_179" data-name="Path 179" d="M287.661,318.471a2.314,2.314,0,0,1,.325-.016,1.659,1.659,0,0,1,.709.176,2.19,2.19,0,0,1,.618.422.677.677,0,0,1,.246.44q0,.277-.452.277a.778.778,0,0,1,.543.432,2.237,2.237,0,0,1,.2,1.058q0,.392-.048.879a6.922,6.922,0,0,1-1.076,2.844,8.318,8.318,0,0,1-2.276,2.422,4.76,4.76,0,0,1-2.765.961h-.277a1.891,1.891,0,0,1-1.445-.794,3,3,0,0,1-.516-1.8,5.3,5.3,0,0,1,.188-1.351,6.93,6.93,0,0,1,.558-1.426,7.531,7.531,0,0,1,.877-1.327,8.449,8.449,0,0,1,1.491-1.478,11.163,11.163,0,0,1,1.657-1.081,10.527,10.527,0,0,1,1.441-.638m-.7,2.385a8.377,8.377,0,0,0-1.721,1.377,9.54,9.54,0,0,0-1.5,1.925,3.694,3.694,0,0,0-.592,1.808,1.4,1.4,0,0,0,.388,1.006,2.258,2.258,0,0,0,1.085-.374,8.051,8.051,0,0,0,1.345-1.024,12.741,12.741,0,0,0,1.339-1.442,10.8,10.8,0,0,0,1.083-1.636,3.667,3.667,0,0,0,.321-1.268q0-.658-.467-.761h-.083a.448.448,0,0,0-.289.1q-.119.1-.376.341t-.341.246q-.04,0-.1-.087a.5.5,0,0,1-.089-.206" transform="translate(-267.676 -302.87)" fill="#fff"/>
    <path id="Path_180" data-name="Path 180" d="M453.109,318.471a2.318,2.318,0,0,1,.325-.016,1.659,1.659,0,0,1,.709.176,2.187,2.187,0,0,1,.618.422.677.677,0,0,1,.246.44q0,.277-.452.277a.778.778,0,0,1,.543.432,2.238,2.238,0,0,1,.2,1.058q0,.392-.048.879a6.923,6.923,0,0,1-1.075,2.844,8.319,8.319,0,0,1-2.276,2.422,4.759,4.759,0,0,1-2.765.961h-.277a1.891,1.891,0,0,1-1.445-.794,3,3,0,0,1-.516-1.8,5.3,5.3,0,0,1,.188-1.351,6.927,6.927,0,0,1,.558-1.426,7.523,7.523,0,0,1,.877-1.327,8.447,8.447,0,0,1,1.49-1.478,11.163,11.163,0,0,1,1.657-1.081,10.528,10.528,0,0,1,1.441-.638m-.7,2.385a8.375,8.375,0,0,0-1.721,1.377,9.541,9.541,0,0,0-1.5,1.925,3.694,3.694,0,0,0-.592,1.808,1.4,1.4,0,0,0,.388,1.006,2.257,2.257,0,0,0,1.085-.374,8.048,8.048,0,0,0,1.345-1.024,12.741,12.741,0,0,0,1.339-1.442,10.8,10.8,0,0,0,1.083-1.636,3.671,3.671,0,0,0,.321-1.268q0-.658-.467-.761h-.083a.449.449,0,0,0-.289.1q-.119.1-.376.341t-.341.246q-.04,0-.1-.087a.5.5,0,0,1-.089-.206" transform="translate(-425.027 -302.87)" fill="#fff"/>
    <path id="Path_181" data-name="Path 181" d="M610.819,309.071a3.9,3.9,0,0,1-1.034,1.343,2.106,2.106,0,0,1-1.339.622.989.989,0,0,1-.357-.1A1.55,1.55,0,0,1,607,309.365a3.256,3.256,0,0,1,.38-1.46,3.54,3.54,0,0,1,.935-1.2,3.311,3.311,0,0,1,1.814-.875.442.442,0,0,1,.315.117.421.421,0,0,1,.125.323v.194a.882.882,0,0,1,.682.939,2.012,2.012,0,0,1-.036.368,4.444,4.444,0,0,1-.111.442q-.075.252-.147.456l-.143.406m4.591-2.836a.956.956,0,0,1,.063.357q0,.974-1.818,2.836-.59.578-1.279,1.381t-1.305,1.6q-.616.794-1.074,1.41t-1.436,1.959a1.25,1.25,0,0,1-.224.7.514.514,0,0,1-.39.212.653.653,0,0,1-.273-.063.309.309,0,0,1-.167-.131,1.232,1.232,0,0,1-.261-.681,1.791,1.791,0,0,1,.2-.769,5.965,5.965,0,0,1,.553-.9q.35-.483.909-1.165t1.082-1.315q.7-.883,1.394-1.7t1.347-1.491a17.793,17.793,0,0,1,1.329-1.244,11.967,11.967,0,0,1,1.349-.988m-7.091,3.423a1.381,1.381,0,0,0,.943-.509,5.474,5.474,0,0,0,.846-1.129,2.412,2.412,0,0,0,.351-.8v-.047a.3.3,0,0,0-.226-.131q-.06,0-.242.162a.533.533,0,0,1-.341.162,2.268,2.268,0,0,1-.277-.079,4.8,4.8,0,0,0-.844.965,1.9,1.9,0,0,0-.4,1,.469.469,0,0,0,.194.408m4.251,2.337a3.824,3.824,0,0,1,.891-.576,1.956,1.956,0,0,1,.78-.2.561.561,0,0,1,.351.117.351.351,0,0,1,.153.287.765.765,0,0,1-.032.261h.079q.582,0,.582.943a4.7,4.7,0,0,1-.075.792,2.658,2.658,0,0,1-.119.519,3.692,3.692,0,0,1-.681,1.038,4.357,4.357,0,0,1-1.014.842,2,2,0,0,1-1,.327.831.831,0,0,1-.729-.325,2.2,2.2,0,0,1-.65-1.458,3.787,3.787,0,0,1,1.462-2.563m1.9.614q-.028-.079-.162-.079a.711.711,0,0,0-.277.113.7.7,0,0,1-.289.113.217.217,0,0,1-.194-.147,3.524,3.524,0,0,0-.7.7,3.361,3.361,0,0,0-.45.776,1.848,1.848,0,0,0-.149.665.992.992,0,0,0,.1.325l.047.032a1.361,1.361,0,0,0,.883-.461,5.038,5.038,0,0,0,.838-1.05,2.008,2.008,0,0,0,.354-.858Z" transform="translate(-577.297 -290.86)" fill="#fff"/>
  </g>
</svg>
