<svg id="visa" xmlns="http://www.w3.org/2000/svg" width="80.535" height="19.834" viewBox="0 0 80.535 19.834">
  <g id="visa-2" data-name="visa" transform="translate(0 4.115)">
    <path id="Path_13711" data-name="Path 13711" d="M19.238,32.76h3.688l2.308-13.536H21.545Z" transform="translate(-3.183 -18.988)" fill="#1a1876"/>
    <path id="Path_13712" data-name="Path 13712" d="M30.918,24.728c-1.289-.626-2.079-1.045-2.071-1.678,0-.563.669-1.165,2.113-1.165a6.672,6.672,0,0,1,3.093.674l.5-2.934a9.526,9.526,0,0,0-3.306-.568c-3.646,0-6.214,1.836-6.235,4.467-.021,1.945,1.833,3.031,3.233,3.678,1.436.663,1.92,1.087,1.913,1.679-.008.907-1.146,1.322-2.208,1.322A8.078,8.078,0,0,1,24,29.277l-.517,3.031a11.694,11.694,0,0,0,4.111.722c3.879,0,6.4-1.815,6.425-4.625C34.029,26.865,33.047,25.693,30.918,24.728Z" transform="translate(-1.427 -19.057)" fill="#1a1876"/>
    <path id="Path_13713" data-name="Path 13713" d="M41.009,19.233H38.158a1.837,1.837,0,0,0-1.932,1.122l-5.479,12.4h3.875s.633-1.668.777-2.034l4.725.006c.11.474.45,2.028.45,2.028H44Zm-4.549,8.725c.153-.39,1.658-4.256,1.959-5.076.5,2.334.013.069,1.1,5.076Z" transform="translate(1.577 -18.984)" fill="#1a1876"/>
    <path id="Path_13714" data-name="Path 13714" d="M20.841,19.233l-3.613,9.23-.384-1.876L15.55,20.367a1.544,1.544,0,0,0-1.672-1.142H7.927l-.047.281a15.551,15.551,0,0,1,3.876,1.484l3.281,11.756,3.9,0,5.808-13.51H20.841Z" transform="translate(-7.88 -18.988)" fill="#1a1876"/>
  </g>
  <g id="mastercard" transform="translate(48.781 0)">
    <ellipse id="Ellipse_7928" data-name="Ellipse 7928" cx="9.225" cy="9.644" rx="9.225" ry="9.644" transform="translate(0 0.358)" fill="#e61c24"/>
    <ellipse id="Ellipse_7929" data-name="Ellipse 7929" cx="9.917" cy="9.917" rx="9.917" ry="9.917" transform="translate(11.919)" fill="#f99f1b"/>
    <path id="Path_13715" data-name="Path 13715" d="M24.694,17.736h0a9.9,9.9,0,0,0,0,15.53h0a9.9,9.9,0,0,0,0-15.53Z" transform="translate(-9.015 -15.584)" fill="#f26622"/>
  </g>
</svg>
